SplineFontDB: 3.2
FontName: RobotoLegacy-BoldItalic
FullName: Roboto Legacy Bold Italic
FamilyName: Roboto Legacy
Weight: Bold
Copyright: Font data copyright Google 2011
Version: 1.00000; 2011
ItalicAngle: 0
UnderlinePosition: -200
UnderlineWidth: 100
Ascent: 1536
Descent: 512
InvalidEm: 0
sfntRevision: 0x00010000
LayerCount: 2
Layer: 0 1 "Back" 1
Layer: 1 1 "Fore" 0
XUID: [1021 474 -1613799265 27554]
StyleMap: 0x0021
FSType: 4
OS2Version: 3
OS2_WeightWidthSlopeOnly: 0
OS2_UseTypoMetrics: 0
CreationTime: 1221222574
ModificationTime: 1744076461
PfmFamily: 81
TTFWeight: 700
TTFWidth: 5
LineGap: 0
VLineGap: 0
Panose: 0 0 0 0 0 0 0 0 0 0
OS2TypoAscent: 1536
OS2TypoAOffset: 0
OS2TypoDescent: -512
OS2TypoDOffset: 0
OS2TypoLinegap: 102
OS2WinAscent: 1946
OS2WinAOffset: 0
OS2WinDescent: 512
OS2WinDOffset: 0
HheadAscent: 1900
HheadAOffset: 0
HheadDescent: -500
HheadDOffset: 0
OS2SubXSize: 1434
OS2SubYSize: 1331
OS2SubXOff: 0
OS2SubYOff: 287
OS2SupXSize: 1434
OS2SupYSize: 1331
OS2SupXOff: 0
OS2SupYOff: 977
OS2StrikeYSize: 102
OS2StrikeYPos: 512
OS2CapHeight: 1456
OS2XHeight: 1082
OS2Vendor: 'pyrs'
OS2CodePages: 2000019f.4f010000
OS2UnicodeRanges: e00002ef.5000205b.00000020.00000000
Lookup: 1 0 0 "'smcp' Lowercase to Small Capitals lookup 0" { "'smcp' Lowercase to Small Capitals lookup 0 subtable"  } ['smcp' ('DFLT' <'dflt' > ) ]
Lookup: 4 0 1 "'liga' Standard Ligatures lookup 1" { "'liga' Standard Ligatures lookup 1 subtable"  } ['liga' ('DFLT' <'dflt' > ) ]
Lookup: 258 0 0 "'kern' Horizontal Kerning lookup 0" { "'kern' Horizontal Kerning lookup 0 per glyph data 0"  "'kern' Horizontal Kerning lookup 0 per glyph data 1"  "'kern' Horizontal Kerning lookup 0 per glyph data 2"  "'kern' Horizontal Kerning lookup 0 kerning class 3"  } ['kern' ('DFLT' <'dflt' > ) ]
MarkAttachClasses: 1
DEI: 91125
KernClass2: 32+ 29 "'kern' Horizontal Kerning lookup 0 kerning class 3"

StartChar: exclam
Encoding: 33 33 4
Width: 557
GlyphClass: 1
Flags: W
LayerCount: 2
Fore
SplineSet
421 502 m 1,0,-1
 129 502 l 1,1,-1
 272 1456 l 1,2,-1
 564 1456 l 1,3,-1
 421 502 l 1,0,-1
346 0 m 1,4,-1
 54 0 l 1,5,-1
 92 256 l 1,6,-1
 384 256 l 1,7,-1
 346 0 l 1,4,-1
EndSplineSet
Validated: 1
EndChar

StartChar: quotedbl
Encoding: 34 34 5
Width: 832
GlyphClass: 1
Flags: W
LayerCount: 2
Fore
SplineSet
462 1181 m 1,0,-1
 325 932 l 1,1,-1
 196 932 l 1,2,-1
 230 1168 l 1,3,-1
 270 1456 l 1,4,-1
 501 1456 l 1,5,-1
 462 1181 l 1,0,-1
803 1181 m 1,6,-1
 666 932 l 1,7,-1
 538 932 l 1,8,-1
 573 1177 l 1,9,-1
 612 1456 l 1,10,-1
 842 1456 l 1,11,-1
 803 1181 l 1,6,-1
EndSplineSet
Validated: 1
EndChar

StartChar: numbersign
Encoding: 35 35 6
Width: 1219
GlyphClass: 1
Flags: W
LayerCount: 2
Fore
SplineSet
631 410 m 1,0,-1
 440 410 l 1,1,-1
 307 0 l 1,2,-1
 123 0 l 1,3,-1
 256 410 l 1,4,-1
 30 410 l 1,5,-1
 55 579 l 1,6,-1
 311 579 l 1,7,-1
 405 869 l 1,8,-1
 173 869 l 1,9,-1
 199 1040 l 1,10,-1
 460 1040 l 1,11,-1
 596 1456 l 1,12,-1
 779 1456 l 1,13,-1
 644 1040 l 1,14,-1
 836 1040 l 1,15,-1
 972 1456 l 1,16,-1
 1155 1456 l 1,17,-1
 1019 1040 l 1,18,-1
 1240 1040 l 1,19,-1
 1214 869 l 1,20,-1
 964 869 l 1,21,-1
 870 579 l 1,22,-1
 1095 579 l 1,23,-1
 1070 410 l 1,24,-1
 815 410 l 1,25,-1
 682 0 l 1,26,-1
 498 0 l 1,27,-1
 631 410 l 1,0,-1
495 579 m 1,28,-1
 686 579 l 1,29,-1
 781 869 l 1,30,-1
 589 869 l 1,31,-1
 495 579 l 1,28,-1
EndSplineSet
Validated: 1
EndChar

StartChar: dollar
Encoding: 36 36 7
Width: 1216
GlyphClass: 1
Flags: W
LayerCount: 2
Fore
SplineSet
795 383 m 0,0,1
 806 468 806 468 767 515.5 c 128,-1,2
 728 563 728 563 612 610 c 1,3,4
 397 686 397 686 302 787 c 128,-1,5
 207 888 207 888 233 1071 c 0,6,7
 257 1246 257 1246 380 1351.5 c 128,-1,8
 503 1457 503 1457 694 1474 c 1,9,-1
 724 1688 l 1,10,-1
 883 1688 l 1,11,-1
 853 1470 l 1,12,13
 1024 1445 1024 1445 1113 1328 c 128,-1,14
 1202 1211 1202 1211 1177 1025 c 1,15,-1
 885 1025 l 1,16,17
 900 1138 900 1138 859 1194.5 c 128,-1,18
 818 1251 818 1251 728 1251 c 256,19,20
 638 1251 638 1251 587 1201.5 c 128,-1,21
 536 1152 536 1152 525 1070 c 0,22,23
 513 990 513 990 551 946 c 128,-1,24
 589 902 589 902 709 848 c 1,25,26
 920 776 920 776 1015.5 671.5 c 128,-1,27
 1111 567 1111 567 1086 385 c 0,28,29
 1060 203 1060 203 938.5 101.5 c 128,-1,30
 817 0 817 0 625 -17 c 1,31,-1
 597 -214 l 1,32,-1
 438 -214 l 1,33,-1
 466 -17 l 1,34,35
 281 1 281 1 170.5 112 c 128,-1,36
 60 223 60 223 94 436 c 1,37,-1
 97 441 l 1,38,-1
 382 441 l 1,39,40
 363 308 363 308 417.5 256 c 128,-1,41
 472 204 472 204 574 204 c 0,42,43
 668 204 668 204 725.5 252.5 c 128,-1,44
 783 301 783 301 795 383 c 0,0,1
EndSplineSet
Validated: 33
EndChar

StartChar: percent
Encoding: 37 37 8
Width: 1513
GlyphClass: 1
Flags: W
LayerCount: 2
Fore
SplineSet
191 1176 m 2,0,1
 211 1309 211 1309 307 1393 c 128,-1,2
 403 1477 403 1477 553 1477 c 0,3,4
 698 1477 698 1477 770.5 1390.5 c 128,-1,5
 843 1304 843 1304 824 1176 c 2,6,-1
 813 1099 l 2,7,8
 792 965 792 965 698 882.5 c 128,-1,9
 604 800 604 800 453 800 c 0,10,11
 309 800 309 800 234.5 886 c 128,-1,12
 160 972 160 972 180 1099 c 2,13,-1
 191 1176 l 2,0,1
374 1099 m 2,14,15
 365 1039 365 1039 390.5 1000.5 c 128,-1,16
 416 962 416 962 477 962 c 0,17,18
 533 962 533 962 571.5 1002 c 128,-1,19
 610 1042 610 1042 619 1099 c 2,20,-1
 630 1176 l 2,21,22
 639 1237 639 1237 613.5 1276 c 128,-1,23
 588 1315 588 1315 528 1315 c 0,24,25
 471 1315 471 1315 432 1274 c 128,-1,26
 393 1233 393 1233 385 1176 c 2,27,-1
 374 1099 l 2,14,15
765 357 m 2,28,29
 784 489 784 489 880.5 573 c 128,-1,30
 977 657 977 657 1127 657 c 0,31,32
 1271 657 1271 657 1344 570.5 c 128,-1,33
 1417 484 1417 484 1399 357 c 2,34,-1
 1387 280 l 2,35,36
 1366 146 1366 146 1271.5 63 c 128,-1,37
 1177 -20 1177 -20 1027 -20 c 0,38,39
 883 -20 883 -20 808 66.5 c 128,-1,40
 733 153 733 153 753 280 c 2,41,-1
 765 357 l 2,28,29
947 280 m 2,42,43
 938 221 938 221 966.5 181.5 c 128,-1,44
 995 142 995 142 1051 142 c 0,45,46
 1114 142 1114 142 1148.5 180.5 c 128,-1,47
 1183 219 1183 219 1193 280 c 2,48,-1
 1205 357 l 2,49,50
 1213 417 1213 417 1187 456 c 128,-1,51
 1161 495 1161 495 1102 495 c 0,52,53
 1045 495 1045 495 1005.5 454 c 128,-1,54
 966 413 966 413 959 357 c 2,55,-1
 947 280 l 2,42,43
397 109 m 1,56,-1
 267 184 l 1,57,-1
 1148 1322 l 1,58,-1
 1279 1247 l 1,59,-1
 397 109 l 1,56,-1
EndSplineSet
Validated: 33
EndChar

StartChar: ampersand
Encoding: 38 38 9
Width: 1346
GlyphClass: 1
Flags: W
LayerCount: 2
Fore
SplineSet
356 781 m 1,0,1
 304 871 304 871 282.5 945.5 c 128,-1,2
 261 1020 261 1020 274 1097 c 0,3,4
 302 1286 302 1286 421.5 1381.5 c 128,-1,5
 541 1477 541 1477 728 1477 c 0,6,7
 880 1477 880 1477 967.5 1377.5 c 128,-1,8
 1055 1278 1055 1278 1035 1140 c 0,9,10
 1018 1032 1018 1032 965.5 958.5 c 128,-1,11
 913 885 913 885 819 819 c 1,12,-1
 706 746 l 1,13,-1
 927 433 l 1,14,15
 973 492 973 492 1003.5 561.5 c 128,-1,16
 1034 631 1034 631 1046 709 c 1,17,-1
 1279 709 l 1,18,19
 1256 562 1256 562 1204 445 c 128,-1,20
 1152 328 1152 328 1064 239 c 1,21,-1
 1233 0 l 1,22,-1
 902 0 l 1,23,-1
 838 89 l 1,24,25
 746 34 746 34 652 6.5 c 128,-1,26
 558 -21 558 -21 454 -21 c 0,27,28
 245 -21 245 -21 128.5 95 c 128,-1,29
 12 211 12 211 40 392 c 0,30,31
 58 518 58 518 132 600 c 128,-1,32
 206 682 206 682 356 781 c 1,0,1
502 203 m 0,33,34
 553 203 553 203 608 217 c 128,-1,35
 663 231 663 231 717 259 c 1,36,-1
 475 598 l 1,37,-1
 465 592 l 1,38,39
 399 544 399 544 370 498.5 c 128,-1,40
 341 453 341 453 334 407 c 0,41,42
 320 314 320 314 366 258.5 c 128,-1,43
 412 203 412 203 502 203 c 0,33,34
535 1100 m 0,44,45
 528 1057 528 1057 542 1014 c 128,-1,46
 556 971 556 971 588 918 c 1,47,-1
 672 967 l 2,48,49
 734 1003 734 1003 758.5 1040.5 c 128,-1,50
 783 1078 783 1078 791 1124 c 0,51,52
 799 1177 799 1177 772 1214.5 c 128,-1,53
 745 1252 745 1252 686 1252 c 0,54,55
 628 1252 628 1252 586 1207.5 c 128,-1,56
 544 1163 544 1163 535 1100 c 0,44,45
EndSplineSet
Validated: 33
EndChar

StartChar: quotesingle
Encoding: 39 39 10
Width: 442
GlyphClass: 1
Flags: W
LayerCount: 2
Fore
SplineSet
443 1187 m 1,0,-1
 302 904 l 1,1,-1
 143 904 l 1,2,-1
 180 1172 l 1,3,-1
 220 1456 l 1,4,-1
 481 1456 l 1,5,-1
 443 1187 l 1,0,-1
EndSplineSet
Validated: 1
EndChar

StartChar: parenleft
Encoding: 40 40 11
Width: 711
GlyphClass: 1
Flags: W
LayerCount: 2
Fore
SplineSet
132 592 m 2,0,1
 189 1000 189 1000 376.5 1264.5 c 128,-1,2
 564 1529 564 1529 771 1612 c 1,3,-1
 777 1611 l 1,4,-1
 809 1466 l 1,5,6
 664 1368 664 1368 544.5 1150 c 128,-1,7
 425 932 425 932 378 594 c 1,8,-1
 375 568 l 1,9,10
 325 214 325 214 383 5 c 128,-1,11
 441 -204 441 -204 561 -307 c 1,12,-1
 487 -450 l 1,13,-1
 482 -450 l 1,14,15
 301 -369 301 -369 187 -96 c 128,-1,16
 73 177 73 177 129 570 c 2,17,-1
 132 592 l 2,0,1
EndSplineSet
Validated: 33
EndChar

StartChar: parenright
Encoding: 41 41 12
Width: 713
GlyphClass: 1
Flags: W
LayerCount: 2
Fore
SplineSet
607 570 m 2,0,1
 551 171 551 171 357 -99 c 128,-1,2
 163 -369 163 -369 -47 -451 c 1,3,-1
 -53 -450 l 1,4,-1
 -87 -307 l 1,5,6
 56 -209 56 -209 176.5 10 c 128,-1,7
 297 229 297 229 345 568 c 1,8,-1
 348 594 l 1,9,10
 397 944 397 944 337.5 1156.5 c 128,-1,11
 278 1369 278 1369 162 1470 c 1,12,-1
 237 1612 l 1,13,-1
 243 1612 l 1,14,15
 426 1532 426 1532 544.5 1253 c 128,-1,16
 663 974 663 974 610 592 c 2,17,-1
 607 570 l 2,0,1
EndSplineSet
Validated: 33
EndChar

StartChar: asterisk
Encoding: 42 42 13
Width: 857
GlyphClass: 1
Flags: W
LayerCount: 2
Fore
SplineSet
298 665 m 1,0,-1
 80 741 l 1,1,-1
 160 911 l 1,2,-1
 388 832 l 1,3,-1
 427 1081 l 1,4,-1
 603 1081 l 1,5,-1
 572 824 l 1,6,-1
 813 902 l 1,7,-1
 841 731 l 1,8,-1
 596 652 l 1,9,-1
 704 450 l 1,10,-1
 544 344 l 1,11,-1
 426 552 l 1,12,-1
 251 353 l 1,13,-1
 121 455 l 1,14,-1
 298 665 l 1,0,-1
EndSplineSet
Validated: 1
EndChar

StartChar: plus
Encoding: 43 43 14
Width: 1117
GlyphClass: 1
Flags: W
LayerCount: 2
Fore
SplineSet
736 812 m 1,0,-1
 1096 812 l 1,1,-1
 1058 560 l 1,2,-1
 698 560 l 1,3,-1
 636 146 l 1,4,-1
 360 146 l 1,5,-1
 422 560 l 1,6,-1
 60 560 l 1,7,-1
 98 812 l 1,8,-1
 460 812 l 1,9,-1
 519 1206 l 1,10,-1
 795 1206 l 1,11,-1
 736 812 l 1,0,-1
EndSplineSet
Validated: 1
EndChar

StartChar: comma
Encoding: 44 44 15
Width: 528
GlyphClass: 1
Flags: W
LayerCount: 2
Fore
SplineSet
339 13 m 1,0,-1
 133 -302 l 1,1,-1
 -62 -302 l 1,2,-1
 56 22 l 1,3,-1
 91 250 l 1,4,-1
 375 250 l 1,5,-1
 339 13 l 1,0,-1
EndSplineSet
Validated: 1
EndChar

StartChar: hyphen
Encoding: 45 45 16
Width: 892
GlyphClass: 1
Flags: W
LayerCount: 2
Fore
SplineSet
732 510 m 1,0,-1
 143 510 l 1,1,-1
 176 735 l 1,2,-1
 765 735 l 1,3,-1
 732 510 l 1,0,-1
EndSplineSet
Validated: 1
EndChar

StartChar: period
Encoding: 46 46 17
Width: 596
GlyphClass: 1
Flags: W
LayerCount: 2
Fore
SplineSet
356 0 m 1,0,-1
 64 0 l 1,1,-1
 102 256 l 1,2,-1
 394 256 l 1,3,-1
 356 0 l 1,0,-1
EndSplineSet
Validated: 1
EndChar

StartChar: slash
Encoding: 47 47 18
Width: 825
GlyphClass: 1
Flags: W
LayerCount: 2
Fore
SplineSet
171 -125 m 1,0,-1
 -113 -125 l 1,1,-1
 658 1456 l 1,2,-1
 942 1456 l 1,3,-1
 171 -125 l 1,0,-1
EndSplineSet
Validated: 1
EndChar

StartChar: zero
Encoding: 48 48 19
Width: 1175
GlyphClass: 1
Flags: W
LayerCount: 2
Fore
SplineSet
1079 527 m 2,0,1
 1039 261 1039 261 885 120 c 128,-1,2
 731 -21 731 -21 506 -21 c 0,3,4
 291 -21 291 -21 173 126.5 c 128,-1,5
 55 274 55 274 94 527 c 2,6,-1
 154 928 l 2,7,8
 194 1193 194 1193 348.5 1335 c 128,-1,9
 503 1477 503 1477 729 1477 c 0,10,11
 943 1477 943 1477 1060 1328.5 c 128,-1,12
 1177 1180 1177 1180 1139 928 c 2,13,-1
 1079 527 l 2,0,1
853 958 m 2,14,15
 874 1103 874 1103 832.5 1177.5 c 128,-1,16
 791 1252 791 1252 695 1252 c 0,17,18
 602 1252 602 1252 536 1174 c 128,-1,19
 470 1096 470 1096 450 958 c 2,20,-1
 381 499 l 2,21,22
 358 350 358 350 399.5 276.5 c 128,-1,23
 441 203 441 203 539 203 c 0,24,25
 631 203 631 203 696.5 280 c 128,-1,26
 762 357 762 357 784 499 c 2,27,-1
 853 958 l 2,14,15
EndSplineSet
Validated: 33
EndChar

StartChar: one
Encoding: 49 49 20
Width: 1175
GlyphClass: 1
Flags: W
LayerCount: 2
Fore
SplineSet
716 0 m 1,0,-1
 425 0 l 1,1,-1
 605 1202 l 1,2,-1
 304 1202 l 1,3,-1
 338 1425 l 1,4,-1
 938 1477 l 1,5,-1
 716 0 l 1,0,-1
EndSplineSet
Validated: 1
EndChar

StartChar: two
Encoding: 50 50 21
Width: 1175
GlyphClass: 1
Flags: W
LayerCount: 2
Fore
SplineSet
1019 0 m 1,0,-1
 42 0 l 1,1,-1
 69 191 l 1,2,-1
 591 701 l 2,3,4
 709 820 709 820 762.5 902.5 c 128,-1,5
 816 985 816 985 827 1054 c 0,6,7
 839 1147 839 1147 802 1199.5 c 128,-1,8
 765 1252 765 1252 674 1252 c 256,9,10
 583 1252 583 1252 519 1182 c 128,-1,11
 455 1112 455 1112 441 1008 c 1,12,-1
 158 1008 l 1,13,-1
 156 1014 l 1,14,15
 179 1215 179 1215 329.5 1346 c 128,-1,16
 480 1477 480 1477 706 1477 c 0,17,18
 921 1477 921 1477 1033 1361.5 c 128,-1,19
 1145 1246 1145 1246 1119 1055 c 0,20,21
 1099 919 1099 919 1018.5 817 c 128,-1,22
 938 715 938 715 734 517 c 1,23,-1
 453 230 l 1,24,-1
 456 224 l 1,25,-1
 1050 224 l 1,26,-1
 1019 0 l 1,0,-1
EndSplineSet
Validated: 33
EndChar

StartChar: three
Encoding: 51 51 22
Width: 1175
GlyphClass: 1
Flags: W
LayerCount: 2
Fore
SplineSet
1155 1065 m 0,0,1
 1138 960 1138 960 1068.5 877 c 128,-1,2
 999 794 999 794 892 748 c 1,3,4
 998 704 998 704 1047.5 617 c 128,-1,5
 1097 530 1097 530 1079 408 c 0,6,7
 1047 200 1047 200 888 89.5 c 128,-1,8
 729 -21 729 -21 500 -21 c 0,9,10
 308 -21 308 -21 171.5 87.5 c 128,-1,11
 35 196 35 196 69 390 c 1,12,-1
 71 396 l 1,13,-1
 356 396 l 1,14,15
 343 311 343 311 392.5 257 c 128,-1,16
 442 203 442 203 533 203 c 0,17,18
 629 203 629 203 702 262.5 c 128,-1,19
 775 322 775 322 789 411 c 0,20,21
 806 531 806 531 757 584 c 128,-1,22
 708 637 708 637 595 637 c 2,23,-1
 434 637 l 1,24,-1
 443 700 l 1,25,-1
 449 744 l 1,26,-1
 456 789 l 1,27,-1
 466 856 l 1,28,-1
 627 856 l 2,29,30
 728 856 728 856 788.5 911 c 128,-1,31
 849 966 849 966 863 1062 c 0,32,33
 876 1146 876 1146 831.5 1199 c 128,-1,34
 787 1252 787 1252 691 1252 c 0,35,36
 614 1252 614 1252 550 1202.5 c 128,-1,37
 486 1153 486 1153 476 1078 c 1,38,-1
 195 1078 l 1,39,-1
 193 1084 l 1,40,41
 214 1261 214 1261 366.5 1369 c 128,-1,42
 519 1477 519 1477 725 1477 c 0,43,44
 942 1477 942 1477 1063 1369.5 c 128,-1,45
 1184 1262 1184 1262 1155 1065 c 0,0,1
EndSplineSet
Validated: 33
EndChar

StartChar: four
Encoding: 52 52 23
Width: 1175
GlyphClass: 1
Flags: W
LayerCount: 2
Fore
SplineSet
956 542 m 1,0,-1
 1120 542 l 1,1,-1
 1086 316 l 1,2,-1
 922 316 l 1,3,-1
 875 0 l 1,4,-1
 583 0 l 1,5,-1
 630 316 l 1,6,-1
 37 316 l 1,7,-1
 50 491 l 1,8,-1
 798 1456 l 1,9,-1
 1093 1456 l 1,10,-1
 956 542 l 1,0,-1
326 547 m 1,11,-1
 329 542 l 1,12,-1
 664 542 l 1,13,-1
 743 1070 l 1,14,-1
 737 1072 l 1,15,-1
 698 1007 l 1,16,-1
 326 547 l 1,11,-1
EndSplineSet
Validated: 1
EndChar

StartChar: five
Encoding: 53 53 24
Width: 1175
GlyphClass: 1
Flags: W
LayerCount: 2
Fore
SplineSet
155 642 m 1,0,-1
 361 1456 l 1,1,-1
 1173 1456 l 1,2,-1
 1138 1222 l 1,3,-1
 565 1222 l 1,4,-1
 474 882 l 1,5,6
 520 912 520 912 585 931.5 c 128,-1,7
 650 951 650 951 723 953 c 0,8,9
 927 956 927 956 1018.5 827.5 c 128,-1,10
 1110 699 1110 699 1076 467 c 0,11,12
 1042 246 1042 246 902.5 112.5 c 128,-1,13
 763 -21 763 -21 512 -21 c 0,14,15
 318 -21 318 -21 188 86.5 c 128,-1,16
 58 194 58 194 90 378 c 1,17,-1
 92 383 l 1,18,-1
 375 396 l 1,19,20
 361 302 361 302 407.5 252.5 c 128,-1,21
 454 203 454 203 545 203 c 0,22,23
 645 203 645 203 705 272 c 128,-1,24
 765 341 765 341 784 465 c 0,25,26
 803 595 803 595 762.5 667.5 c 128,-1,27
 722 740 722 740 619 740 c 0,28,29
 539 740 539 740 487.5 709 c 128,-1,30
 436 678 436 678 410 625 c 1,31,-1
 155 642 l 1,0,-1
EndSplineSet
Validated: 33
EndChar

StartChar: six
Encoding: 54 54 25
Width: 1175
GlyphClass: 1
Flags: W
LayerCount: 2
Fore
SplineSet
811 1477 m 0,0,1
 893 1477 893 1477 965 1461 c 128,-1,2
 1037 1445 1037 1445 1102 1416 c 1,3,-1
 1018 1202 l 1,4,5
 954 1225 954 1225 901.5 1236.5 c 128,-1,6
 849 1248 849 1248 778 1248 c 0,7,8
 654 1248 654 1248 558.5 1149 c 128,-1,9
 463 1050 463 1050 438 877 c 2,10,-1
 431 834 l 1,11,12
 497 890 497 890 582 920 c 128,-1,13
 667 950 667 950 767 950 c 0,14,15
 946 950 946 950 1034.5 816 c 128,-1,16
 1123 682 1123 682 1092 472 c 0,17,18
 1057 245 1057 245 902.5 112 c 128,-1,19
 748 -21 748 -21 527 -21 c 0,20,21
 308 -21 308 -21 183.5 136 c 128,-1,22
 59 293 59 293 99 562 c 2,23,-1
 145 867 l 2,24,25
 188 1155 188 1155 373 1316 c 128,-1,26
 558 1477 558 1477 811 1477 c 0,0,1
636 729 m 0,27,28
 560 729 560 729 499.5 702.5 c 128,-1,29
 439 676 439 676 400 630 c 1,30,-1
 389 555 l 2,31,32
 362 381 362 381 409.5 292 c 128,-1,33
 457 203 457 203 560 203 c 0,34,35
 648 203 648 203 715 280 c 128,-1,36
 782 357 782 357 800 472 c 0,37,38
 818 596 818 596 774 662.5 c 128,-1,39
 730 729 730 729 636 729 c 0,27,28
EndSplineSet
Validated: 33
EndChar

StartChar: seven
Encoding: 55 55 26
Width: 1175
GlyphClass: 1
Flags: W
LayerCount: 2
Fore
SplineSet
1200 1231 m 1,0,1
 909 942 909 942 785 710.5 c 128,-1,2
 661 479 661 479 617 180 c 2,3,-1
 590 0 l 1,4,-1
 298 0 l 1,5,-1
 325 180 l 2,6,7
 372 497 372 497 518 738.5 c 128,-1,8
 664 980 664 980 919 1231 c 1,9,-1
 176 1231 l 1,10,-1
 209 1456 l 1,11,-1
 1233 1456 l 1,12,-1
 1200 1231 l 1,0,1
EndSplineSet
Validated: 1
EndChar

StartChar: eight
Encoding: 56 56 27
Width: 1175
GlyphClass: 1
Flags: W
LayerCount: 2
Fore
SplineSet
1138 1078 m 0,0,1
 1120 965 1120 965 1052 882 c 128,-1,2
 984 799 984 799 880 753 c 1,3,4
 989 703 989 703 1045.5 612 c 128,-1,5
 1102 521 1102 521 1086 406 c 0,6,7
 1054 196 1054 196 899 87.5 c 128,-1,8
 744 -21 744 -21 522 -21 c 0,9,10
 301 -21 301 -21 166.5 92.5 c 128,-1,11
 32 206 32 206 63 406 c 0,12,13
 81 530 81 530 167 621 c 128,-1,14
 253 712 253 712 386 759 c 1,15,16
 291 807 291 807 243.5 890 c 128,-1,17
 196 973 196 973 213 1078 c 0,18,19
 243 1278 243 1278 387.5 1377.5 c 128,-1,20
 532 1477 532 1477 745 1477 c 0,21,22
 939 1477 939 1477 1052.5 1372.5 c 128,-1,23
 1166 1268 1166 1268 1138 1078 c 0,0,1
796 420 m 0,24,25
 811 521 811 521 760.5 581.5 c 128,-1,26
 710 642 710 642 619 642 c 0,27,28
 524 642 524 642 448 579 c 128,-1,29
 372 516 372 516 358 420 c 0,30,31
 342 317 342 317 397.5 260 c 128,-1,32
 453 203 453 203 555 203 c 0,33,34
 641 203 641 203 711 263 c 128,-1,35
 781 323 781 323 796 420 c 0,24,25
845 1065 m 0,36,37
 858 1154 858 1154 821 1203 c 128,-1,38
 784 1252 784 1252 711 1252 c 0,39,40
 632 1252 632 1252 574 1202 c 128,-1,41
 516 1152 516 1152 503 1065 c 0,42,43
 488 972 488 972 530 919.5 c 128,-1,44
 572 867 572 867 655 867 c 0,45,46
 724 867 724 867 777.5 921.5 c 128,-1,47
 831 976 831 976 845 1065 c 0,36,37
EndSplineSet
Validated: 33
EndChar

StartChar: nine
Encoding: 57 57 28
Width: 1175
GlyphClass: 1
Flags: W
LayerCount: 2
Fore
SplineSet
482 203 m 0,0,1
 586 203 586 203 669.5 285 c 128,-1,2
 753 367 753 367 775 512 c 2,3,-1
 788 601 l 1,4,5
 731 540 731 540 659.5 509.5 c 128,-1,6
 588 479 588 479 510 479 c 0,7,8
 315 479 315 479 215.5 612.5 c 128,-1,9
 116 746 116 746 150 970 c 0,10,11
 183 1197 183 1197 340.5 1337 c 128,-1,12
 498 1477 498 1477 713 1477 c 0,13,14
 925 1477 925 1477 1045.5 1327.5 c 128,-1,15
 1166 1178 1166 1178 1127 919 c 2,16,-1
 1068 527 l 2,17,18
 1028 265 1028 265 857 122 c 128,-1,19
 686 -21 686 -21 449 -21 c 0,20,21
 376 -21 376 -21 295.5 -4.5 c 128,-1,22
 215 12 215 12 150 42 c 1,23,-1
 231 253 l 1,24,25
 290 227 290 227 348 215 c 128,-1,26
 406 203 406 203 482 203 c 0,0,1
591 693 m 0,27,28
 661 693 661 693 720 723.5 c 128,-1,29
 779 754 779 754 819 804 c 1,30,-1
 844 970 l 2,31,32
 864 1112 864 1112 819.5 1182 c 128,-1,33
 775 1252 775 1252 680 1252 c 0,34,35
 596 1252 596 1252 527.5 1169.5 c 128,-1,36
 459 1087 459 1087 442 970 c 0,37,38
 422 841 422 841 459.5 767 c 128,-1,39
 497 693 497 693 591 693 c 0,27,28
EndSplineSet
Validated: 33
EndChar

StartChar: less
Encoding: 60 60 31
Width: 1043
GlyphClass: 1
Flags: W
LayerCount: 2
Fore
SplineSet
341 550 m 1,0,-1
 341 544 l 1,1,-1
 887 341 l 1,2,-1
 846 69 l 1,3,-1
 39 436 l 1,4,-1
 51 514 l 1,5,-1
 73 663 l 1,6,-1
 990 1029 l 1,7,-1
 950 757 l 1,8,-1
 341 550 l 1,0,-1
EndSplineSet
Validated: 1
EndChar

StartChar: equal
Encoding: 61 61 32
Width: 1181
GlyphClass: 1
Flags: W
LayerCount: 2
Fore
SplineSet
1066 763 m 1,0,-1
 170 763 l 1,1,-1
 205 992 l 1,2,-1
 1101 992 l 1,3,-1
 1066 763 l 1,0,-1
1002 332 m 1,4,-1
 106 332 l 1,5,-1
 140 561 l 1,6,-1
 1036 561 l 1,7,-1
 1002 332 l 1,4,-1
EndSplineSet
Validated: 1
EndChar

StartChar: greater
Encoding: 62 62 33
Width: 1058
GlyphClass: 1
Flags: W
LayerCount: 2
Fore
SplineSet
706 539 m 1,0,-1
 706 545 l 1,1,-1
 152 751 l 1,2,-1
 192 1020 l 1,3,-1
 1009 654 l 1,4,-1
 987 505 l 1,5,-1
 986 505 l 1,6,-1
 975 427 l 1,7,-1
 48 60 l 1,8,-1
 89 330 l 1,9,-1
 706 539 l 1,0,-1
EndSplineSet
Validated: 1
EndChar

StartChar: question
Encoding: 63 63 34
Width: 1021
GlyphClass: 1
Flags: W
LayerCount: 2
Fore
SplineSet
306 414 m 1,0,1
 328 554 328 554 378.5 619 c 128,-1,2
 429 684 429 684 564 777 c 0,3,4
 643 835 643 835 695.5 902 c 128,-1,5
 748 969 748 969 761 1052 c 0,6,7
 775 1147 775 1147 734.5 1197.5 c 128,-1,8
 694 1248 694 1248 603 1248 c 0,9,10
 531 1248 531 1248 472 1204 c 128,-1,11
 413 1160 413 1160 399 1075 c 1,12,-1
 115 1075 l 1,13,-1
 114 1081 l 1,14,15
 140 1273 140 1273 285 1375 c 128,-1,16
 430 1477 430 1477 638 1477 c 0,17,18
 854 1477 854 1477 968 1362.5 c 128,-1,19
 1082 1248 1082 1248 1053 1055 c 0,20,21
 1033 923 1033 923 944.5 818.5 c 128,-1,22
 856 714 856 714 730 639 c 1,23,24
 662 592 662 592 635.5 545 c 128,-1,25
 609 498 609 498 597 414 c 1,26,-1
 306 414 l 1,0,1
537 0 m 1,27,-1
 243 0 l 1,28,-1
 281 250 l 1,29,-1
 575 250 l 1,30,-1
 537 0 l 1,27,-1
EndSplineSet
Validated: 33
EndChar

StartChar: at
Encoding: 64 64 35
Width: 1817
GlyphClass: 1
Flags: W
LayerCount: 2
Fore
SplineSet
1727 513 m 0,0,1
 1685 295 1685 295 1542.5 137 c 128,-1,2
 1400 -21 1400 -21 1163 -21 c 0,3,4
 1088 -21 1088 -21 1037 23.5 c 128,-1,5
 986 68 986 68 973 148 c 1,6,7
 916 65 916 65 844 23.5 c 128,-1,8
 772 -18 772 -18 684 -18 c 0,9,10
 548 -18 548 -18 488.5 102 c 128,-1,11
 429 222 429 222 477 416 c 0,12,13
 541 670 541 670 682 823 c 128,-1,14
 823 976 823 976 992 976 c 0,15,16
 1102 976 1102 976 1173 949 c 128,-1,17
 1244 922 1244 922 1318 870 c 1,18,-1
 1314 866 l 1,19,-1
 1319 866 l 1,20,-1
 1182 293 l 2,21,22
 1161 198 1161 198 1176.5 163 c 128,-1,23
 1192 128 1192 128 1228 128 c 0,24,25
 1338 128 1338 128 1426.5 238 c 128,-1,26
 1515 348 1515 348 1548 513 c 0,27,28
 1618 866 1618 866 1494.5 1064 c 128,-1,29
 1371 1262 1371 1262 1052 1262 c 0,30,31
 761 1262 761 1262 542.5 1047 c 128,-1,32
 324 832 324 832 255 478 c 0,33,34
 184 123 184 123 316.5 -82 c 128,-1,35
 449 -287 449 -287 755 -287 c 0,36,37
 837 -287 837 -287 932 -267 c 128,-1,38
 1027 -247 1027 -247 1096 -217 c 1,39,-1
 1112 -364 l 1,40,41
 1039 -406 1039 -406 932 -429.5 c 128,-1,42
 825 -453 825 -453 726 -453 c 0,43,44
 345 -453 345 -453 161.5 -201.5 c 128,-1,45
 -22 50 -22 50 58 478 c 0,46,47
 140 904 140 904 416 1161 c 128,-1,48
 692 1418 692 1418 1080 1418 c 0,49,50
 1452 1418 1452 1418 1628.5 1172.5 c 128,-1,51
 1805 927 1805 927 1727 513 c 0,0,1
702 416 m 0,52,53
 674 289 674 289 692.5 223.5 c 128,-1,54
 711 158 711 158 775 158 c 0,55,56
 829 158 829 158 879 184.5 c 128,-1,57
 929 211 929 211 976 280 c 1,58,-1
 979 293 l 1,59,-1
 1097 789 l 1,60,61
 1076 796 1076 796 1053.5 800 c 128,-1,62
 1031 804 1031 804 1006 804 c 0,63,64
 900 804 900 804 824.5 706 c 128,-1,65
 749 608 749 608 702 416 c 0,52,53
EndSplineSet
Validated: 33
EndChar

StartChar: A
Encoding: 65 65 36
Width: 1303
GlyphClass: 1
Flags: W
LayerCount: 2
Fore
SplineSet
861 314 m 1,0,-1
 388 314 l 1,1,-1
 243 0 l 1,2,-1
 -62 0 l 1,3,-1
 647 1456 l 1,4,-1
 946 1456 l 1,5,-1
 1217 0 l 1,6,-1
 912 0 l 1,7,-1
 861 314 l 1,0,-1
495 543 m 1,8,-1
 823 543 l 1,9,-1
 740 1057 l 1,10,-1
 734 1058 l 1,11,-1
 495 543 l 1,8,-1
EndSplineSet
Validated: 1
Substitution2: "'smcp' Lowercase to Small Capitals lookup 0 subtable" A.smcp
EndChar

StartChar: B
Encoding: 66 66 37
Width: 1305
GlyphClass: 1
Flags: W
LayerCount: 2
Fore
SplineSet
54 0 m 1,0,-1
 272 1456 l 1,1,-1
 749 1456 l 2,2,3
 996 1456 996 1456 1129.5 1354.5 c 128,-1,4
 1263 1253 1263 1253 1235 1057 c 0,5,6
 1218 953 1218 953 1156 875.5 c 128,-1,7
 1094 798 1094 798 989 759 c 1,8,9
 1120 733 1120 733 1173.5 640 c 128,-1,10
 1227 547 1227 547 1210 424 c 0,11,12
 1177 207 1177 207 1025 103.5 c 128,-1,13
 873 0 873 0 617 0 c 2,14,-1
 54 0 l 1,0,-1
442 644 m 1,15,-1
 379 224 l 1,16,-1
 651 224 l 2,17,18
 763 224 763 224 833.5 275 c 128,-1,19
 904 326 904 326 919 424 c 0,20,21
 934 534 934 534 884 589 c 128,-1,22
 834 644 834 644 711 644 c 2,23,-1
 442 644 l 1,15,-1
473 846 m 1,24,-1
 679 846 l 2,25,26
 787 848 787 848 856 897 c 128,-1,27
 925 946 925 946 939 1034 c 0,28,29
 955 1139 955 1139 899.5 1185 c 128,-1,30
 844 1231 844 1231 716 1231 c 2,31,-1
 531 1231 l 1,32,-1
 473 846 l 1,24,-1
EndSplineSet
Validated: 33
Substitution2: "'smcp' Lowercase to Small Capitals lookup 0 subtable" B.smcp
EndChar

StartChar: C
Encoding: 67 67 38
Width: 1303
GlyphClass: 1
Flags: W
LayerCount: 2
Fore
SplineSet
1217 482 m 1,0,-1
 1219 476 l 1,1,2
 1187 234 1187 234 1024 106.5 c 128,-1,3
 861 -21 861 -21 600 -21 c 0,4,5
 348 -21 348 -21 207.5 149 c 128,-1,6
 67 319 67 319 106 583 c 2,7,-1
 150 872 l 2,8,9
 191 1148 191 1148 371.5 1312.5 c 128,-1,10
 552 1477 552 1477 810 1477 c 0,11,12
 1066 1477 1066 1477 1201 1345.5 c 128,-1,13
 1336 1214 1336 1214 1297 981 c 1,14,-1
 1294 975 l 1,15,-1
 1010 975 l 1,16,17
 1032 1120 1032 1120 975 1186 c 128,-1,18
 918 1252 918 1252 776 1252 c 0,19,20
 650 1252 650 1252 558 1145 c 128,-1,21
 466 1038 466 1038 441 874 c 2,22,-1
 397 583 l 2,23,24
 371 409 371 409 432.5 306 c 128,-1,25
 494 203 494 203 633 203 c 0,26,27
 759 203 759 203 836.5 272.5 c 128,-1,28
 914 342 914 342 935 482 c 1,29,-1
 1217 482 l 1,0,-1
EndSplineSet
Validated: 33
Substitution2: "'smcp' Lowercase to Small Capitals lookup 0 subtable" C.smcp
EndChar

StartChar: D
Encoding: 68 68 39
Width: 1355
GlyphClass: 1
Flags: W
LayerCount: 2
Fore
SplineSet
54 0 m 1,0,-1
 272 1456 l 1,1,-1
 780 1456 l 2,2,3
 1037 1456 1037 1456 1189 1284 c 128,-1,4
 1341 1112 1341 1112 1302 848 c 2,5,-1
 1266 607 l 2,6,7
 1224 329 1224 329 1028 164.5 c 128,-1,8
 832 0 832 0 562 0 c 2,9,-1
 54 0 l 1,0,-1
530 1231 m 1,10,-1
 379 224 l 1,11,-1
 596 224 l 2,12,13
 734 224 734 224 841 332.5 c 128,-1,14
 948 441 948 441 973 607 c 2,15,-1
 1010 850 l 2,16,17
 1035 1023 1035 1023 963.5 1127 c 128,-1,18
 892 1231 892 1231 747 1231 c 2,19,-1
 530 1231 l 1,10,-1
EndSplineSet
Validated: 33
Substitution2: "'smcp' Lowercase to Small Capitals lookup 0 subtable" D.smcp
EndChar

StartChar: E
Encoding: 69 69 40
Width: 1139
GlyphClass: 1
Flags: W
LayerCount: 2
Fore
SplineSet
982 640 m 1,0,-1
 442 640 l 1,1,-1
 379 224 l 1,2,-1
 1022 224 l 1,3,-1
 988 0 l 1,4,-1
 54 0 l 1,5,-1
 272 1456 l 1,6,-1
 1204 1456 l 1,7,-1
 1171 1231 l 1,8,-1
 530 1231 l 1,9,-1
 475 865 l 1,10,-1
 1016 865 l 1,11,-1
 982 640 l 1,0,-1
EndSplineSet
Validated: 1
Substitution2: "'smcp' Lowercase to Small Capitals lookup 0 subtable" E.smcp
EndChar

StartChar: F
Encoding: 70 70 41
Width: 1139
GlyphClass: 1
Flags: W
LayerCount: 2
Fore
SplineSet
996 605 m 1,0,-1
 436 605 l 1,1,-1
 346 0 l 1,2,-1
 54 0 l 1,3,-1
 272 1456 l 1,4,-1
 1225 1456 l 1,5,-1
 1192 1231 l 1,6,-1
 530 1231 l 1,7,-1
 470 830 l 1,8,-1
 1030 830 l 1,9,-1
 996 605 l 1,0,-1
EndSplineSet
Validated: 1
Substitution2: "'smcp' Lowercase to Small Capitals lookup 0 subtable" F.smcp
EndChar

StartChar: G
Encoding: 71 71 42
Width: 1364
GlyphClass: 1
Flags: W
LayerCount: 2
Fore
SplineSet
1200 199 m 1,0,1
 1118 110 1118 110 973.5 44.5 c 128,-1,2
 829 -21 829 -21 616 -21 c 0,3,4
 362 -21 362 -21 213.5 147 c 128,-1,5
 65 315 65 315 105 576 c 2,6,-1
 151 880 l 2,7,8
 192 1154 192 1154 378 1315.5 c 128,-1,9
 564 1477 564 1477 823 1477 c 0,10,11
 1079 1477 1079 1477 1207 1349 c 128,-1,12
 1335 1221 1335 1221 1299 1013 c 1,13,-1
 1297 1007 l 1,14,-1
 1021 1007 l 1,15,16
 1039 1127 1039 1127 982 1189.5 c 128,-1,17
 925 1252 925 1252 796 1252 c 256,18,19
 667 1252 667 1252 566.5 1147.5 c 128,-1,20
 466 1043 466 1043 442 882 c 2,21,-1
 396 576 l 2,22,23
 370 404 370 404 438 303.5 c 128,-1,24
 506 203 506 203 649 203 c 0,25,26
 748 203 748 203 815.5 224.5 c 128,-1,27
 883 246 883 246 919 277 c 1,28,-1
 961 559 l 1,29,-1
 681 559 l 1,30,-1
 711 761 l 1,31,-1
 1284 761 l 1,32,-1
 1200 199 l 1,0,1
EndSplineSet
Validated: 33
Substitution2: "'smcp' Lowercase to Small Capitals lookup 0 subtable" G.smcp
EndChar

StartChar: H
Encoding: 72 72 43
Width: 1445
GlyphClass: 1
Flags: W
LayerCount: 2
Fore
SplineSet
1231 0 m 1,0,-1
 939 0 l 1,1,-1
 1029 605 l 1,2,-1
 436 605 l 1,3,-1
 346 0 l 1,4,-1
 54 0 l 1,5,-1
 272 1456 l 1,6,-1
 564 1456 l 1,7,-1
 470 830 l 1,8,-1
 1063 830 l 1,9,-1
 1157 1456 l 1,10,-1
 1449 1456 l 1,11,-1
 1231 0 l 1,0,-1
EndSplineSet
Validated: 1
Substitution2: "'smcp' Lowercase to Small Capitals lookup 0 subtable" H.smcp
EndChar

StartChar: I
Encoding: 73 73 44
Width: 601
GlyphClass: 1
Flags: W
LayerCount: 2
Fore
SplineSet
366 0 m 1,0,-1
 74 0 l 1,1,-1
 292 1456 l 1,2,-1
 584 1456 l 1,3,-1
 366 0 l 1,0,-1
EndSplineSet
Validated: 1
Substitution2: "'smcp' Lowercase to Small Capitals lookup 0 subtable" I.smcp
EndChar

StartChar: J
Encoding: 74 74 45
Width: 1137
GlyphClass: 1
Flags: W
LayerCount: 2
Fore
SplineSet
852 1456 m 1,0,-1
 1143 1456 l 1,1,-1
 993 451 l 2,2,3
 959 226 959 226 809.5 102.5 c 128,-1,4
 660 -21 660 -21 449 -21 c 0,5,6
 226 -21 226 -21 105 94 c 128,-1,7
 -16 209 -16 209 20 424 c 1,8,-1
 23 430 l 1,9,-1
 307 430 l 1,10,11
 288 309 288 309 336 256 c 128,-1,12
 384 203 384 203 482 203 c 0,13,14
 559 203 559 203 621.5 270 c 128,-1,15
 684 337 684 337 702 451 c 2,16,-1
 852 1456 l 1,0,-1
EndSplineSet
Validated: 33
Substitution2: "'smcp' Lowercase to Small Capitals lookup 0 subtable" J.smcp
EndChar

StartChar: K
Encoding: 75 75 46
Width: 1255
GlyphClass: 1
Flags: W
LayerCount: 2
Fore
SplineSet
536 604 m 1,0,-1
 432 604 l 1,1,-1
 342 0 l 1,2,-1
 49 0 l 1,3,-1
 267 1456 l 1,4,-1
 560 1456 l 1,5,-1
 471 861 l 1,6,-1
 573 861 l 1,7,-1
 984 1456 l 1,8,-1
 1365 1456 l 1,9,-1
 795 729 l 1,10,-1
 1167 0 l 1,11,-1
 831 0 l 1,12,-1
 536 604 l 1,0,-1
EndSplineSet
Validated: 1
Substitution2: "'smcp' Lowercase to Small Capitals lookup 0 subtable" K.smcp
EndChar

StartChar: L
Encoding: 76 76 47
Width: 1138
GlyphClass: 1
Flags: W
LayerCount: 2
Fore
SplineSet
379 224 m 1,0,-1
 1032 224 l 1,1,-1
 998 0 l 1,2,-1
 54 0 l 1,3,-1
 272 1456 l 1,4,-1
 564 1456 l 1,5,-1
 379 224 l 1,0,-1
EndSplineSet
Validated: 1
Substitution2: "'smcp' Lowercase to Small Capitals lookup 0 subtable" L.smcp
EndChar

StartChar: M
Encoding: 77 77 48
Width: 1782
GlyphClass: 1
Flags: W
LayerCount: 2
Fore
SplineSet
864 383 m 1,0,-1
 870 382 l 1,1,-1
 1405 1456 l 1,2,-1
 1786 1456 l 1,3,-1
 1568 0 l 1,4,-1
 1276 0 l 1,5,-1
 1424 993 l 1,6,-1
 1419 994 l 1,7,-1
 910 0 l 1,8,-1
 712 0 l 1,9,-1
 501 996 l 1,10,-1
 495 996 l 1,11,-1
 346 0 l 1,12,-1
 54 0 l 1,13,-1
 272 1456 l 1,14,-1
 655 1456 l 1,15,-1
 864 383 l 1,0,-1
EndSplineSet
Validated: 1
Substitution2: "'smcp' Lowercase to Small Capitals lookup 0 subtable" M.smcp
EndChar

StartChar: N
Encoding: 78 78 49
Width: 1445
GlyphClass: 1
Flags: W
LayerCount: 2
Fore
SplineSet
1231 0 m 1,0,-1
 939 0 l 1,1,-1
 498 982 l 1,2,-1
 492 981 l 1,3,-1
 346 0 l 1,4,-1
 54 0 l 1,5,-1
 272 1456 l 1,6,-1
 564 1456 l 1,7,-1
 1004 475 l 1,8,-1
 1010 476 l 1,9,-1
 1157 1456 l 1,10,-1
 1449 1456 l 1,11,-1
 1231 0 l 1,0,-1
EndSplineSet
Validated: 1
Substitution2: "'smcp' Lowercase to Small Capitals lookup 0 subtable" N.smcp
EndChar

StartChar: O
Encoding: 79 79 50
Width: 1409
GlyphClass: 1
Flags: W
LayerCount: 2
Fore
SplineSet
1322 597 m 2,0,1
 1279 318 1279 318 1086.5 148.5 c 128,-1,2
 894 -21 894 -21 620 -21 c 0,3,4
 361 -21 361 -21 214 155.5 c 128,-1,5
 67 332 67 332 107 597 c 2,6,-1
 146 859 l 2,7,8
 187 1136 187 1136 378.5 1306.5 c 128,-1,9
 570 1477 570 1477 843 1477 c 0,10,11
 1104 1477 1104 1477 1252 1299.5 c 128,-1,12
 1400 1122 1400 1122 1361 859 c 2,13,-1
 1322 597 l 2,0,1
1070 861 m 2,14,15
 1096 1037 1096 1037 1027.5 1143 c 128,-1,16
 959 1249 959 1249 808 1249 c 0,17,18
 665 1249 665 1249 563.5 1139 c 128,-1,19
 462 1029 462 1029 437 861 c 2,20,-1
 398 597 l 2,21,22
 371 418 371 418 437 312 c 128,-1,23
 503 206 503 206 654 206 c 0,24,25
 798 206 798 206 901 316 c 128,-1,26
 1004 426 1004 426 1031 597 c 2,27,-1
 1070 861 l 2,14,15
EndSplineSet
Validated: 33
Substitution2: "'smcp' Lowercase to Small Capitals lookup 0 subtable" O.smcp
EndChar

StartChar: P
Encoding: 80 80 51
Width: 1305
GlyphClass: 1
Flags: W
LayerCount: 2
Fore
SplineSet
425 528 m 1,0,-1
 346 0 l 1,1,-1
 54 0 l 1,2,-1
 272 1456 l 1,3,-1
 829 1456 l 2,4,5
 1070 1456 1070 1456 1199.5 1326.5 c 128,-1,6
 1329 1197 1329 1197 1299 991 c 0,7,8
 1266 774 1266 774 1105 651 c 128,-1,9
 944 528 944 528 690 528 c 2,10,-1
 425 528 l 1,0,-1
459 753 m 1,11,-1
 724 753 l 2,12,13
 841 753 841 753 916 820.5 c 128,-1,14
 991 888 991 888 1007 989 c 0,15,16
 1023 1098 1023 1098 971.5 1164.5 c 128,-1,17
 920 1231 920 1231 796 1231 c 2,18,-1
 531 1231 l 1,19,-1
 459 753 l 1,11,-1
EndSplineSet
Validated: 33
Substitution2: "'smcp' Lowercase to Small Capitals lookup 0 subtable" P.smcp
EndChar

StartChar: Q
Encoding: 81 81 52
Width: 1441
GlyphClass: 1
Flags: W
LayerCount: 2
Fore
SplineSet
1322 597 m 2,0,1
 1304 483 1304 483 1260.5 386 c 128,-1,2
 1217 289 1217 289 1150 212 c 1,3,-1
 1332 -2 l 1,4,-1
 1117 -158 l 1,5,-1
 938 50 l 1,6,7
 866 15 866 15 786 -3 c 128,-1,8
 706 -21 706 -21 620 -21 c 0,9,10
 361 -21 361 -21 214 155.5 c 128,-1,11
 67 332 67 332 107 597 c 2,12,-1
 146 859 l 2,13,14
 187 1136 187 1136 378.5 1306.5 c 128,-1,15
 570 1477 570 1477 843 1477 c 0,16,17
 1104 1477 1104 1477 1252 1299.5 c 128,-1,18
 1400 1122 1400 1122 1361 859 c 2,19,-1
 1322 597 l 2,0,1
1070 861 m 2,20,21
 1096 1037 1096 1037 1027.5 1143 c 128,-1,22
 959 1249 959 1249 808 1249 c 0,23,24
 665 1249 665 1249 563.5 1139 c 128,-1,25
 462 1029 462 1029 437 861 c 2,26,-1
 398 597 l 2,27,28
 371 418 371 418 437 312 c 128,-1,29
 503 206 503 206 654 206 c 0,30,31
 798 206 798 206 901 316 c 128,-1,32
 1004 426 1004 426 1031 597 c 2,33,-1
 1070 861 l 2,20,21
EndSplineSet
Validated: 33
Substitution2: "'smcp' Lowercase to Small Capitals lookup 0 subtable" Q.smcp
EndChar

StartChar: R
Encoding: 82 82 53
Width: 1305
GlyphClass: 1
Flags: W
LayerCount: 2
Fore
SplineSet
433 582 m 1,0,-1
 346 0 l 1,1,-1
 54 0 l 1,2,-1
 272 1456 l 1,3,-1
 776 1456 l 2,4,5
 1015 1456 1015 1456 1143.5 1341.5 c 128,-1,6
 1272 1227 1272 1227 1242 1026 c 0,7,8
 1224 908 1224 908 1153 828 c 128,-1,9
 1082 748 1082 748 958 699 c 1,10,11
 1078 659 1078 659 1123.5 570 c 128,-1,12
 1169 481 1169 481 1150 354 c 2,13,-1
 1134 247 l 2,14,15
 1125 184 1125 184 1131.5 118.5 c 128,-1,16
 1138 53 1138 53 1173 21 c 1,17,-1
 1170 0 l 1,18,-1
 869 0 l 1,19,20
 835 32 835 32 834 104.5 c 128,-1,21
 833 177 833 177 843 249 c 2,22,-1
 859 352 l 2,23,24
 876 465 876 465 826 523.5 c 128,-1,25
 776 582 776 582 665 582 c 2,26,-1
 433 582 l 1,0,-1
467 807 m 1,27,-1
 674 807 l 2,28,29
 792 807 792 807 862 859.5 c 128,-1,30
 932 912 932 912 948 1013 c 0,31,32
 963 1116 963 1116 912 1173.5 c 128,-1,33
 861 1231 861 1231 743 1231 c 2,34,-1
 531 1231 l 1,35,-1
 467 807 l 1,27,-1
EndSplineSet
Validated: 33
Substitution2: "'smcp' Lowercase to Small Capitals lookup 0 subtable" R.smcp
EndChar

StartChar: S
Encoding: 83 83 54
Width: 1259
GlyphClass: 1
Flags: W
LayerCount: 2
Fore
SplineSet
892 353 m 0,0,1
 906 449 906 449 849 501.5 c 128,-1,2
 792 554 792 554 633 611 c 1,3,4
 383 690 383 690 262.5 803 c 128,-1,5
 142 916 142 916 170 1100 c 0,6,7
 196 1276 196 1276 350 1376.5 c 128,-1,8
 504 1477 504 1477 724 1477 c 0,9,10
 968 1477 968 1477 1106 1358 c 128,-1,11
 1244 1239 1244 1239 1208 1031 c 1,12,-1
 1206 1025 l 1,13,-1
 923 1025 l 1,14,15
 937 1126 937 1126 872.5 1189 c 128,-1,16
 808 1252 808 1252 690 1252 c 0,17,18
 603 1252 603 1252 537.5 1209 c 128,-1,19
 472 1166 472 1166 463 1102 c 0,20,21
 449 1008 449 1008 508 960 c 128,-1,22
 567 912 567 912 755 848 c 0,23,24
 991 771 991 771 1101.5 658.5 c 128,-1,25
 1212 546 1212 546 1184 355 c 0,26,27
 1156 171 1156 171 1003 75 c 128,-1,28
 850 -21 850 -21 623 -21 c 0,29,30
 385 -21 385 -21 221 87.5 c 128,-1,31
 57 196 57 196 97 425 c 1,32,-1
 99 431 l 1,33,-1
 382 431 l 1,34,35
 363 306 363 306 447.5 254.5 c 128,-1,36
 532 203 532 203 656 203 c 0,37,38
 744 203 744 203 813 245.5 c 128,-1,39
 882 288 882 288 892 353 c 0,0,1
EndSplineSet
Validated: 33
Substitution2: "'smcp' Lowercase to Small Capitals lookup 0 subtable" S.smcp
EndChar

StartChar: T
Encoding: 84 84 55
Width: 1175
GlyphClass: 1
Flags: W
LayerCount: 2
Fore
SplineSet
1254 1231 m 1,0,-1
 837 1231 l 1,1,-1
 653 0 l 1,2,-1
 361 0 l 1,3,-1
 545 1231 l 1,4,-1
 136 1231 l 1,5,-1
 169 1456 l 1,6,-1
 1287 1456 l 1,7,-1
 1254 1231 l 1,0,-1
EndSplineSet
Validated: 1
Substitution2: "'smcp' Lowercase to Small Capitals lookup 0 subtable" T.smcp
EndChar

StartChar: U
Encoding: 85 85 56
Width: 1407
GlyphClass: 1
Flags: W
LayerCount: 2
Fore
SplineSet
1426 1456 m 1,0,-1
 1283 503 l 2,1,2
 1245 247 1245 247 1064 113 c 128,-1,3
 883 -21 883 -21 619 -21 c 0,4,5
 370 -21 370 -21 224 119.5 c 128,-1,6
 78 260 78 260 115 503 c 2,7,-1
 258 1456 l 1,8,-1
 551 1456 l 1,9,-1
 408 503 l 2,10,11
 385 352 385 352 451 277.5 c 128,-1,12
 517 203 517 203 652 203 c 0,13,14
 782 203 782 203 875 281 c 128,-1,15
 968 359 968 359 990 503 c 2,16,-1
 1133 1456 l 1,17,-1
 1426 1456 l 1,0,-1
EndSplineSet
Validated: 33
Substitution2: "'smcp' Lowercase to Small Capitals lookup 0 subtable" U.smcp
EndChar

StartChar: V
Encoding: 86 86 57
Width: 1303
GlyphClass: 1
Flags: W
LayerCount: 2
Fore
SplineSet
609 395 m 1,0,-1
 615 314 l 1,1,-1
 621 313 l 1,2,-1
 650 392 l 1,3,-1
 1126 1456 l 1,4,-1
 1434 1456 l 1,5,-1
 721 0 l 1,6,-1
 421 0 l 1,7,-1
 145 1456 l 1,8,-1
 453 1456 l 1,9,-1
 609 395 l 1,0,-1
EndSplineSet
Validated: 1
Substitution2: "'smcp' Lowercase to Small Capitals lookup 0 subtable" V.smcp
EndChar

StartChar: W
Encoding: 87 87 58
Width: 1804
GlyphClass: 1
Flags: W
LayerCount: 2
Fore
SplineSet
1272 468 m 1,0,-1
 1278 468 l 1,1,-1
 1620 1456 l 1,2,-1
 1921 1456 l 1,3,-1
 1363 0 l 1,4,-1
 1092 0 l 1,5,-1
 968 958 l 1,6,-1
 963 959 l 1,7,-1
 551 0 l 1,8,-1
 280 0 l 1,9,-1
 158 1456 l 1,10,-1
 459 1456 l 1,11,-1
 505 469 l 1,12,-1
 511 468 l 1,13,-1
 921 1456 l 1,14,-1
 1157 1456 l 1,15,-1
 1272 468 l 1,0,-1
EndSplineSet
Validated: 1
Substitution2: "'smcp' Lowercase to Small Capitals lookup 0 subtable" W.smcp
EndChar

StartChar: X
Encoding: 88 88 59
Width: 1303
GlyphClass: 1
Flags: W
LayerCount: 2
Fore
SplineSet
710 940 m 1,0,-1
 1060 1456 l 1,1,-1
 1400 1456 l 1,2,-1
 860 734 l 1,3,-1
 1207 0 l 1,4,-1
 854 0 l 1,5,-1
 652 525 l 1,6,-1
 292 0 l 1,7,-1
 -49 0 l 1,8,-1
 504 734 l 1,9,-1
 180 1456 l 1,10,-1
 518 1456 l 1,11,-1
 710 940 l 1,0,-1
EndSplineSet
Validated: 1
Substitution2: "'smcp' Lowercase to Small Capitals lookup 0 subtable" X.smcp
EndChar

StartChar: Y
Encoding: 89 89 60
Width: 1303
GlyphClass: 1
Flags: W
LayerCount: 2
Fore
SplineSet
685 786 m 1,0,-1
 691 785 l 1,1,-1
 1110 1456 l 1,2,-1
 1430 1456 l 1,3,-1
 790 513 l 1,4,-1
 713 0 l 1,5,-1
 421 0 l 1,6,-1
 500 527 l 1,7,-1
 148 1456 l 1,8,-1
 468 1456 l 1,9,-1
 685 786 l 1,0,-1
EndSplineSet
Validated: 1
Substitution2: "'smcp' Lowercase to Small Capitals lookup 0 subtable" Y.smcp
EndChar

StartChar: Z
Encoding: 90 90 61
Width: 1155
GlyphClass: 1
Flags: W
LayerCount: 2
Fore
SplineSet
387 224 m 1,0,-1
 1054 224 l 1,1,-1
 1020 0 l 1,2,-1
 24 0 l 1,3,-1
 11 152 l 1,4,-1
 757 1231 l 1,5,-1
 181 1231 l 1,6,-1
 214 1456 l 1,7,-1
 1159 1456 l 1,8,-1
 1138 1310 l 1,9,-1
 387 224 l 1,0,-1
EndSplineSet
Validated: 1
Substitution2: "'smcp' Lowercase to Small Capitals lookup 0 subtable" Z.smcp
EndChar

StartChar: bracketleft
Encoding: 91 91 62
Width: 570
GlyphClass: 1
Flags: W
LayerCount: 2
Fore
SplineSet
685 1475 m 1,0,-1
 544 1475 l 1,1,-1
 320 -120 l 1,2,-1
 461 -120 l 1,3,-1
 431 -336 l 1,4,-1
 -3 -336 l 1,5,-1
 281 1691 l 1,6,-1
 715 1691 l 1,7,-1
 685 1475 l 1,0,-1
EndSplineSet
Validated: 1
EndChar

StartChar: backslash
Encoding: 92 92 63
Width: 863
GlyphClass: 1
Flags: W
LayerCount: 2
Fore
SplineSet
140 1456 m 1,0,-1
 429 1456 l 1,1,-1
 800 -125 l 1,2,-1
 511 -125 l 1,3,-1
 140 1456 l 1,0,-1
EndSplineSet
Validated: 1
EndChar

StartChar: bracketright
Encoding: 93 93 64
Width: 570
GlyphClass: 1
Flags: W
LayerCount: 2
Fore
SplineSet
175 1691 m 1,0,-1
 609 1691 l 1,1,-1
 325 -336 l 1,2,-1
 -109 -336 l 1,3,-1
 -79 -120 l 1,4,-1
 63 -120 l 1,5,-1
 287 1475 l 1,6,-1
 145 1475 l 1,7,-1
 175 1691 l 1,0,-1
EndSplineSet
Validated: 1
EndChar

StartChar: asciicircum
Encoding: 94 94 65
Width: 896
GlyphClass: 1
Flags: W
LayerCount: 2
Fore
SplineSet
304 729 m 1,0,-1
 73 729 l 1,1,-1
 481 1456 l 1,2,-1
 693 1456 l 1,3,-1
 883 729 l 1,4,-1
 652 729 l 1,5,-1
 549 1142 l 1,6,-1
 547 1175 l 1,7,-1
 541 1176 l 1,8,-1
 528 1142 l 1,9,-1
 304 729 l 1,0,-1
EndSplineSet
Validated: 1
EndChar

StartChar: underscore
Encoding: 95 95 66
Width: 914
GlyphClass: 1
Flags: W
LayerCount: 2
Fore
SplineSet
798 -219 m 1,0,-1
 -112 -219 l 1,1,-1
 -79 0 l 1,2,-1
 831 0 l 1,3,-1
 798 -219 l 1,0,-1
EndSplineSet
Validated: 1
EndChar

StartChar: grave
Encoding: 96 96 67
Width: 678
GlyphClass: 1
Flags: W
LayerCount: 2
Fore
SplineSet
677 1252 m 1,0,-1
 426 1252 l 1,1,-1
 191 1513 l 1,2,-1
 193 1518 l 1,3,-1
 519 1518 l 1,4,-1
 677 1252 l 1,0,-1
EndSplineSet
Validated: 1
EndChar

StartChar: a
Encoding: 97 97 68
Width: 1100
GlyphClass: 1
Flags: W
LayerCount: 2
Fore
SplineSet
670 0 m 1,0,1
 659 37 659 37 654 78.5 c 128,-1,2
 649 120 649 120 650 163 c 1,3,4
 593 83 593 83 511.5 31 c 128,-1,5
 430 -21 430 -21 328 -21 c 0,6,7
 164 -21 164 -21 82 67.5 c 128,-1,8
 0 156 0 156 23 305 c 0,9,10
 47 470 47 470 181 554.5 c 128,-1,11
 315 639 315 639 553 639 c 2,12,-1
 717 639 l 1,13,-1
 730 725 l 2,14,15
 742 806 742 806 707.5 847.5 c 128,-1,16
 673 889 673 889 591 889 c 0,17,18
 523 889 523 889 477.5 854.5 c 128,-1,19
 432 820 432 820 424 760 c 1,20,-1
 143 760 l 1,21,-1
 142 766 l 1,22,23
 157 908 157 908 296.5 1005 c 128,-1,24
 436 1102 436 1102 642 1102 c 0,25,26
 830 1102 830 1102 939 1003 c 128,-1,27
 1048 904 1048 904 1021 723 c 2,28,-1
 954 276 l 2,29,30
 942 197 942 197 944 132 c 128,-1,31
 946 67 946 67 961 0 c 1,32,-1
 670 0 l 1,0,1
432 195 m 0,33,34
 505 195 505 195 572 233.5 c 128,-1,35
 639 272 639 272 669 322 c 1,36,-1
 692 474 l 1,37,-1
 528 474 l 2,38,39
 439 474 439 474 382.5 427 c 128,-1,40
 326 380 326 380 316 315 c 0,41,42
 307 258 307 258 338 226.5 c 128,-1,43
 369 195 369 195 432 195 c 0,33,34
EndSplineSet
Validated: 33
Substitution2: "'smcp' Lowercase to Small Capitals lookup 0 subtable" A.smcp
EndChar

StartChar: b
Encoding: 98 98 69
Width: 1156
GlyphClass: 1
Flags: W
LayerCount: 2
Fore
SplineSet
1085 511 m 2,0,1
 1047 260 1047 260 919 119.5 c 128,-1,2
 791 -21 791 -21 585 -21 c 0,3,4
 492 -21 492 -21 427.5 21 c 128,-1,5
 363 63 363 63 325 142 c 1,6,-1
 279 0 l 1,7,-1
 32 0 l 1,8,-1
 266 1560 l 1,9,-1
 557 1560 l 1,10,-1
 468 968 l 1,11,12
 526 1033 526 1033 596 1067.5 c 128,-1,13
 666 1102 666 1102 751 1102 c 0,14,15
 949 1102 949 1102 1037.5 944.5 c 128,-1,16
 1126 787 1126 787 1088 532 c 2,17,-1
 1085 511 l 2,0,1
797 532 m 2,18,19
 821 694 821 694 788.5 784.5 c 128,-1,20
 756 875 756 875 643 875 c 0,21,22
 577 875 577 875 525 845 c 128,-1,23
 473 815 473 815 437 761 c 1,24,-1
 369 308 l 1,25,26
 389 258 389 258 432 232 c 128,-1,27
 475 206 475 206 545 206 c 0,28,29
 653 206 653 206 712 287 c 128,-1,30
 771 368 771 368 794 511 c 2,31,-1
 797 532 l 2,18,19
EndSplineSet
Validated: 33
Substitution2: "'smcp' Lowercase to Small Capitals lookup 0 subtable" B.smcp
EndChar

StartChar: c
Encoding: 99 99 70
Width: 1056
GlyphClass: 1
Flags: W
LayerCount: 2
Fore
SplineSet
514 203 m 0,0,1
 587 203 587 203 640.5 249 c 128,-1,2
 694 295 694 295 706 370 c 1,3,-1
 971 370 l 1,4,-1
 973 364 l 1,5,6
 951 194 951 194 810.5 86.5 c 128,-1,7
 670 -21 670 -21 481 -21 c 0,8,9
 250 -21 250 -21 137.5 134.5 c 128,-1,10
 25 290 25 290 61 525 c 1,11,-1
 65 555 l 1,12,13
 102 802 102 802 254 952 c 128,-1,14
 406 1102 406 1102 647 1102 c 0,15,16
 838 1102 838 1102 945.5 987 c 128,-1,17
 1053 872 1053 872 1021 687 c 1,18,-1
 1019 682 l 1,19,-1
 752 682 l 1,20,21
 765 768 765 768 729.5 822.5 c 128,-1,22
 694 877 694 877 614 877 c 0,23,24
 505 877 505 877 441.5 785 c 128,-1,25
 378 693 378 693 357 555 c 2,26,-1
 353 525 l 2,27,28
 330 376 330 376 364 289.5 c 128,-1,29
 398 203 398 203 514 203 c 0,0,1
EndSplineSet
Validated: 33
Substitution2: "'smcp' Lowercase to Small Capitals lookup 0 subtable" C.smcp
EndChar

StartChar: d
Encoding: 100 100 71
Width: 1156
GlyphClass: 1
Flags: W
LayerCount: 2
Fore
SplineSet
67 532 m 2,0,1
 106 797 106 797 238.5 949.5 c 128,-1,2
 371 1102 371 1102 574 1102 c 0,3,4
 653 1102 653 1102 712.5 1065.5 c 128,-1,5
 772 1029 772 1029 813 961 c 1,6,-1
 903 1560 l 1,7,-1
 1196 1560 l 1,8,-1
 962 0 l 1,9,-1
 713 0 l 1,10,-1
 708 133 l 1,11,12
 646 58 646 58 570 18.5 c 128,-1,13
 494 -21 494 -21 404 -21 c 0,14,15
 213 -21 213 -21 120.5 127 c 128,-1,16
 28 275 28 275 64 511 c 2,17,-1
 67 532 l 2,0,1
355 511 m 2,18,19
 332 364 332 364 368 285 c 128,-1,20
 404 206 404 206 513 206 c 0,21,22
 575 206 575 206 626.5 232.5 c 128,-1,23
 678 259 678 259 715 309 c 1,24,-1
 784 767 l 1,25,26
 762 818 762 818 719.5 846.5 c 128,-1,27
 677 875 677 875 615 875 c 0,28,29
 513 875 513 875 446.5 778.5 c 128,-1,30
 380 682 380 682 358 532 c 2,31,-1
 355 511 l 2,18,19
EndSplineSet
Validated: 33
Substitution2: "'smcp' Lowercase to Small Capitals lookup 0 subtable" D.smcp
EndChar

StartChar: e
Encoding: 101 101 72
Width: 1071
GlyphClass: 1
Flags: W
LayerCount: 2
Fore
SplineSet
498 -21 m 0,0,1
 266 -21 266 -21 147 129.5 c 128,-1,2
 28 280 28 280 64 510 c 2,3,-1
 70 550 l 2,4,5
 107 802 107 802 260.5 952.5 c 128,-1,6
 414 1103 414 1103 647 1102 c 0,7,8
 857 1102 857 1102 957.5 967 c 128,-1,9
 1058 832 1058 832 1024 609 c 2,10,-1
 1002 458 l 1,11,-1
 356 458 l 1,12,-1
 354 453 l 1,13,14
 342 338 342 338 392 270.5 c 128,-1,15
 442 203 442 203 562 203 c 0,16,17
 656 203 656 203 731 223.5 c 128,-1,18
 806 244 806 244 883 284 c 1,19,-1
 935 104 l 1,20,21
 861 51 861 51 745 15 c 128,-1,22
 629 -21 629 -21 498 -21 c 0,0,1
614 877 m 0,23,24
 530 877 530 877 472.5 816 c 128,-1,25
 415 755 415 755 389 657 c 1,26,-1
 391 651 l 1,27,-1
 745 651 l 1,28,-1
 748 673 l 2,29,30
 763 771 763 771 732.5 824 c 128,-1,31
 702 877 702 877 614 877 c 0,23,24
EndSplineSet
Validated: 33
Substitution2: "'smcp' Lowercase to Small Capitals lookup 0 subtable" E.smcp
EndChar

StartChar: f
Encoding: 102 102 73
Width: 714
GlyphClass: 1
Flags: W
LayerCount: 2
Fore
SplineSet
108 0 m 1,0,-1
 239 877 l 1,1,-1
 79 877 l 1,2,-1
 109 1082 l 1,3,-1
 270 1082 l 1,4,-1
 288 1202 l 2,5,6
 316 1391 316 1391 434 1486 c 128,-1,7
 552 1581 552 1581 745 1581 c 0,8,9
 780 1581 780 1581 819.5 1575 c 128,-1,10
 859 1569 859 1569 902 1560 c 1,11,-1
 844 1343 l 1,12,13
 821 1347 821 1347 799 1350 c 128,-1,14
 777 1353 777 1353 747 1353 c 0,15,16
 679 1353 679 1353 635 1313.5 c 128,-1,17
 591 1274 591 1274 580 1202 c 2,18,-1
 562 1082 l 1,19,-1
 770 1082 l 1,20,-1
 740 877 l 1,21,-1
 531 877 l 1,22,-1
 400 0 l 1,23,-1
 108 0 l 1,0,-1
EndSplineSet
Validated: 1
Substitution2: "'smcp' Lowercase to Small Capitals lookup 0 subtable" F.smcp
EndChar

StartChar: g
Encoding: 103 103 74
Width: 1156
GlyphClass: 1
Flags: W
LayerCount: 2
Fore
SplineSet
69 532 m 2,0,1
 108 798 108 798 241 950 c 128,-1,2
 374 1102 374 1102 577 1102 c 0,3,4
 665 1102 665 1102 728 1059 c 128,-1,5
 791 1016 791 1016 830 938 c 1,6,-1
 875 1082 l 1,7,-1
 1126 1082 l 1,8,-1
 965 5 l 2,9,10
 931 -214 931 -214 778 -325.5 c 128,-1,11
 625 -437 625 -437 375 -437 c 0,12,13
 296 -437 296 -437 206 -414 c 128,-1,14
 116 -391 116 -391 44 -353 c 1,15,-1
 126 -135 l 1,16,17
 188 -167 188 -167 257 -183.5 c 128,-1,18
 326 -200 326 -200 409 -200 c 0,19,20
 524 -200 524 -200 590.5 -149.5 c 128,-1,21
 657 -99 657 -99 673 6 c 2,22,-1
 687 104 l 1,23,24
 629 42 629 42 560 10.5 c 128,-1,25
 491 -21 491 -21 407 -21 c 0,26,27
 216 -21 216 -21 123 127 c 128,-1,28
 30 275 30 275 66 511 c 2,29,-1
 69 532 l 2,0,1
358 511 m 2,30,31
 335 364 335 364 370.5 285 c 128,-1,32
 406 206 406 206 515 206 c 0,33,34
 580 206 580 206 630.5 231.5 c 128,-1,35
 681 257 681 257 718 305 c 1,36,-1
 788 770 l 1,37,38
 767 821 767 821 724.5 848 c 128,-1,39
 682 875 682 875 617 875 c 0,40,41
 515 875 515 875 449 778.5 c 128,-1,42
 383 682 383 682 361 532 c 2,43,-1
 358 511 l 2,30,31
EndSplineSet
Validated: 33
Substitution2: "'smcp' Lowercase to Small Capitals lookup 0 subtable" G.smcp
EndChar

StartChar: h
Encoding: 104 104 75
Width: 1156
GlyphClass: 1
Flags: W
LayerCount: 2
Fore
SplineSet
459 951 m 1,0,1
 522 1023 522 1023 601.5 1062.5 c 128,-1,2
 681 1102 681 1102 771 1102 c 0,3,4
 934 1102 934 1102 1016.5 988.5 c 128,-1,5
 1099 875 1099 875 1064 642 c 2,6,-1
 968 0 l 1,7,-1
 676 0 l 1,8,-1
 773 644 l 2,9,10
 792 775 792 775 759.5 825 c 128,-1,11
 727 875 727 875 645 875 c 0,12,13
 579 875 579 875 526.5 852 c 128,-1,14
 474 829 474 829 435 787 c 1,15,-1
 317 0 l 1,16,-1
 25 0 l 1,17,-1
 259 1560 l 1,18,-1
 551 1560 l 1,19,-1
 459 951 l 1,0,1
EndSplineSet
Validated: 33
Substitution2: "'smcp' Lowercase to Small Capitals lookup 0 subtable" H.smcp
EndChar

StartChar: i
Encoding: 105 105 76
Width: 547
GlyphClass: 1
Flags: W
LayerCount: 2
Fore
SplineSet
339 0 m 1,0,-1
 47 0 l 1,1,-1
 209 1082 l 1,2,-1
 501 1082 l 1,3,-1
 339 0 l 1,0,-1
540 1341 m 1,4,-1
 248 1341 l 1,5,-1
 281 1560 l 1,6,-1
 573 1560 l 1,7,-1
 540 1341 l 1,4,-1
EndSplineSet
Validated: 1
Substitution2: "'smcp' Lowercase to Small Capitals lookup 0 subtable" I.smcp
EndChar

StartChar: j
Encoding: 106 106 77
Width: 543
GlyphClass: 1
Flags: W
LayerCount: 2
Fore
SplineSet
509 1082 m 1,0,-1
 341 -40 l 2,1,2
 311 -238 311 -238 196 -337.5 c 128,-1,3
 81 -437 81 -437 -101 -437 c 0,4,5
 -139 -437 -139 -437 -172.5 -433 c 128,-1,6
 -206 -429 -206 -429 -241 -420 c 1,7,-1
 -194 -197 l 1,8,9
 -172 -203 -172 -203 -149 -206 c 128,-1,10
 -126 -209 -126 -209 -100 -209 c 0,11,12
 -42 -209 -42 -209 -4 -167.5 c 128,-1,13
 34 -126 34 -126 48 -40 c 2,14,-1
 216 1082 l 1,15,-1
 509 1082 l 1,0,-1
542 1343 m 1,16,-1
 249 1343 l 1,17,-1
 282 1560 l 1,18,-1
 575 1560 l 1,19,-1
 542 1343 l 1,16,-1
EndSplineSet
Validated: 1
Substitution2: "'smcp' Lowercase to Small Capitals lookup 0 subtable" J.smcp
EndChar

StartChar: k
Encoding: 107 107 78
Width: 1097
GlyphClass: 1
Flags: W
LayerCount: 2
Fore
SplineSet
466 453 m 1,0,-1
 392 453 l 1,1,-1
 324 0 l 1,2,-1
 32 0 l 1,3,-1
 266 1560 l 1,4,-1
 558 1560 l 1,5,-1
 425 675 l 1,6,-1
 490 675 l 1,7,-1
 810 1082 l 1,8,-1
 1141 1082 l 1,9,-1
 1143 1077 l 1,10,-1
 722 589 l 1,11,-1
 1034 0 l 1,12,-1
 698 0 l 1,13,-1
 466 453 l 1,0,-1
EndSplineSet
Validated: 1
Substitution2: "'smcp' Lowercase to Small Capitals lookup 0 subtable" K.smcp
EndChar

StartChar: l
Encoding: 108 108 79
Width: 547
GlyphClass: 1
Flags: W
LayerCount: 2
Fore
SplineSet
339 0 m 1,0,-1
 47 0 l 1,1,-1
 281 1560 l 1,2,-1
 573 1560 l 1,3,-1
 339 0 l 1,0,-1
EndSplineSet
Validated: 1
Substitution2: "'smcp' Lowercase to Small Capitals lookup 0 subtable" L.smcp
EndChar

StartChar: m
Encoding: 109 109 80
Width: 1772
GlyphClass: 1
Flags: W
LayerCount: 2
Fore
SplineSet
457 945 m 1,0,1
 520 1021 520 1021 604.5 1061.5 c 128,-1,2
 689 1102 689 1102 792 1102 c 0,3,4
 890 1102 890 1102 958.5 1056 c 128,-1,5
 1027 1010 1027 1010 1052 918 c 1,6,7
 1115 1006 1115 1006 1202.5 1054 c 128,-1,8
 1290 1102 1290 1102 1400 1102 c 0,9,10
 1555 1102 1555 1102 1633 987.5 c 128,-1,11
 1711 873 1711 873 1676 642 c 2,12,-1
 1580 0 l 1,13,-1
 1288 0 l 1,14,-1
 1384 643 l 2,15,16
 1404 778 1404 778 1372.5 826.5 c 128,-1,17
 1341 875 1341 875 1260 875 c 0,18,19
 1200 875 1200 875 1150 846.5 c 128,-1,20
 1100 818 1100 818 1064 768 c 1,21,22
 1063 754 1063 754 1061.5 740 c 128,-1,23
 1060 726 1060 726 1058 711 c 2,24,-1
 951 0 l 1,25,-1
 660 0 l 1,26,-1
 756 643 l 2,27,28
 776 775 776 775 744 825 c 128,-1,29
 712 875 712 875 631 875 c 0,30,31
 573 875 573 875 525 851.5 c 128,-1,32
 477 828 477 828 441 785 c 1,33,-1
 323 0 l 1,34,-1
 32 0 l 1,35,-1
 194 1082 l 1,36,-1
 465 1082 l 1,37,-1
 457 945 l 1,0,1
EndSplineSet
Validated: 33
Substitution2: "'smcp' Lowercase to Small Capitals lookup 0 subtable" M.smcp
EndChar

StartChar: n
Encoding: 110 110 81
Width: 1156
GlyphClass: 1
Flags: W
LayerCount: 2
Fore
SplineSet
452 933 m 1,0,1
 517 1014 517 1014 603 1058 c 128,-1,2
 689 1102 689 1102 787 1102 c 0,3,4
 945 1102 945 1102 1024 995 c 128,-1,5
 1103 888 1103 888 1069 663 c 2,6,-1
 970 0 l 1,7,-1
 677 0 l 1,8,-1
 776 662 l 2,9,10
 794 782 794 782 761.5 828.5 c 128,-1,11
 729 875 729 875 646 875 c 0,12,13
 582 875 582 875 528.5 849.5 c 128,-1,14
 475 824 475 824 436 779 c 1,15,-1
 319 0 l 1,16,-1
 27 0 l 1,17,-1
 189 1082 l 1,18,-1
 461 1082 l 1,19,-1
 452 933 l 1,0,1
EndSplineSet
Validated: 33
Substitution2: "'smcp' Lowercase to Small Capitals lookup 0 subtable" N.smcp
EndChar

StartChar: o
Encoding: 111 111 82
Width: 1156
GlyphClass: 1
Flags: W
LayerCount: 2
Fore
SplineSet
70 551 m 2,0,1
 107 802 107 802 263.5 952 c 128,-1,2
 420 1102 420 1102 661 1102 c 0,3,4
 892 1102 892 1102 1009 946 c 128,-1,5
 1126 790 1126 790 1091 551 c 2,6,-1
 1088 530 l 2,7,8
 1049 277 1049 277 893 128 c 128,-1,9
 737 -21 737 -21 495 -21 c 0,10,11
 264 -21 264 -21 147 134.5 c 128,-1,12
 30 290 30 290 67 530 c 2,13,-1
 70 551 l 2,0,1
358 530 m 2,14,15
 334 377 334 377 373 290 c 128,-1,16
 412 203 412 203 528 203 c 0,17,18
 636 203 636 203 705 294 c 128,-1,19
 774 385 774 385 796 530 c 2,20,-1
 799 551 l 2,21,22
 820 700 820 700 781.5 788.5 c 128,-1,23
 743 877 743 877 628 877 c 0,24,25
 519 877 519 877 450 784.5 c 128,-1,26
 381 692 381 692 361 551 c 2,27,-1
 358 530 l 2,14,15
EndSplineSet
Validated: 33
Substitution2: "'smcp' Lowercase to Small Capitals lookup 0 subtable" O.smcp
EndChar

StartChar: p
Encoding: 112 112 83
Width: 1156
GlyphClass: 1
Flags: W
LayerCount: 2
Fore
SplineSet
1085 511 m 2,0,1
 1047 262 1047 262 916 120.5 c 128,-1,2
 785 -21 785 -21 584 -21 c 0,3,4
 501 -21 501 -21 439.5 12.5 c 128,-1,5
 378 46 378 46 339 110 c 1,6,-1
 261 -416 l 1,7,-1
 -30 -416 l 1,8,-1
 194 1082 l 1,9,-1
 457 1082 l 1,10,-1
 455 954 l 1,11,12
 514 1026 514 1026 587 1064 c 128,-1,13
 660 1102 660 1102 750 1102 c 0,14,15
 943 1102 943 1102 1034 943.5 c 128,-1,16
 1125 785 1125 785 1088 532 c 2,17,-1
 1085 511 l 2,0,1
796 532 m 2,18,19
 819 689 819 689 782.5 782 c 128,-1,20
 746 875 746 875 640 875 c 0,21,22
 576 875 576 875 525 846.5 c 128,-1,23
 474 818 474 818 438 766 c 1,24,-1
 367 298 l 1,25,26
 387 251 387 251 430 227 c 128,-1,27
 473 203 473 203 541 203 c 0,28,29
 643 203 643 203 707 287 c 128,-1,30
 771 371 771 371 793 511 c 2,31,-1
 796 532 l 2,18,19
EndSplineSet
Validated: 33
Substitution2: "'smcp' Lowercase to Small Capitals lookup 0 subtable" P.smcp
EndChar

StartChar: q
Encoding: 113 113 84
Width: 1156
GlyphClass: 1
Flags: W
LayerCount: 2
Fore
SplineSet
67 532 m 2,0,1
 106 797 106 797 238.5 949.5 c 128,-1,2
 371 1102 371 1102 574 1102 c 0,3,4
 661 1102 661 1102 723.5 1061 c 128,-1,5
 786 1020 786 1020 825 944 c 1,6,-1
 873 1082 l 1,7,-1
 1121 1082 l 1,8,-1
 897 -416 l 1,9,-1
 605 -416 l 1,10,-1
 682 101 l 1,11,12
 625 41 625 41 556 10 c 128,-1,13
 487 -21 487 -21 404 -21 c 0,14,15
 213 -21 213 -21 120.5 127 c 128,-1,16
 28 275 28 275 64 511 c 2,17,-1
 67 532 l 2,0,1
355 511 m 2,18,19
 332 364 332 364 367.5 283.5 c 128,-1,20
 403 203 403 203 512 203 c 0,21,22
 575 203 575 203 625 228 c 128,-1,23
 675 253 675 253 712 301 c 1,24,-1
 783 777 l 1,25,26
 762 825 762 825 720.5 851 c 128,-1,27
 679 877 679 877 616 877 c 0,28,29
 514 877 514 877 447 779.5 c 128,-1,30
 380 682 380 682 358 532 c 2,31,-1
 355 511 l 2,18,19
EndSplineSet
Validated: 33
Substitution2: "'smcp' Lowercase to Small Capitals lookup 0 subtable" Q.smcp
EndChar

StartChar: r
Encoding: 114 114 85
Width: 721
GlyphClass: 1
Flags: W
LayerCount: 2
Fore
SplineSet
726 831 m 1,0,-1
 619 834 l 2,1,2
 556 834 556 834 509 805.5 c 128,-1,3
 462 777 462 777 431 725 c 1,4,-1
 323 0 l 1,5,-1
 32 0 l 1,6,-1
 194 1082 l 1,7,-1
 465 1082 l 1,8,-1
 455 927 l 1,9,10
 505 1011 505 1011 572 1056.5 c 128,-1,11
 639 1102 639 1102 719 1102 c 0,12,13
 740 1102 740 1102 759.5 1098.5 c 128,-1,14
 779 1095 779 1095 796 1090 c 1,15,-1
 726 831 l 1,0,-1
EndSplineSet
Validated: 1
Substitution2: "'smcp' Lowercase to Small Capitals lookup 0 subtable" R.smcp
EndChar

StartChar: s
Encoding: 115 115 86
Width: 1056
GlyphClass: 1
Flags: W
LayerCount: 2
Fore
SplineSet
664 300 m 0,0,1
 671 350 671 350 629.5 383 c 128,-1,2
 588 416 588 416 465 443 c 0,3,4
 281 481 281 481 193 558 c 128,-1,5
 105 635 105 635 123 767 c 0,6,7
 143 911 143 911 273.5 1006.5 c 128,-1,8
 404 1102 404 1102 602 1102 c 0,9,10
 799 1102 799 1102 912.5 1003 c 128,-1,11
 1026 904 1026 904 1001 760 c 1,12,-1
 999 754 l 1,13,-1
 717 754 l 1,14,15
 726 821 726 821 690 861 c 128,-1,16
 654 901 654 901 574 901 c 0,17,18
 507 901 507 901 459.5 866 c 128,-1,19
 412 831 412 831 405 780 c 0,20,21
 398 728 398 728 435.5 698 c 128,-1,22
 473 668 473 668 601 642 c 0,23,24
 794 602 794 602 880.5 524.5 c 128,-1,25
 967 447 967 447 949 311 c 0,26,27
 927 159 927 159 790.5 69 c 128,-1,28
 654 -21 654 -21 447 -21 c 0,29,30
 239 -21 239 -21 125 90 c 128,-1,31
 11 201 11 201 36 338 c 1,32,-1
 39 344 l 1,33,-1
 306 344 l 1,34,35
 297 257 297 257 345.5 218 c 128,-1,36
 394 179 394 179 481 179 c 0,37,38
 558 179 558 179 607 212 c 128,-1,39
 656 245 656 245 664 300 c 0,0,1
EndSplineSet
Validated: 33
Substitution2: "'smcp' Lowercase to Small Capitals lookup 0 subtable" S.smcp
EndChar

StartChar: t
Encoding: 116 116 87
Width: 713
GlyphClass: 1
Flags: W
LayerCount: 2
Fore
SplineSet
584 1347 m 1,0,-1
 544 1082 l 1,1,-1
 727 1082 l 1,2,-1
 697 877 l 1,3,-1
 513 877 l 1,4,-1
 431 326 l 2,5,6
 421 260 421 260 443 234.5 c 128,-1,7
 465 209 465 209 509 209 c 0,8,9
 531 209 531 209 549.5 211.5 c 128,-1,10
 568 214 568 214 590 220 c 1,11,-1
 582 9 l 1,12,13
 536 -6 536 -6 493.5 -13.5 c 128,-1,14
 451 -21 451 -21 402 -21 c 0,15,16
 256 -21 256 -21 184.5 63 c 128,-1,17
 113 147 113 147 140 325 c 2,18,-1
 222 877 l 1,19,-1
 65 877 l 1,20,-1
 95 1082 l 1,21,-1
 253 1082 l 1,22,-1
 293 1347 l 1,23,-1
 584 1347 l 1,0,-1
EndSplineSet
Validated: 33
Substitution2: "'smcp' Lowercase to Small Capitals lookup 0 subtable" T.smcp
EndChar

StartChar: u
Encoding: 117 117 88
Width: 1156
GlyphClass: 1
Flags: W
LayerCount: 2
Fore
SplineSet
719 155 m 1,0,1
 657 69 657 69 573 24 c 128,-1,2
 489 -21 489 -21 386 -21 c 0,3,4
 221 -21 221 -21 139 96 c 128,-1,5
 57 213 57 213 93 455 c 2,6,-1
 187 1082 l 1,7,-1
 478 1082 l 1,8,-1
 384 453 l 2,9,10
 362 306 362 306 392.5 256 c 128,-1,11
 423 206 423 206 505 206 c 0,12,13
 573 206 573 206 627.5 230 c 128,-1,14
 682 254 682 254 721 299 c 1,15,-1
 838 1082 l 1,16,-1
 1130 1082 l 1,17,-1
 968 0 l 1,18,-1
 726 0 l 1,19,-1
 719 155 l 1,0,1
EndSplineSet
Validated: 33
Substitution2: "'smcp' Lowercase to Small Capitals lookup 0 subtable" U.smcp
EndChar

StartChar: v
Encoding: 118 118 89
Width: 1046
GlyphClass: 1
Flags: W
LayerCount: 2
Fore
SplineSet
483 403 m 1,0,-1
 487 304 l 1,1,-1
 493 303 l 1,2,-1
 528 403 l 1,3,-1
 808 1082 l 1,4,-1
 1113 1082 l 1,5,-1
 583 0 l 1,6,-1
 304 0 l 1,7,-1
 98 1082 l 1,8,-1
 403 1082 l 1,9,-1
 483 403 l 1,0,-1
EndSplineSet
Validated: 1
Substitution2: "'smcp' Lowercase to Small Capitals lookup 0 subtable" V.smcp
EndChar

StartChar: w
Encoding: 119 119 90
Width: 1507
GlyphClass: 1
Flags: W
LayerCount: 2
Fore
SplineSet
1034 404 m 1,0,-1
 1040 404 l 1,1,-1
 1272 1082 l 1,2,-1
 1556 1082 l 1,3,-1
 1119 0 l 1,4,-1
 875 0 l 1,5,-1
 768 623 l 1,6,-1
 762 624 l 1,7,-1
 467 0 l 1,8,-1
 224 0 l 1,9,-1
 111 1082 l 1,10,-1
 395 1082 l 1,11,-1
 426 407 l 1,12,-1
 432 406 l 1,13,-1
 736 1082 l 1,14,-1
 931 1082 l 1,15,-1
 1034 404 l 1,0,-1
EndSplineSet
Validated: 1
Substitution2: "'smcp' Lowercase to Small Capitals lookup 0 subtable" W.smcp
EndChar

StartChar: x
Encoding: 120 120 91
Width: 1046
GlyphClass: 1
Flags: W
LayerCount: 2
Fore
SplineSet
550 739 m 1,0,-1
 556 738 l 1,1,-1
 773 1082 l 1,2,-1
 1103 1082 l 1,3,-1
 697 547 l 1,4,-1
 952 0 l 1,5,-1
 623 0 l 1,6,-1
 500 359 l 1,7,-1
 269 0 l 1,8,-1
 -61 0 l 1,9,-1
 358 547 l 1,10,-1
 111 1082 l 1,11,-1
 439 1082 l 1,12,-1
 550 739 l 1,0,-1
EndSplineSet
Validated: 1
Substitution2: "'smcp' Lowercase to Small Capitals lookup 0 subtable" X.smcp
EndChar

StartChar: y
Encoding: 121 121 92
Width: 1046
GlyphClass: 1
Flags: W
LayerCount: 2
Fore
SplineSet
490 454 m 1,0,-1
 492 395 l 1,1,-1
 498 394 l 1,2,-1
 809 1082 l 1,3,-1
 1123 1082 l 1,4,-1
 498 -162 l 1,5,6
 435 -278 435 -278 343.5 -357.5 c 128,-1,7
 252 -437 252 -437 94 -437 c 0,8,9
 59 -437 59 -437 27.5 -431 c 128,-1,10
 -4 -425 -4 -425 -47 -414 c 1,11,-1
 19 -201 l 1,12,13
 31 -203 31 -203 46 -205 c 128,-1,14
 61 -207 61 -207 73 -207 c 0,15,16
 142 -207 142 -207 188 -170.5 c 128,-1,17
 234 -134 234 -134 263 -83 c 2,18,-1
 309 0 l 1,19,-1
 87 1082 l 1,20,-1
 401 1082 l 1,21,-1
 490 454 l 1,0,-1
EndSplineSet
Validated: 1
Substitution2: "'smcp' Lowercase to Small Capitals lookup 0 subtable" Y.smcp
EndChar

StartChar: z
Encoding: 122 122 93
Width: 1046
GlyphClass: 1
Flags: W
LayerCount: 2
Fore
SplineSet
396 229 m 1,0,-1
 398 224 l 1,1,-1
 928 224 l 1,2,-1
 894 0 l 1,3,-1
 -5 0 l 1,4,-1
 21 172 l 1,5,-1
 633 851 l 1,6,-1
 631 856 l 1,7,-1
 139 856 l 1,8,-1
 173 1082 l 1,9,-1
 1039 1082 l 1,10,-1
 1014 915 l 1,11,-1
 396 229 l 1,0,-1
EndSplineSet
Validated: 1
Substitution2: "'smcp' Lowercase to Small Capitals lookup 0 subtable" Z.smcp
EndChar

StartChar: braceleft
Encoding: 123 123 94
Width: 676
GlyphClass: 1
Flags: W
LayerCount: 2
Fore
SplineSet
460 -360 m 1,0,1
 272 -305 272 -305 206 -185 c 128,-1,2
 140 -65 140 -65 165 106 c 2,3,-1
 193 309 l 2,4,5
 207 411 207 411 172 464.5 c 128,-1,6
 137 518 137 518 46 518 c 1,7,-1
 52 566 l 1,8,-1
 62 637 l 1,9,-1
 67 672 l 1,10,-1
 74 719 l 1,11,12
 161 719 161 719 213.5 774 c 128,-1,13
 266 829 266 829 280 929 c 2,14,-1
 308 1132 l 2,15,16
 332 1309 332 1309 430.5 1425.5 c 128,-1,17
 529 1542 529 1542 734 1597 c 1,18,-1
 768 1440 l 1,19,20
 678 1409 678 1409 632 1329.5 c 128,-1,21
 586 1250 586 1250 569 1132 c 2,22,-1
 541 929 l 2,23,24
 525 820 525 820 469.5 740 c 128,-1,25
 414 660 414 660 317 616 c 1,26,27
 399 569 399 569 433 488.5 c 128,-1,28
 467 408 467 408 454 309 c 2,29,-1
 426 106 l 2,30,31
 409 -16 409 -16 433 -93 c 128,-1,32
 457 -170 457 -170 538 -202 c 1,33,-1
 460 -360 l 1,0,1
EndSplineSet
Validated: 33
EndChar

StartChar: bar
Encoding: 124 124 95
Width: 519
GlyphClass: 1
Flags: W
LayerCount: 2
Fore
SplineSet
254 -270 m 1,0,-1
 23 -270 l 1,1,-1
 281 1456 l 1,2,-1
 512 1456 l 1,3,-1
 254 -270 l 1,0,-1
EndSplineSet
Validated: 1
EndChar

StartChar: braceright
Encoding: 125 125 96
Width: 676
GlyphClass: 1
Flags: W
LayerCount: 2
Fore
SplineSet
-69 -202 m 1,0,1
 20 -171 20 -171 66 -91.5 c 128,-1,2
 112 -12 112 -12 129 106 c 2,3,-1
 157 309 l 2,4,5
 172 419 172 419 229 498.5 c 128,-1,6
 286 578 286 578 388 621 c 1,7,8
 301 666 301 666 265 746.5 c 128,-1,9
 229 827 229 827 244 929 c 2,10,-1
 272 1132 l 2,11,12
 289 1253 289 1253 265 1330.5 c 128,-1,13
 241 1408 241 1408 161 1440 c 1,14,-1
 239 1597 l 1,15,16
 426 1542 426 1542 491.5 1422.5 c 128,-1,17
 557 1303 557 1303 533 1132 c 2,18,-1
 505 929 l 2,19,20
 490 825 490 825 525.5 772 c 128,-1,21
 561 719 561 719 654 719 c 1,22,-1
 633 570 l 1,23,-1
 626 518 l 1,24,25
 538 518 538 518 484.5 462 c 128,-1,26
 431 406 431 406 418 309 c 2,27,-1
 390 106 l 2,28,29
 365 -71 365 -71 266.5 -188 c 128,-1,30
 168 -305 168 -305 -35 -360 c 1,31,-1
 -69 -202 l 1,0,1
EndSplineSet
Validated: 33
EndChar

StartChar: asciitilde
Encoding: 126 126 97
Width: 1327
GlyphClass: 1
Flags: W
LayerCount: 2
Fore
SplineSet
1251 758 m 1,0,1
 1227 590 1227 590 1125 484 c 128,-1,2
 1023 378 1023 378 886 378 c 0,3,4
 804 378 804 378 734.5 410 c 128,-1,5
 665 442 665 442 598 511 c 0,6,7
 552 555 552 555 517 575 c 128,-1,8
 482 595 482 595 438 595 c 0,9,10
 388 595 388 595 344.5 544 c 128,-1,11
 301 493 301 493 291 422 c 1,12,-1
 93 448 l 1,13,14
 116 616 116 616 217 720.5 c 128,-1,15
 318 825 318 825 456 825 c 0,16,17
 535 825 535 825 608 791 c 128,-1,18
 681 757 681 757 747 692 c 0,19,20
 789 647 789 647 824 627.5 c 128,-1,21
 859 608 859 608 903 608 c 0,22,23
 952 608 952 608 996.5 660 c 128,-1,24
 1041 712 1041 712 1052 785 c 1,25,-1
 1251 758 l 1,0,1
EndSplineSet
Validated: 1
EndChar

StartChar: exclamdown
Encoding: 161 161 99
Width: 580
GlyphClass: 1
Flags: W
LayerCount: 2
Fore
SplineSet
298 -374 m 1,0,-1
 6 -374 l 1,1,-1
 149 579 l 1,2,-1
 441 579 l 1,3,-1
 298 -374 l 1,0,-1
478 825 m 1,4,-1
 186 825 l 1,5,-1
 224 1082 l 1,6,-1
 516 1082 l 1,7,-1
 478 825 l 1,4,-1
EndSplineSet
Validated: 1
EndChar

StartChar: cent
Encoding: 162 162 100
Width: 1181
GlyphClass: 1
Flags: W
LayerCount: 2
Fore
SplineSet
514 203 m 0,0,1
 587 203 587 203 640.5 249 c 128,-1,2
 694 295 694 295 706 370 c 1,3,-1
 972 370 l 1,4,-1
 975 364 l 1,5,6
 957 228 957 228 859 129.5 c 128,-1,7
 761 31 761 31 619 -4 c 1,8,-1
 583 -245 l 1,9,-1
 383 -245 l 1,10,-1
 417 -17 l 1,11,12
 217 5 217 5 122 156 c 128,-1,13
 27 307 27 307 61 525 c 1,14,-1
 65 555 l 2,15,16
 99 785 99 785 234.5 932 c 128,-1,17
 370 1079 370 1079 585 1099 c 1,18,-1
 618 1318 l 1,19,-1
 818 1318 l 1,20,-1
 782 1084 l 1,21,22
 914 1046 914 1046 981 939.5 c 128,-1,23
 1048 833 1048 833 1026 682 c 1,24,-1
 752 682 l 1,25,26
 765 768 765 768 729.5 822.5 c 128,-1,27
 694 877 694 877 614 877 c 0,28,29
 505 877 505 877 441.5 785 c 128,-1,30
 378 693 378 693 357 555 c 2,31,-1
 353 525 l 2,32,33
 330 376 330 376 364 289.5 c 128,-1,34
 398 203 398 203 514 203 c 0,0,1
EndSplineSet
Validated: 33
EndChar

StartChar: sterling
Encoding: 163 163 101
Width: 1216
GlyphClass: 1
Flags: W
LayerCount: 2
Fore
SplineSet
559 588 m 1,0,-1
 550 503 l 1,1,2
 537 423 537 423 497.5 351.5 c 128,-1,3
 458 280 458 280 394 224 c 1,4,-1
 1106 224 l 1,5,-1
 1072 0 l 1,6,-1
 76 0 l 1,7,-1
 110 224 l 1,8,-1
 120 224 l 1,9,10
 168 236 168 236 203.5 318.5 c 128,-1,11
 239 401 239 401 254 490 c 1,12,-1
 265 588 l 1,13,-1
 100 588 l 1,14,-1
 134 813 l 1,15,-1
 289 813 l 1,16,-1
 313 1027 l 1,17,18
 345 1245 345 1245 482 1361 c 128,-1,19
 619 1477 619 1477 824 1477 c 0,20,21
 1031 1477 1031 1477 1136.5 1364.5 c 128,-1,22
 1242 1252 1242 1252 1211 1071 c 1,23,-1
 1208 1065 l 1,24,-1
 924 1065 l 1,25,26
 938 1165 938 1165 899.5 1208.5 c 128,-1,27
 861 1252 861 1252 789 1252 c 0,28,29
 721 1252 721 1252 671 1192.5 c 128,-1,30
 621 1133 621 1133 605 1027 c 1,31,-1
 582 813 l 1,32,-1
 938 813 l 1,33,-1
 904 588 l 1,34,-1
 559 588 l 1,0,-1
EndSplineSet
Validated: 33
EndChar

StartChar: currency
Encoding: 164 164 102
Width: 1417
GlyphClass: 1
Flags: W
LayerCount: 2
Fore
SplineSet
1011 105 m 1,0,1
 926 44 926 44 828 12 c 128,-1,2
 730 -20 730 -20 628 -20 c 0,3,4
 530 -20 530 -20 443.5 13 c 128,-1,5
 357 46 357 46 289 109 c 1,6,-1
 137 -26 l 1,7,-1
 18 118 l 1,8,-1
 176 258 l 1,9,10
 138 334 138 334 124.5 423 c 128,-1,11
 111 512 111 512 126 608 c 0,12,13
 141 713 141 713 182.5 806 c 128,-1,14
 224 899 224 899 287 976 c 1,15,-1
 168 1120 l 1,16,-1
 331 1264 l 1,17,-1
 449 1122 l 1,18,19
 531 1176 531 1176 625 1205 c 128,-1,20
 719 1234 719 1234 816 1234 c 0,21,22
 909 1234 909 1234 993 1202.5 c 128,-1,23
 1077 1171 1077 1171 1144 1114 c 1,24,-1
 1314 1265 l 1,25,-1
 1434 1120 l 1,26,-1
 1261 967 l 1,27,28
 1301 889 1301 889 1315.5 798 c 128,-1,29
 1330 707 1330 707 1316 608 c 0,30,31
 1300 508 1300 508 1262 419.5 c 128,-1,32
 1224 331 1224 331 1168 256 c 1,33,-1
 1284 118 l 1,34,-1
 1120 -27 l 1,35,-1
 1011 105 l 1,0,1
312 608 m 0,36,37
 283 416 283 416 382.5 292.5 c 128,-1,38
 482 169 482 169 656 169 c 0,39,40
 819 169 819 169 961 297.5 c 128,-1,41
 1103 426 1103 426 1131 608 c 0,42,43
 1159 798 1159 798 1059.5 921.5 c 128,-1,44
 960 1045 960 1045 788 1045 c 0,45,46
 622 1045 622 1045 480.5 917 c 128,-1,47
 339 789 339 789 312 608 c 0,36,37
EndSplineSet
Validated: 33
EndChar

StartChar: yen
Encoding: 165 165 103
Width: 1253
GlyphClass: 1
Flags: W
LayerCount: 2
Fore
SplineSet
671 849 m 1,0,-1
 677 848 l 1,1,-1
 1048 1456 l 1,2,-1
 1368 1456 l 1,3,-1
 879 742 l 1,4,-1
 1123 742 l 1,5,-1
 1099 577 l 1,6,-1
 775 577 l 1,7,-1
 756 452 l 1,8,-1
 1080 452 l 1,9,-1
 1055 288 l 1,10,-1
 731 288 l 1,11,-1
 688 0 l 1,12,-1
 396 0 l 1,13,-1
 439 288 l 1,14,-1
 100 288 l 1,15,-1
 125 452 l 1,16,-1
 464 452 l 1,17,-1
 483 577 l 1,18,-1
 144 577 l 1,19,-1
 168 742 l 1,20,-1
 436 742 l 1,21,-1
 160 1456 l 1,22,-1
 481 1456 l 1,23,-1
 671 849 l 1,0,-1
EndSplineSet
Validated: 1
EndChar

StartChar: brokenbar
Encoding: 166 166 104
Width: 517
GlyphClass: 1
Flags: W
LayerCount: 2
Fore
SplineSet
7 -270 m 1,0,-1
 126 525 l 1,1,-1
 388 525 l 1,2,-1
 269 -270 l 1,3,-1
 7 -270 l 1,0,-1
414 698 m 1,4,-1
 152 698 l 1,5,-1
 265 1456 l 1,6,-1
 527 1456 l 1,7,-1
 414 698 l 1,4,-1
EndSplineSet
Validated: 1
EndChar

StartChar: section
Encoding: 167 167 105
Width: 1287
GlyphClass: 1
Flags: W
LayerCount: 2
Fore
SplineSet
1171 475 m 0,0,1
 1157 381 1157 381 1105.5 313.5 c 128,-1,2
 1054 246 1054 246 971 203 c 1,3,4
 1030 152 1030 152 1052.5 82 c 128,-1,5
 1075 12 1075 12 1061 -84 c 0,6,7
 1033 -268 1033 -268 880.5 -364.5 c 128,-1,8
 728 -461 728 -461 488 -461 c 0,9,10
 263 -461 263 -461 119 -360.5 c 128,-1,11
 -25 -260 -25 -260 12 -44 c 1,12,-1
 14 -38 l 1,13,-1
 298 -37 l 1,14,15
 281 -148 281 -148 346 -191.5 c 128,-1,16
 411 -235 411 -235 522 -235 c 0,17,18
 625 -235 625 -235 692.5 -193 c 128,-1,19
 760 -151 760 -151 770 -85 c 0,20,21
 780 -16 780 -16 726.5 23 c 128,-1,22
 673 62 673 62 509 113 c 1,23,24
 274 177 274 177 171 270.5 c 128,-1,25
 68 364 68 364 94 536 c 0,26,27
 108 628 108 628 159.5 697 c 128,-1,28
 211 766 211 766 296 809 c 1,29,30
 236 860 236 860 212.5 929.5 c 128,-1,31
 189 999 189 999 204 1096 c 0,32,33
 231 1275 231 1275 386.5 1376 c 128,-1,34
 542 1477 542 1477 782 1477 c 0,35,36
 1016 1477 1016 1477 1141 1364.5 c 128,-1,37
 1266 1252 1266 1252 1231 1055 c 1,38,-1
 1229 1049 l 1,39,-1
 945 1049 l 1,40,41
 958 1140 958 1140 907.5 1196 c 128,-1,42
 857 1252 857 1252 748 1252 c 0,43,44
 638 1252 638 1252 572 1208 c 128,-1,45
 506 1164 506 1164 497 1098 c 0,46,47
 485 1020 485 1020 534 983 c 128,-1,48
 583 946 583 946 755 898 c 0,49,50
 992 834 992 834 1094.5 740.5 c 128,-1,51
 1197 647 1197 647 1171 475 c 0,0,1
618 663 m 0,52,53
 583 672 583 672 550.5 682.5 c 128,-1,54
 518 693 518 693 488 705 c 1,55,56
 446 683 446 683 420.5 646 c 128,-1,57
 395 609 395 609 389 562 c 0,58,59
 377 479 377 479 425 439.5 c 128,-1,60
 473 400 473 400 645 347 c 0,61,62
 678 337 678 337 710 327 c 128,-1,63
 742 317 742 317 775 306 c 1,64,65
 818 329 818 329 845.5 366 c 128,-1,66
 873 403 873 403 881 450 c 0,67,68
 892 524 892 524 837.5 567 c 128,-1,69
 783 610 783 610 618 663 c 0,52,53
EndSplineSet
Validated: 33
EndChar

StartChar: dieresis
Encoding: 168 168 106
Width: 1090
GlyphClass: 1
Flags: W
LayerCount: 2
Fore
SplineSet
1022 1252 m 1,0,-1
 756 1252 l 1,1,-1
 785 1456 l 1,2,-1
 1051 1456 l 1,3,-1
 1022 1252 l 1,0,-1
522 1252 m 1,4,-1
 256 1252 l 1,5,-1
 285 1456 l 1,6,-1
 551 1456 l 1,7,-1
 522 1252 l 1,4,-1
EndSplineSet
Validated: 1
EndChar

StartChar: copyright
Encoding: 169 169 107
Width: 1606
GlyphClass: 1
Flags: W
LayerCount: 2
Fore
SplineSet
1117 596 m 1,0,-1
 1119 590 l 1,1,2
 1100 434 1100 434 1001.5 358 c 128,-1,3
 903 282 903 282 744 282 c 0,4,5
 590 282 590 282 508.5 389.5 c 128,-1,6
 427 497 427 497 453 669 c 2,7,-1
 471 788 l 2,8,9
 497 967 497 967 606.5 1071 c 128,-1,10
 716 1175 716 1175 878 1175 c 0,11,12
 1030 1175 1030 1175 1109 1094.5 c 128,-1,13
 1188 1014 1188 1014 1162 866 c 1,14,-1
 1160 861 l 1,15,-1
 1011 861 l 1,16,17
 1025 958 1025 958 987 999 c 128,-1,18
 949 1040 949 1040 858 1040 c 256,19,20
 767 1040 767 1040 704.5 970.5 c 128,-1,21
 642 901 642 901 626 789 c 2,22,-1
 608 669 l 2,23,24
 590 550 590 550 630 483.5 c 128,-1,25
 670 417 670 417 765 417 c 0,26,27
 852 417 852 417 904 459 c 128,-1,28
 956 501 956 501 970 596 c 1,29,-1
 1117 596 l 1,0,-1
237 729 m 0,30,31
 196 455 196 455 340 279.5 c 128,-1,32
 484 104 484 104 732 104 c 0,33,34
 967 104 967 104 1169.5 286 c 128,-1,35
 1372 468 1372 468 1412 729 c 0,36,37
 1453 1002 1453 1002 1309.5 1176.5 c 128,-1,38
 1166 1351 1166 1351 919 1351 c 0,39,40
 682 1351 682 1351 479 1170 c 128,-1,41
 276 989 276 989 237 729 c 0,30,31
115 729 m 0,42,43
 164 1056 164 1056 400.5 1266 c 128,-1,44
 637 1476 637 1476 937 1476 c 0,45,46
 1220 1476 1220 1476 1401 1258 c 128,-1,47
 1582 1040 1582 1040 1535 729 c 0,48,49
 1486 401 1486 401 1248.5 190 c 128,-1,50
 1011 -21 1011 -21 713 -21 c 0,51,52
 429 -21 429 -21 248.5 197.5 c 128,-1,53
 68 416 68 416 115 729 c 0,42,43
EndSplineSet
Validated: 33
EndChar

StartChar: ordfeminine
Encoding: 170 170 108
Width: 909
GlyphClass: 1
Flags: W
LayerCount: 2
Fore
SplineSet
630 706 m 1,0,1
 625 727 625 727 623.5 750.5 c 128,-1,2
 622 774 622 774 623 800 c 1,3,4
 583 753 583 753 522.5 722.5 c 128,-1,5
 462 692 462 692 385 692 c 0,6,7
 271 692 271 692 212.5 754 c 128,-1,8
 154 816 154 816 170 920 c 0,9,10
 187 1034 187 1034 279.5 1092.5 c 128,-1,11
 372 1151 372 1151 536 1151 c 2,12,-1
 672 1151 l 1,13,-1
 680 1202 l 2,14,15
 689 1266 689 1266 665 1297.5 c 128,-1,16
 641 1329 641 1329 583 1329 c 0,17,18
 520 1329 520 1329 478.5 1303 c 128,-1,19
 437 1277 437 1277 431 1230 c 1,20,-1
 269 1243 l 1,21,-1
 268 1249 l 1,22,23
 277 1351 277 1351 370.5 1414 c 128,-1,24
 464 1477 464 1477 606 1477 c 0,25,26
 735 1477 735 1477 805 1405 c 128,-1,27
 875 1333 875 1333 855 1201 c 2,28,-1
 808 887 l 2,29,30
 800 835 800 835 799.5 791.5 c 128,-1,31
 799 748 799 748 807 706 c 1,32,-1
 630 706 l 1,0,1
449 836 m 0,33,34
 497 836 497 836 556.5 865.5 c 128,-1,35
 616 895 616 895 639 930 c 1,36,-1
 655 1034 l 1,37,-1
 519 1034 l 2,38,39
 448 1034 448 1034 400 1001.5 c 128,-1,40
 352 969 352 969 346 924 c 0,41,42
 339 880 339 880 364 858 c 128,-1,43
 389 836 389 836 449 836 c 0,33,34
EndSplineSet
Validated: 33
EndChar

StartChar: logicalnot
Encoding: 172 172 110
Width: 1129
GlyphClass: 1
Flags: W
LayerCount: 2
Fore
SplineSet
976 634 m 1,0,-1
 937 374 l 1,1,-1
 737 374 l 1,2,-1
 776 634 l 1,3,-1
 141 634 l 1,4,-1
 167 805 l 1,5,-1
 1002 805 l 1,6,-1
 976 634 l 1,0,-1
EndSplineSet
Validated: 1
EndChar

StartChar: registered
Encoding: 174 174 112
Width: 1606
GlyphClass: 1
Flags: W
LayerCount: 2
Fore
SplineSet
115 729 m 0,0,1
 164 1056 164 1056 400.5 1266 c 128,-1,2
 637 1476 637 1476 937 1476 c 0,3,4
 1220 1476 1220 1476 1401 1258 c 128,-1,5
 1582 1040 1582 1040 1535 729 c 0,6,7
 1486 401 1486 401 1248.5 190 c 128,-1,8
 1011 -21 1011 -21 713 -21 c 0,9,10
 429 -21 429 -21 248.5 197.5 c 128,-1,11
 68 416 68 416 115 729 c 0,0,1
237 729 m 0,12,13
 196 455 196 455 340 279.5 c 128,-1,14
 484 104 484 104 732 104 c 0,15,16
 967 104 967 104 1169.5 286 c 128,-1,17
 1372 468 1372 468 1412 729 c 0,18,19
 1453 1002 1453 1002 1309.5 1176.5 c 128,-1,20
 1166 1351 1166 1351 919 1351 c 0,21,22
 682 1351 682 1351 479 1170 c 128,-1,23
 276 989 276 989 237 729 c 0,12,13
670 653 m 1,24,-1
 619 316 l 1,25,-1
 468 316 l 1,26,-1
 596 1166 l 1,27,-1
 877 1166 l 2,28,29
 1022 1166 1022 1166 1101.5 1097.5 c 128,-1,30
 1181 1029 1181 1029 1163 904 c 0,31,32
 1154 843 1154 843 1118 799.5 c 128,-1,33
 1082 756 1082 756 1020 727 c 1,34,35
 1073 696 1073 696 1092 641.5 c 128,-1,36
 1111 587 1111 587 1101 515 c 2,37,-1
 1093 459 l 2,38,39
 1086 416 1086 416 1085 384.5 c 128,-1,40
 1084 353 1084 353 1091 332 c 1,41,-1
 1088 316 l 1,42,-1
 933 316 l 1,43,44
 928 337 928 337 931.5 375 c 128,-1,45
 935 413 935 413 942 460 c 2,46,-1
 950 514 l 2,47,48
 961 588 961 588 933 620.5 c 128,-1,49
 905 653 905 653 828 653 c 2,50,-1
 670 653 l 1,24,-1
690 787 m 1,51,-1
 825 787 l 2,52,53
 894 787 894 787 949 817.5 c 128,-1,54
 1004 848 1004 848 1012 903 c 0,55,56
 1023 978 1023 978 989.5 1005.5 c 128,-1,57
 956 1033 956 1033 857 1033 c 2,58,-1
 727 1033 l 1,59,-1
 690 787 l 1,51,-1
EndSplineSet
Validated: 33
EndChar

StartChar: macron
Encoding: 175 175 113
AltUni2: 0002c9.ffffffff.0 0002c9.ffffffff.0
Width: 1028
GlyphClass: 1
Flags: W
LayerCount: 2
Fore
SplineSet
985 1292 m 1,0,-1
 254 1292 l 1,1,-1
 277 1457 l 1,2,-1
 1008 1457 l 1,3,-1
 985 1292 l 1,0,-1
EndSplineSet
Validated: 1
EndChar

StartChar: degree
Encoding: 176 176 114
Width: 796
GlyphClass: 1
Flags: W
LayerCount: 2
Fore
SplineSet
226 1203 m 0,0,1
 243 1320 243 1320 335 1398.5 c 128,-1,2
 427 1477 427 1477 541 1477 c 0,3,4
 647 1477 647 1477 715.5 1395.5 c 128,-1,5
 784 1314 784 1314 767 1203 c 0,6,7
 750 1085 750 1085 660.5 1008.5 c 128,-1,8
 571 932 571 932 459 932 c 0,9,10
 350 932 350 932 279.5 1011.5 c 128,-1,11
 209 1091 209 1091 226 1203 c 0,0,1
373 1203 m 0,12,13
 364 1148 364 1148 396 1113.5 c 128,-1,14
 428 1079 428 1079 481 1079 c 0,15,16
 530 1079 530 1079 571 1114 c 128,-1,17
 612 1149 612 1149 620 1203 c 0,18,19
 628 1259 628 1259 599 1295 c 128,-1,20
 570 1331 570 1331 519 1331 c 256,21,22
 468 1331 468 1331 424.5 1293.5 c 128,-1,23
 381 1256 381 1256 373 1203 c 0,12,13
EndSplineSet
Validated: 33
EndChar

StartChar: plusminus
Encoding: 177 177 115
Width: 1101
GlyphClass: 1
Flags: W
LayerCount: 2
Fore
SplineSet
736 947 m 1,0,-1
 1064 947 l 1,1,-1
 1031 715 l 1,2,-1
 703 715 l 1,3,-1
 650 332 l 1,4,-1
 394 332 l 1,5,-1
 447 715 l 1,6,-1
 115 715 l 1,7,-1
 148 947 l 1,8,-1
 480 947 l 1,9,-1
 531 1310 l 1,10,-1
 787 1310 l 1,11,-1
 736 947 l 1,0,-1
868 -43 m 1,12,-1
 34 -43 l 1,13,-1
 68 185 l 1,14,-1
 902 185 l 1,15,-1
 868 -43 l 1,12,-1
EndSplineSet
Validated: 1
EndChar

StartChar: twosuperior
Encoding: 178 178 116
Width: 860
GlyphClass: 1
Flags: W
LayerCount: 2
Fore
SplineSet
756 667 m 1,0,-1
 134 667 l 1,1,-1
 157 822 l 1,2,-1
 504 1074 l 2,3,4
 571 1124 571 1124 593.5 1157.5 c 128,-1,5
 616 1191 616 1191 623 1232 c 0,6,7
 628 1273 628 1273 609 1298.5 c 128,-1,8
 590 1324 590 1324 541 1324 c 0,9,10
 489 1324 489 1324 454.5 1294 c 128,-1,11
 420 1264 420 1264 414 1217 c 1,12,-1
 214 1217 l 1,13,-1
 212 1223 l 1,14,15
 222 1333 222 1333 321 1406 c 128,-1,16
 420 1479 420 1479 569 1479 c 0,17,18
 707 1479 707 1479 779 1413 c 128,-1,19
 851 1347 851 1347 834 1231 c 0,20,21
 821 1146 821 1146 761 1087 c 128,-1,22
 701 1028 701 1028 555 921 c 2,23,-1
 432 828 l 1,24,-1
 434 822 l 1,25,-1
 779 822 l 1,26,-1
 756 667 l 1,0,-1
EndSplineSet
Validated: 33
EndChar

StartChar: threesuperior
Encoding: 179 179 117
Width: 856
GlyphClass: 1
Flags: W
LayerCount: 2
Fore
SplineSet
388 1139 m 1,0,-1
 499 1139 l 2,1,2
 559 1139 559 1139 593.5 1164 c 128,-1,3
 628 1189 628 1189 635 1234 c 0,4,5
 640 1273 640 1273 616 1298 c 128,-1,6
 592 1323 592 1323 536 1323 c 0,7,8
 487 1323 487 1323 454 1301 c 128,-1,9
 421 1279 421 1279 417 1248 c 1,10,-1
 217 1248 l 1,11,-1
 216 1254 l 1,12,13
 226 1359 226 1359 322 1418.5 c 128,-1,14
 418 1478 418 1478 554 1478 c 0,15,16
 700 1478 700 1478 782 1418 c 128,-1,17
 864 1358 864 1358 848 1249 c 0,18,19
 839 1192 839 1192 797.5 1146.5 c 128,-1,20
 756 1101 756 1101 691 1076 c 1,21,22
 755 1052 755 1052 786 1004.5 c 128,-1,23
 817 957 817 957 808 891 c 0,24,25
 790 774 790 774 692.5 714.5 c 128,-1,26
 595 655 595 655 441 655 c 0,27,28
 300 655 300 655 213 718 c 128,-1,29
 126 781 126 781 149 893 c 1,30,-1
 151 899 l 1,31,-1
 353 899 l 1,32,33
 346 856 346 856 374 833 c 128,-1,34
 402 810 402 810 463 810 c 0,35,36
 517 810 517 810 555 834 c 128,-1,37
 593 858 593 858 600 902 c 0,38,39
 608 954 608 954 577 980 c 128,-1,40
 546 1006 546 1006 479 1006 c 2,41,-1
 368 1006 l 1,42,-1
 382 1099 l 1,43,-1
 388 1139 l 1,0,-1
EndSplineSet
Validated: 33
EndChar

StartChar: acute
Encoding: 180 180 118
Width: 727
GlyphClass: 1
Flags: W
LayerCount: 2
Fore
SplineSet
452 1518 m 1,0,-1
 776 1518 l 1,1,-1
 778 1512 l 1,2,-1
 464 1252 l 1,3,-1
 222 1252 l 1,4,-1
 220 1257 l 1,5,-1
 452 1518 l 1,0,-1
EndSplineSet
Validated: 1
EndChar

StartChar: mu
Encoding: 181 181 119
Width: 1264
GlyphClass: 1
Flags: W
LayerCount: 2
Fore
SplineSet
512 1082 m 1,0,-1
 415 434 l 2,1,2
 398 296 398 296 435 251 c 128,-1,3
 472 206 472 206 561 206 c 0,4,5
 635 206 635 206 690 235 c 128,-1,6
 745 264 745 264 781 319 c 1,7,-1
 895 1082 l 1,8,-1
 1187 1082 l 1,9,-1
 1025 0 l 1,10,-1
 753 0 l 1,11,-1
 757 63 l 1,12,13
 707 21 707 21 647.5 0 c 128,-1,14
 588 -21 588 -21 520 -21 c 0,15,16
 471 -21 471 -21 429 -10 c 128,-1,17
 387 1 387 1 354 24 c 1,18,-1
 288 -416 l 1,19,-1
 -3 -416 l 1,20,-1
 221 1082 l 1,21,-1
 512 1082 l 1,0,-1
EndSplineSet
Validated: 33
EndChar

StartChar: paragraph
Encoding: 182 182 120
Width: 1078
GlyphClass: 1
Flags: W
LayerCount: 2
Fore
SplineSet
556 0 m 1,0,-1
 634 520 l 1,1,-1
 551 520 l 2,2,3
 327 520 327 520 212.5 651 c 128,-1,4
 98 782 98 782 129 988 c 0,5,6
 161 1202 161 1202 308.5 1329 c 128,-1,7
 456 1456 456 1456 691 1456 c 2,8,-1
 1066 1456 l 1,9,-1
 848 0 l 1,10,-1
 556 0 l 1,0,-1
EndSplineSet
Validated: 33
EndChar

StartChar: periodcentered
Encoding: 183 183 121
Width: 619
GlyphClass: 1
Flags: W
LayerCount: 2
Fore
SplineSet
456 568 m 1,0,-1
 164 568 l 1,1,-1
 203 828 l 1,2,-1
 495 828 l 1,3,-1
 456 568 l 1,0,-1
EndSplineSet
Validated: 1
EndChar

StartChar: cedilla
Encoding: 184 184 122
Width: 549
GlyphClass: 1
Flags: W
LayerCount: 2
Fore
SplineSet
268 6 m 1,0,-1
 248 -51 l 1,1,2
 310 -62 310 -62 347 -103 c 128,-1,3
 384 -144 384 -144 372 -224 c 0,4,5
 355 -335 355 -335 255.5 -397 c 128,-1,6
 156 -459 156 -459 -14 -459 c 1,7,-1
 3 -298 l 1,8,9
 52 -298 52 -298 86 -277.5 c 128,-1,10
 120 -257 120 -257 127 -215 c 0,11,12
 133 -172 133 -172 104.5 -156.5 c 128,-1,13
 76 -141 76 -141 -3 -136 c 1,14,-1
 49 6 l 1,15,-1
 268 6 l 1,0,-1
EndSplineSet
Validated: 33
EndChar

StartChar: onesuperior
Encoding: 185 185 123
Width: 573
GlyphClass: 1
Flags: W
LayerCount: 2
Fore
SplineSet
436 665 m 1,0,-1
 225 665 l 1,1,-1
 319 1295 l 1,2,-1
 192 1295 l 1,3,-1
 216 1454 l 1,4,-1
 558 1477 l 1,5,-1
 436 665 l 1,0,-1
EndSplineSet
Validated: 1
EndChar

StartChar: ordmasculine
Encoding: 186 186 124
Width: 937
GlyphClass: 1
Flags: W
LayerCount: 2
Fore
SplineSet
209 1142 m 2,0,1
 232 1295 232 1295 339.5 1386 c 128,-1,2
 447 1477 447 1477 606 1477 c 0,3,4
 758 1477 758 1477 841 1382.5 c 128,-1,5
 924 1288 924 1288 902 1142 c 2,6,-1
 885 1025 l 2,7,8
 861 870 861 870 755 780.5 c 128,-1,9
 649 691 649 691 490 691 c 0,10,11
 337 691 337 691 253.5 784.5 c 128,-1,12
 170 878 170 878 192 1025 c 2,13,-1
 209 1142 l 2,0,1
367 1025 m 2,14,15
 353 937 353 937 389.5 887 c 128,-1,16
 426 837 426 837 512 837 c 0,17,18
 591 837 591 837 644 889 c 128,-1,19
 697 941 697 941 710 1025 c 2,20,-1
 727 1142 l 2,21,22
 740 1228 740 1228 703.5 1278.5 c 128,-1,23
 667 1329 667 1329 583 1329 c 0,24,25
 503 1329 503 1329 449.5 1276 c 128,-1,26
 396 1223 396 1223 384 1142 c 2,27,-1
 367 1025 l 2,14,15
EndSplineSet
Validated: 33
EndChar

StartChar: questiondown
Encoding: 191 191 129
Width: 1037
GlyphClass: 1
Flags: W
LayerCount: 2
Fore
SplineSet
746 668 m 1,0,1
 723 527 723 527 673 461.5 c 128,-1,2
 623 396 623 396 490 304 c 0,3,4
 409 246 409 246 356 178.5 c 128,-1,5
 303 111 303 111 291 29 c 0,6,7
 277 -65 277 -65 317.5 -115 c 128,-1,8
 358 -165 358 -165 450 -165 c 0,9,10
 521 -165 521 -165 580 -121.5 c 128,-1,11
 639 -78 639 -78 654 6 c 1,12,-1
 937 6 l 1,13,-1
 938 0 l 1,14,15
 911 -191 911 -191 766.5 -292.5 c 128,-1,16
 622 -394 622 -394 416 -394 c 0,17,18
 199 -394 199 -394 84.5 -280 c 128,-1,19
 -30 -166 -30 -166 -1 27 c 0,20,21
 18 157 18 157 107 262 c 128,-1,22
 196 367 196 367 322 443 c 0,23,24
 389 488 389 488 415.5 535.5 c 128,-1,25
 442 583 442 583 455 668 c 1,26,-1
 746 668 l 1,0,1
515 1082 m 1,27,-1
 809 1082 l 1,28,-1
 772 831 l 1,29,-1
 478 831 l 1,30,-1
 515 1082 l 1,27,-1
EndSplineSet
Validated: 33
EndChar

StartChar: AE
Encoding: 198 198 136
Width: 1945
GlyphClass: 1
Flags: W
LayerCount: 2
Fore
SplineSet
1794 0 m 1,0,-1
 896 0 l 1,1,-1
 932 335 l 1,2,-1
 492 335 l 1,3,-1
 274 0 l 1,4,-1
 -68 0 l 1,5,-1
 934 1456 l 1,6,-1
 1950 1456 l 1,7,-1
 1916 1228 l 1,8,-1
 1320 1228 l 1,9,-1
 1281 862 l 1,10,-1
 1780 862 l 1,11,-1
 1746 635 l 1,12,-1
 1256 635 l 1,13,-1
 1212 227 l 1,14,-1
 1828 227 l 1,15,-1
 1794 0 l 1,0,-1
958 575 m 1,16,-1
 1018 1132 l 1,17,-1
 1012 1134 l 1,18,-1
 648 575 l 1,19,-1
 958 575 l 1,16,-1
EndSplineSet
Validated: 1
EndChar

StartChar: Eth
Encoding: 208 208 146
Width: 1355
GlyphClass: 1
Flags: W
LayerCount: 2
Fore
SplineSet
54 0 m 1,0,-1
 151 652 l 1,1,-1
 16 652 l 1,2,-1
 43 833 l 1,3,-1
 178 833 l 1,4,-1
 272 1456 l 1,5,-1
 780 1456 l 2,6,7
 1037 1456 1037 1456 1189 1284 c 128,-1,8
 1341 1112 1341 1112 1302 848 c 2,9,-1
 1266 607 l 2,10,11
 1224 329 1224 329 1028 164.5 c 128,-1,12
 832 0 832 0 562 0 c 2,13,-1
 54 0 l 1,0,-1
687 652 m 1,14,-1
 443 652 l 1,15,-1
 379 224 l 1,16,-1
 596 224 l 2,17,18
 734 224 734 224 841 332.5 c 128,-1,19
 948 441 948 441 973 607 c 2,20,-1
 1010 850 l 2,21,22
 1035 1023 1035 1023 963.5 1127 c 128,-1,23
 892 1231 892 1231 747 1231 c 2,24,-1
 530 1231 l 1,25,-1
 470 833 l 1,26,-1
 714 833 l 1,27,-1
 687 652 l 1,14,-1
EndSplineSet
Validated: 33
Substitution2: "'smcp' Lowercase to Small Capitals lookup 0 subtable" Eth.smcp
EndChar

StartChar: multiply
Encoding: 215 215 153
Width: 1088
GlyphClass: 1
Flags: W
LayerCount: 2
Fore
SplineSet
40 371 m 1,0,-1
 396 686 l 1,1,-1
 134 1001 l 1,2,-1
 331 1165 l 1,3,-1
 588 855 l 1,4,-1
 938 1165 l 1,5,-1
 1085 1001 l 1,6,-1
 729 686 l 1,7,-1
 991 371 l 1,8,-1
 794 207 l 1,9,-1
 537 516 l 1,10,-1
 187 207 l 1,11,-1
 40 371 l 1,0,-1
EndSplineSet
Validated: 1
EndChar

StartChar: Oslash
Encoding: 216 216 154
Width: 1410
GlyphClass: 1
Flags: W
LayerCount: 2
Fore
SplineSet
1322 597 m 2,0,1
 1279 318 1279 318 1086.5 148.5 c 128,-1,2
 894 -21 894 -21 620 -21 c 0,3,4
 542 -21 542 -21 472 -3.5 c 128,-1,5
 402 14 402 14 343 48 c 1,6,-1
 239 -95 l 1,7,-1
 96 -95 l 1,8,-1
 251 116 l 1,9,10
 161 201 161 201 122.5 325.5 c 128,-1,11
 84 450 84 450 107 597 c 2,12,-1
 146 859 l 2,13,14
 187 1136 187 1136 378.5 1306.5 c 128,-1,15
 570 1477 570 1477 843 1477 c 0,16,17
 939 1477 939 1477 1022 1450.5 c 128,-1,18
 1105 1424 1105 1424 1173 1375 c 1,19,-1
 1278 1518 l 1,20,-1
 1421 1518 l 1,21,-1
 1257 1294 l 1,22,23
 1324 1209 1324 1209 1352 1097.5 c 128,-1,24
 1380 986 1380 986 1361 859 c 2,25,-1
 1322 597 l 2,0,1
398 597 m 2,26,27
 386 521 386 521 391.5 459 c 128,-1,28
 397 397 397 397 418 355 c 1,29,-1
 424 353 l 1,30,-1
 1015 1160 l 1,31,32
 980 1202 980 1202 928 1225.5 c 128,-1,33
 876 1249 876 1249 808 1249 c 0,34,35
 665 1249 665 1249 563.5 1139 c 128,-1,36
 462 1029 462 1029 437 861 c 2,37,-1
 398 597 l 2,26,27
1070 861 m 2,38,39
 1077 910 1077 910 1077 953 c 128,-1,40
 1077 996 1077 996 1069 1028 c 1,41,-1
 1063 1030 l 1,42,-1
 493 252 l 1,43,44
 524 229 524 229 564.5 217.5 c 128,-1,45
 605 206 605 206 654 206 c 0,46,47
 798 206 798 206 901 316 c 128,-1,48
 1004 426 1004 426 1031 597 c 2,49,-1
 1070 861 l 2,38,39
EndSplineSet
Validated: 33
EndChar

StartChar: Thorn
Encoding: 222 222 160
Width: 1247
GlyphClass: 1
Flags: W
LayerCount: 2
Fore
SplineSet
562 1456 m 1,0,-1
 521 1186 l 1,1,-1
 743 1186 l 2,2,3
 987 1186 987 1186 1115 1060.5 c 128,-1,4
 1243 935 1243 935 1214 738 c 0,5,6
 1182 530 1182 530 1023.5 409.5 c 128,-1,7
 865 289 865 289 608 289 c 2,8,-1
 387 289 l 1,9,-1
 344 0 l 1,10,-1
 52 0 l 1,11,-1
 270 1456 l 1,12,-1
 562 1456 l 1,0,-1
488 961 m 1,13,-1
 421 514 l 1,14,-1
 642 514 l 2,15,16
 760 514 760 514 833.5 578.5 c 128,-1,17
 907 643 907 643 921 736 c 0,18,19
 936 834 936 834 884.5 897.5 c 128,-1,20
 833 961 833 961 709 961 c 2,21,-1
 488 961 l 1,13,-1
EndSplineSet
Validated: 33
EndChar

StartChar: germandbls
Encoding: 223 223 161
Width: 1294
GlyphClass: 1
Flags: W
LayerCount: 2
Fore
SplineSet
346 0 m 1,0,-1
 55 0 l 1,1,-1
 220 1101 l 2,2,3
 255 1336 255 1336 400.5 1454.5 c 128,-1,4
 546 1573 546 1573 772 1573 c 0,5,6
 946 1573 946 1573 1053.5 1476.5 c 128,-1,7
 1161 1380 1161 1380 1135 1206 c 0,8,9
 1117 1092 1117 1092 1049.5 997 c 128,-1,10
 982 902 982 902 972 835 c 0,11,12
 962 774 962 774 1091 634.5 c 128,-1,13
 1220 495 1220 495 1200 356 c 0,14,15
 1170 160 1170 160 1043.5 69.5 c 128,-1,16
 917 -21 917 -21 697 -21 c 0,17,18
 619 -21 619 -21 540 -6 c 128,-1,19
 461 9 461 9 426 35 c 1,20,-1
 515 258 l 1,21,22
 550 236 550 236 604.5 219.5 c 128,-1,23
 659 203 659 203 724 203 c 0,24,25
 798 203 798 203 848 241.5 c 128,-1,26
 898 280 898 280 908 344 c 0,27,28
 919 420 919 420 788.5 552.5 c 128,-1,29
 658 685 658 685 680 826 c 0,30,31
 694 922 694 922 763.5 1019.5 c 128,-1,32
 833 1117 833 1117 844 1191 c 0,33,34
 854 1262 854 1262 816 1305.5 c 128,-1,35
 778 1349 778 1349 719 1349 c 0,36,37
 646 1349 646 1349 587 1281 c 128,-1,38
 528 1213 528 1213 511 1097 c 2,39,-1
 346 0 l 1,0,-1
EndSplineSet
Validated: 33
Substitution2: "'smcp' Lowercase to Small Capitals lookup 0 subtable" germandbls.smcp
EndChar

StartChar: ae
Encoding: 230 230 168
Width: 1771
GlyphClass: 1
Flags: W
LayerCount: 2
Fore
SplineSet
1197 -21 m 0,0,1
 1073 -21 1073 -21 979.5 21 c 128,-1,2
 886 63 886 63 828 141 c 1,3,4
 759 70 759 70 650 24.5 c 128,-1,5
 541 -21 541 -21 399 -21 c 0,6,7
 214 -21 214 -21 119.5 70.5 c 128,-1,8
 25 162 25 162 49 317 c 0,9,10
 73 482 73 482 210.5 565 c 128,-1,11
 348 648 348 648 594 648 c 2,12,-1
 775 648 l 1,13,-1
 784 707 l 2,14,15
 796 789 796 789 763 833 c 128,-1,16
 730 877 730 877 655 877 c 0,17,18
 577 877 577 877 523 839 c 128,-1,19
 469 801 469 801 461 746 c 1,20,-1
 182 764 l 1,21,-1
 181 770 l 1,22,23
 198 920 198 920 337.5 1011 c 128,-1,24
 477 1102 477 1102 691 1102 c 0,25,26
 788 1102 788 1102 867 1075 c 128,-1,27
 946 1048 946 1048 999 996 c 1,28,29
 1068 1048 1068 1048 1155 1075 c 128,-1,30
 1242 1102 1242 1102 1342 1102 c 0,31,32
 1546 1102 1546 1102 1651.5 969 c 128,-1,33
 1757 836 1757 836 1724 612 c 2,34,-1
 1700 454 l 1,35,-1
 1049 454 l 1,36,-1
 1047 449 l 1,37,38
 1033 334 1033 334 1084 268.5 c 128,-1,39
 1135 203 1135 203 1261 203 c 0,40,41
 1349 203 1349 203 1417.5 223.5 c 128,-1,42
 1486 244 1486 244 1569 284 c 1,43,-1
 1618 100 l 1,44,45
 1548 52 1548 52 1435.5 15.5 c 128,-1,46
 1323 -21 1323 -21 1197 -21 c 0,0,1
485 185 m 0,47,48
 541 185 541 185 609.5 216 c 128,-1,49
 678 247 678 247 721 289 c 1,50,-1
 747 464 l 1,51,-1
 569 464 l 2,52,53
 476 464 476 464 412 419 c 128,-1,54
 348 374 348 374 339 313 c 0,55,56
 329 252 329 252 365.5 218.5 c 128,-1,57
 402 185 402 185 485 185 c 0,47,48
1309 877 m 0,58,59
 1219 877 1219 877 1160.5 815 c 128,-1,60
 1102 753 1102 753 1079 650 c 1,61,-1
 1081 644 l 1,62,-1
 1442 644 l 1,63,-1
 1446 672 l 2,64,65
 1460 769 1460 769 1426.5 823 c 128,-1,66
 1393 877 1393 877 1309 877 c 0,58,59
EndSplineSet
Validated: 33
EndChar

StartChar: eth
Encoding: 240 240 178
Width: 1218
GlyphClass: 1
Flags: W
LayerCount: 2
Fore
SplineSet
1034 1290 m 1,0,1
 1121 1184 1121 1184 1156 1045 c 128,-1,2
 1191 906 1191 906 1167 742 c 2,3,-1
 1138 546 l 2,4,5
 1099 286 1099 286 920.5 132.5 c 128,-1,6
 742 -21 742 -21 504 -21 c 0,7,8
 275 -21 275 -21 141 121 c 128,-1,9
 7 263 7 263 38 468 c 0,10,11
 73 703 73 703 226 835 c 128,-1,12
 379 967 379 967 613 967 c 0,13,14
 692 967 692 967 761.5 939.5 c 128,-1,15
 831 912 831 912 877 865 c 1,16,-1
 881 869 l 1,17,18
 881 958 881 958 852.5 1029.5 c 128,-1,19
 824 1101 824 1101 772 1156 c 1,20,-1
 503 1018 l 1,21,-1
 442 1131 l 1,22,-1
 652 1238 l 1,23,-1
 651 1244 l 1,24,25
 624 1259 624 1259 589 1272.5 c 128,-1,26
 554 1286 554 1286 513 1299 c 1,27,-1
 638 1517 l 1,28,29
 724 1498 724 1498 799 1464.5 c 128,-1,30
 874 1431 874 1431 936 1384 c 1,31,-1
 1150 1493 l 1,32,-1
 1210 1380 l 1,33,-1
 1034 1290 l 1,0,1
541 203 m 0,34,35
 653 203 653 203 738.5 300.5 c 128,-1,36
 824 398 824 398 846 546 c 2,37,-1
 864 664 l 1,38,39
 836 703 836 703 775 729 c 128,-1,40
 714 755 714 755 627 755 c 0,41,42
 510 755 510 755 429.5 675 c 128,-1,43
 349 595 349 595 330 468 c 0,44,45
 313 352 313 352 369 277.5 c 128,-1,46
 425 203 425 203 541 203 c 0,34,35
EndSplineSet
Validated: 33
Substitution2: "'smcp' Lowercase to Small Capitals lookup 0 subtable" Eth.smcp
EndChar

StartChar: divide
Encoding: 247 247 185
Width: 1168
GlyphClass: 1
Flags: W
LayerCount: 2
Fore
SplineSet
1098 573 m 1,0,-1
 69 573 l 1,1,-1
 103 800 l 1,2,-1
 1132 800 l 1,3,-1
 1098 573 l 1,0,-1
791 973 m 1,4,-1
 498 973 l 1,5,-1
 533 1206 l 1,6,-1
 826 1206 l 1,7,-1
 791 973 l 1,4,-1
670 164 m 1,8,-1
 377 164 l 1,9,-1
 412 397 l 1,10,-1
 705 397 l 1,11,-1
 670 164 l 1,8,-1
EndSplineSet
Validated: 1
EndChar

StartChar: oslash
Encoding: 248 248 186
Width: 1156
GlyphClass: 1
Flags: W
LayerCount: 2
Fore
SplineSet
70 551 m 2,0,1
 107 802 107 802 263.5 952 c 128,-1,2
 420 1102 420 1102 661 1102 c 0,3,4
 711 1102 711 1102 757 1093.5 c 128,-1,5
 803 1085 803 1085 843 1070 c 1,6,-1
 935 1215 l 1,7,-1
 1096 1215 l 1,8,-1
 959 1000 l 1,9,10
 1043 926 1043 926 1077 809.5 c 128,-1,11
 1111 693 1111 693 1091 551 c 2,12,-1
 1088 530 l 2,13,14
 1049 277 1049 277 893 128 c 128,-1,15
 737 -21 737 -21 495 -21 c 0,16,17
 448 -21 448 -21 405.5 -14 c 128,-1,18
 363 -7 363 -7 324 6 c 1,19,-1
 230 -141 l 1,20,-1
 69 -141 l 1,21,-1
 206 73 l 1,22,23
 117 146 117 146 80.5 265 c 128,-1,24
 44 384 44 384 67 530 c 2,25,-1
 70 551 l 2,0,1
358 530 m 2,26,27
 348 466 348 466 348.5 413.5 c 128,-1,28
 349 361 349 361 362 328 c 1,29,-1
 368 327 l 1,30,-1
 709 861 l 1,31,32
 692 868 692 868 671.5 872.5 c 128,-1,33
 651 877 651 877 628 877 c 0,34,35
 519 877 519 877 450 784.5 c 128,-1,36
 381 692 381 692 361 551 c 2,37,-1
 358 530 l 2,26,27
799 551 m 2,38,39
 807 607 807 607 806.5 655 c 128,-1,40
 806 703 806 703 797 735 c 1,41,-1
 791 737 l 1,42,-1
 457 214 l 1,43,44
 471 208 471 208 488.5 205.5 c 128,-1,45
 506 203 506 203 528 203 c 0,46,47
 636 203 636 203 705 294 c 128,-1,48
 774 385 774 385 796 530 c 2,49,-1
 799 551 l 2,38,39
EndSplineSet
Validated: 33
EndChar

StartChar: thorn
Encoding: 254 254 192
Width: 1162
GlyphClass: 1
Flags: W
LayerCount: 2
Fore
SplineSet
1095 511 m 2,0,1
 1057 262 1057 262 926 120.5 c 128,-1,2
 795 -21 795 -21 594 -21 c 0,3,4
 511 -21 511 -21 450 12.5 c 128,-1,5
 389 46 389 46 349 110 c 1,6,-1
 333 0 l 1,7,-1
 271 -416 l 1,8,-1
 -20 -416 l 1,9,-1
 42 0 l 1,10,-1
 41 0 l 1,11,-1
 275 1560 l 1,12,-1
 567 1560 l 1,13,-1
 478 969 l 1,14,15
 535 1033 535 1033 605 1067.5 c 128,-1,16
 675 1102 675 1102 760 1102 c 0,17,18
 953 1102 953 1102 1044 943.5 c 128,-1,19
 1135 785 1135 785 1098 532 c 2,20,-1
 1095 511 l 2,0,1
806 532 m 2,21,22
 829 689 829 689 792.5 782 c 128,-1,23
 756 875 756 875 650 875 c 0,24,25
 586 875 586 875 535 846.5 c 128,-1,26
 484 818 484 818 448 766 c 1,27,-1
 377 298 l 1,28,29
 397 251 397 251 440 227 c 128,-1,30
 483 203 483 203 551 203 c 0,31,32
 653 203 653 203 717 287 c 128,-1,33
 781 371 781 371 803 511 c 2,34,-1
 806 532 l 2,21,22
EndSplineSet
Validated: 33
EndChar

StartChar: Dcroat
Encoding: 272 272 210
Width: 1355
GlyphClass: 1
Flags: W
LayerCount: 2
Fore
SplineSet
54 0 m 1,0,-1
 151 652 l 1,1,-1
 16 652 l 1,2,-1
 43 833 l 1,3,-1
 178 833 l 1,4,-1
 272 1456 l 1,5,-1
 780 1456 l 2,6,7
 1037 1456 1037 1456 1189 1284 c 128,-1,8
 1341 1112 1341 1112 1302 848 c 2,9,-1
 1266 607 l 2,10,11
 1224 329 1224 329 1028 164.5 c 128,-1,12
 832 0 832 0 562 0 c 2,13,-1
 54 0 l 1,0,-1
687 652 m 1,14,-1
 443 652 l 1,15,-1
 379 224 l 1,16,-1
 596 224 l 2,17,18
 734 224 734 224 841 332.5 c 128,-1,19
 948 441 948 441 973 607 c 2,20,-1
 1010 850 l 2,21,22
 1035 1023 1035 1023 963.5 1127 c 128,-1,23
 892 1231 892 1231 747 1231 c 2,24,-1
 530 1231 l 1,25,-1
 470 833 l 1,26,-1
 714 833 l 1,27,-1
 687 652 l 1,14,-1
EndSplineSet
Validated: 33
Substitution2: "'smcp' Lowercase to Small Capitals lookup 0 subtable" Dcroat.smcp
EndChar

StartChar: dcroat
Encoding: 273 273 211
Width: 1156
GlyphClass: 1
Flags: W
LayerCount: 2
Fore
SplineSet
1289 1220 m 1,0,-1
 1145 1220 l 1,1,-1
 962 0 l 1,2,-1
 713 0 l 1,3,-1
 708 133 l 1,4,5
 646 58 646 58 570 18.5 c 128,-1,6
 494 -21 494 -21 404 -21 c 0,7,8
 213 -21 213 -21 120.5 127 c 128,-1,9
 28 275 28 275 64 511 c 2,10,-1
 67 532 l 2,11,12
 106 797 106 797 238.5 949.5 c 128,-1,13
 371 1102 371 1102 574 1102 c 0,14,15
 653 1102 653 1102 712.5 1065.5 c 128,-1,16
 772 1029 772 1029 813 961 c 1,17,-1
 852 1220 l 1,18,-1
 618 1220 l 1,19,-1
 645 1401 l 1,20,-1
 879 1401 l 1,21,-1
 903 1560 l 1,22,-1
 1196 1560 l 1,23,-1
 1172 1401 l 1,24,-1
 1316 1401 l 1,25,-1
 1289 1220 l 1,0,-1
355 511 m 2,26,27
 332 364 332 364 368 285 c 128,-1,28
 404 206 404 206 513 206 c 0,29,30
 575 206 575 206 626.5 232.5 c 128,-1,31
 678 259 678 259 715 309 c 1,32,-1
 784 767 l 1,33,34
 762 818 762 818 719.5 846.5 c 128,-1,35
 677 875 677 875 615 875 c 0,36,37
 513 875 513 875 446.5 778.5 c 128,-1,38
 380 682 380 682 358 532 c 2,39,-1
 355 511 l 2,26,27
EndSplineSet
Validated: 33
Substitution2: "'smcp' Lowercase to Small Capitals lookup 0 subtable" Dcroat.smcp
EndChar

StartChar: Hbar
Encoding: 294 294 232
Width: 1445
GlyphClass: 1
Flags: W
LayerCount: 2
Fore
SplineSet
1418 1199 m 1,0,-1
 1538 1199 l 1,1,-1
 1512 1028 l 1,2,-1
 1393 1028 l 1,3,-1
 1239 0 l 1,4,-1
 947 0 l 1,5,-1
 1037 605 l 1,6,-1
 444 605 l 1,7,-1
 354 0 l 1,8,-1
 62 0 l 1,9,-1
 216 1028 l 1,10,-1
 90 1028 l 1,11,-1
 116 1199 l 1,12,-1
 241 1199 l 1,13,-1
 280 1456 l 1,14,-1
 572 1456 l 1,15,-1
 533 1199 l 1,16,-1
 1126 1199 l 1,17,-1
 1165 1456 l 1,18,-1
 1457 1456 l 1,19,-1
 1418 1199 l 1,0,-1
478 830 m 1,20,-1
 1071 830 l 1,21,-1
 1100 1028 l 1,22,-1
 508 1028 l 1,23,-1
 478 830 l 1,20,-1
EndSplineSet
Validated: 1
EndChar

StartChar: hbar
Encoding: 295 295 233
Width: 1156
GlyphClass: 1
Flags: W
LayerCount: 2
Fore
SplineSet
761 1217 m 1,0,-1
 499 1217 l 1,1,-1
 459 951 l 1,2,3
 522 1023 522 1023 601.5 1062.5 c 128,-1,4
 681 1102 681 1102 771 1102 c 0,5,6
 934 1102 934 1102 1016.5 988.5 c 128,-1,7
 1099 875 1099 875 1064 642 c 2,8,-1
 968 0 l 1,9,-1
 676 0 l 1,10,-1
 773 644 l 2,11,12
 792 775 792 775 759.5 825 c 128,-1,13
 727 875 727 875 645 875 c 0,14,15
 579 875 579 875 526.5 852 c 128,-1,16
 474 829 474 829 435 787 c 1,17,-1
 317 0 l 1,18,-1
 25 0 l 1,19,-1
 207 1217 l 1,20,-1
 90 1217 l 1,21,-1
 117 1398 l 1,22,-1
 234 1398 l 1,23,-1
 259 1560 l 1,24,-1
 551 1560 l 1,25,-1
 526 1398 l 1,26,-1
 788 1398 l 1,27,-1
 761 1217 l 1,0,-1
EndSplineSet
Validated: 33
EndChar

StartChar: dotlessi
Encoding: 305 305 243
Width: 562
GlyphClass: 1
Flags: W
LayerCount: 2
Fore
SplineSet
345 0 m 1,0,-1
 53 0 l 1,1,-1
 215 1082 l 1,2,-1
 507 1082 l 1,3,-1
 345 0 l 1,0,-1
EndSplineSet
Validated: 1
EndChar

StartChar: kgreenlandic
Encoding: 312 312 250
Width: 1210
GlyphClass: 1
Flags: W
LayerCount: 2
Fore
SplineSet
517 405 m 1,0,-1
 401 405 l 1,1,-1
 341 0 l 1,2,-1
 49 0 l 1,3,-1
 211 1082 l 1,4,-1
 503 1082 l 1,5,-1
 441 670 l 1,6,-1
 529 670 l 1,7,-1
 869 1082 l 1,8,-1
 1230 1082 l 1,9,-1
 1232 1077 l 1,10,-1
 777 575 l 1,11,-1
 1092 0 l 1,12,-1
 718 0 l 1,13,-1
 517 405 l 1,0,-1
EndSplineSet
Validated: 1
EndChar

StartChar: Lslash
Encoding: 321 321 259
Width: 1040
GlyphClass: 1
Flags: W
LayerCount: 2
Fore
SplineSet
471 884 m 1,0,-1
 725 954 l 1,1,-1
 696 759 l 1,2,-1
 442 689 l 1,3,-1
 372 224 l 1,4,-1
 1025 224 l 1,5,-1
 991 0 l 1,6,-1
 47 0 l 1,7,-1
 137 605 l 1,8,-1
 18 572 l 1,9,-1
 47 767 l 1,10,-1
 166 800 l 1,11,-1
 265 1456 l 1,12,-1
 557 1456 l 1,13,-1
 471 884 l 1,0,-1
EndSplineSet
Validated: 1
EndChar

StartChar: lslash
Encoding: 322 322 260
Width: 594
GlyphClass: 1
Flags: W
LayerCount: 2
Fore
SplineSet
495 907 m 1,0,-1
 643 954 l 1,1,-1
 614 759 l 1,2,-1
 466 712 l 1,3,-1
 359 0 l 1,4,-1
 67 0 l 1,5,-1
 159 615 l 1,6,-1
 21 572 l 1,7,-1
 50 767 l 1,8,-1
 189 811 l 1,9,-1
 301 1560 l 1,10,-1
 593 1560 l 1,11,-1
 495 907 l 1,0,-1
EndSplineSet
Validated: 1
EndChar

StartChar: Eng
Encoding: 330 330 268
Width: 1438
GlyphClass: 1
Flags: W
LayerCount: 2
Fore
SplineSet
1446 1456 m 1,0,-1
 1222 -40 l 2,1,2
 1192 -238 1192 -238 1077.5 -337.5 c 128,-1,3
 963 -437 963 -437 781 -437 c 0,4,5
 742 -437 742 -437 708 -433 c 128,-1,6
 674 -429 674 -429 639 -420 c 1,7,-1
 686 -199 l 1,8,9
 708 -205 708 -205 732.5 -208.5 c 128,-1,10
 757 -212 757 -212 784 -212 c 0,11,12
 839 -212 839 -212 878.5 -167 c 128,-1,13
 918 -122 918 -122 931 -40 c 2,14,-1
 937 0 l 1,15,-1
 496 982 l 1,16,-1
 490 981 l 1,17,-1
 344 0 l 1,18,-1
 51 0 l 1,19,-1
 269 1456 l 1,20,-1
 562 1456 l 1,21,-1
 1002 475 l 1,22,-1
 1008 476 l 1,23,-1
 1155 1456 l 1,24,-1
 1446 1456 l 1,0,-1
EndSplineSet
Validated: 1
EndChar

StartChar: eng
Encoding: 331 331 269
Width: 1156
GlyphClass: 1
Flags: W
LayerCount: 2
Fore
SplineSet
452 936 m 1,0,1
 517 1015 517 1015 602 1058.5 c 128,-1,2
 687 1102 687 1102 785 1102 c 0,3,4
 943 1102 943 1102 1022 995 c 128,-1,5
 1101 888 1101 888 1067 663 c 2,6,-1
 962 -40 l 2,7,8
 932 -238 932 -238 817 -337.5 c 128,-1,9
 702 -437 702 -437 520 -437 c 0,10,11
 481 -437 481 -437 447.5 -433 c 128,-1,12
 414 -429 414 -429 379 -420 c 1,13,-1
 427 -196 l 1,14,15
 447 -201 447 -201 471.5 -204.5 c 128,-1,16
 496 -208 496 -208 524 -208 c 0,17,18
 579 -208 579 -208 617.5 -164.5 c 128,-1,19
 656 -121 656 -121 669 -40 c 2,20,-1
 774 662 l 2,21,22
 792 782 792 782 759.5 828.5 c 128,-1,23
 727 875 727 875 644 875 c 0,24,25
 581 875 581 875 528 850.5 c 128,-1,26
 475 826 475 826 436 782 c 1,27,-1
 319 0 l 1,28,-1
 27 0 l 1,29,-1
 189 1082 l 1,30,-1
 461 1082 l 1,31,-1
 452 936 l 1,0,1
EndSplineSet
Validated: 33
EndChar

StartChar: OE
Encoding: 338 338 276
Width: 1984
GlyphClass: 1
Flags: W
LayerCount: 2
Fore
SplineSet
1723 0 m 1,0,-1
 911 0 l 1,1,2
 819 -10 819 -10 753 -15.5 c 128,-1,3
 687 -21 687 -21 620 -21 c 0,4,5
 360 -21 360 -21 211.5 146.5 c 128,-1,6
 63 314 63 314 103 576 c 2,7,-1
 149 880 l 2,8,9
 190 1155 190 1155 380 1316 c 128,-1,10
 570 1477 570 1477 843 1477 c 0,11,12
 909 1477 909 1477 981.5 1471 c 128,-1,13
 1054 1465 1054 1465 1129 1456 c 1,14,-1
 1939 1456 l 1,15,-1
 1906 1231 l 1,16,-1
 1265 1231 l 1,17,-1
 1210 865 l 1,18,-1
 1751 865 l 1,19,-1
 1717 640 l 1,20,-1
 1177 640 l 1,21,-1
 1114 224 l 1,22,-1
 1757 224 l 1,23,-1
 1723 0 l 1,0,-1
654 204 m 0,24,25
 693 204 693 204 735 206.5 c 128,-1,26
 777 209 777 209 821 214 c 1,27,-1
 975 1242 l 1,28,29
 932 1246 932 1246 891 1249 c 128,-1,30
 850 1252 850 1252 809 1252 c 0,31,32
 667 1252 667 1252 566.5 1156.5 c 128,-1,33
 466 1061 466 1061 440 882 c 2,34,-1
 394 576 l 2,35,36
 366 387 366 387 435 295.5 c 128,-1,37
 504 204 504 204 654 204 c 0,24,25
EndSplineSet
Validated: 33
EndChar

StartChar: oe
Encoding: 339 339 277
Width: 1848
GlyphClass: 1
Flags: W
LayerCount: 2
Fore
SplineSet
1278 -21 m 0,0,1
 1155 -21 1155 -21 1062 23 c 128,-1,2
 969 67 969 67 913 148 c 1,3,4
 835 66 835 66 729 22.5 c 128,-1,5
 623 -21 623 -21 495 -21 c 0,6,7
 264 -21 264 -21 147 134.5 c 128,-1,8
 30 290 30 290 67 530 c 2,9,-1
 70 551 l 2,10,11
 107 802 107 802 263.5 952 c 128,-1,12
 420 1102 420 1102 661 1102 c 0,13,14
 780 1102 780 1102 871.5 1057 c 128,-1,15
 963 1012 963 1012 1020 931 c 1,16,17
 1096 1014 1096 1014 1199 1058 c 128,-1,18
 1302 1102 1302 1102 1427 1102 c 0,19,20
 1637 1102 1637 1102 1737.5 967 c 128,-1,21
 1838 832 1838 832 1804 609 c 2,22,-1
 1782 458 l 1,23,-1
 1136 458 l 1,24,-1
 1134 453 l 1,25,26
 1122 338 1122 338 1172 270.5 c 128,-1,27
 1222 203 1222 203 1342 203 c 0,28,29
 1436 203 1436 203 1511 223.5 c 128,-1,30
 1586 244 1586 244 1663 284 c 1,31,-1
 1715 104 l 1,32,33
 1641 51 1641 51 1525 15 c 128,-1,34
 1409 -21 1409 -21 1278 -21 c 0,0,1
358 530 m 2,35,36
 334 377 334 377 373 290 c 128,-1,37
 412 203 412 203 528 203 c 0,38,39
 636 203 636 203 705 294 c 128,-1,40
 774 385 774 385 796 530 c 2,41,-1
 799 551 l 2,42,43
 820 700 820 700 781.5 788.5 c 128,-1,44
 743 877 743 877 628 877 c 0,45,46
 519 877 519 877 450 784.5 c 128,-1,47
 381 692 381 692 361 551 c 2,48,-1
 358 530 l 2,35,36
1394 877 m 0,49,50
 1310 877 1310 877 1252.5 816 c 128,-1,51
 1195 755 1195 755 1169 657 c 1,52,-1
 1171 651 l 1,53,-1
 1525 651 l 1,54,-1
 1528 673 l 2,55,56
 1543 771 1543 771 1512.5 824 c 128,-1,57
 1482 877 1482 877 1394 877 c 0,49,50
EndSplineSet
Validated: 33
EndChar

StartChar: Tbar
Encoding: 358 358 296
Width: 1175
GlyphClass: 1
Flags: W
LayerCount: 2
Fore
SplineSet
964 757 m 1,0,-1
 766 757 l 1,1,-1
 653 0 l 1,2,-1
 361 0 l 1,3,-1
 474 757 l 1,4,-1
 293 757 l 1,5,-1
 320 938 l 1,6,-1
 501 938 l 1,7,-1
 545 1231 l 1,8,-1
 136 1231 l 1,9,-1
 169 1456 l 1,10,-1
 1287 1456 l 1,11,-1
 1254 1231 l 1,12,-1
 837 1231 l 1,13,-1
 793 938 l 1,14,-1
 991 938 l 1,15,-1
 964 757 l 1,0,-1
EndSplineSet
Validated: 1
Substitution2: "'smcp' Lowercase to Small Capitals lookup 0 subtable" Tbar.smcp
EndChar

StartChar: tbar
Encoding: 359 359 297
Width: 713
GlyphClass: 1
Flags: W
LayerCount: 2
Fore
SplineSet
584 1347 m 1,0,-1
 544 1082 l 1,1,-1
 727 1082 l 1,2,-1
 697 877 l 1,3,-1
 513 877 l 1,4,-1
 490 720 l 1,5,-1
 689 720 l 1,6,-1
 662 539 l 1,7,-1
 463 539 l 1,8,-1
 431 326 l 2,9,10
 421 260 421 260 443 234.5 c 128,-1,11
 465 209 465 209 509 209 c 0,12,13
 531 209 531 209 549.5 211.5 c 128,-1,14
 568 214 568 214 590 220 c 1,15,-1
 582 9 l 1,16,17
 536 -6 536 -6 493.5 -13.5 c 128,-1,18
 451 -21 451 -21 402 -21 c 0,19,20
 256 -21 256 -21 184.5 63 c 128,-1,21
 113 147 113 147 140 325 c 2,22,-1
 172 539 l 1,23,-1
 -9 539 l 1,24,-1
 18 720 l 1,25,-1
 199 720 l 1,26,-1
 222 877 l 1,27,-1
 65 877 l 1,28,-1
 95 1082 l 1,29,-1
 253 1082 l 1,30,-1
 293 1347 l 1,31,-1
 584 1347 l 1,0,-1
EndSplineSet
Validated: 33
Substitution2: "'smcp' Lowercase to Small Capitals lookup 0 subtable" Tbar.smcp
EndChar

StartChar: longs
Encoding: 383 383 321
Width: 532
GlyphClass: 1
Flags: W
LayerCount: 2
Fore
SplineSet
36 0 m 1,0,-1
 216 1202 l 2,1,2
 244 1391 244 1391 362 1486 c 128,-1,3
 480 1581 480 1581 673 1581 c 0,4,5
 708 1581 708 1581 746.5 1575 c 128,-1,6
 785 1569 785 1569 830 1560 c 1,7,-1
 773 1345 l 1,8,9
 748 1350 748 1350 727 1353 c 128,-1,10
 706 1356 706 1356 677 1356 c 0,11,12
 609 1356 609 1356 563.5 1315 c 128,-1,13
 518 1274 518 1274 507 1202 c 2,14,-1
 327 0 l 1,15,-1
 36 0 l 1,0,-1
EndSplineSet
Validated: 1
EndChar

StartChar: florin
Encoding: 402 402 322
Width: 740
GlyphClass: 1
Flags: W
LayerCount: 2
Fore
SplineSet
731 877 m 1,0,-1
 524 877 l 1,1,-1
 394 -40 l 2,2,3
 366 -238 366 -238 252.5 -337.5 c 128,-1,4
 139 -437 139 -437 -43 -437 c 0,5,6
 -81 -437 -81 -437 -115 -433 c 128,-1,7
 -149 -429 -149 -429 -184 -420 c 1,8,-1
 -138 -199 l 1,9,10
 -116 -205 -116 -205 -92 -208.5 c 128,-1,11
 -68 -212 -68 -212 -42 -212 c 0,12,13
 13 -212 13 -212 51.5 -166.5 c 128,-1,14
 90 -121 90 -121 102 -40 c 2,15,-1
 231 877 l 1,16,-1
 71 877 l 1,17,-1
 99 1082 l 1,18,-1
 259 1082 l 1,19,-1
 276 1202 l 2,20,21
 302 1391 302 1391 419.5 1486 c 128,-1,22
 537 1581 537 1581 730 1581 c 0,23,24
 765 1581 765 1581 803.5 1575 c 128,-1,25
 842 1569 842 1569 887 1560 c 1,26,-1
 832 1343 l 1,27,28
 809 1347 809 1347 786 1350 c 128,-1,29
 763 1353 763 1353 734 1353 c 0,30,31
 666 1353 666 1353 622.5 1313.5 c 128,-1,32
 579 1274 579 1274 569 1202 c 2,33,-1
 552 1082 l 1,34,-1
 759 1082 l 1,35,-1
 731 877 l 1,0,-1
EndSplineSet
Validated: 1
EndChar

StartChar: Ohorn
Encoding: 416 416 323
Width: 1435
GlyphClass: 1
Flags: W
LayerCount: 2
Fore
SplineSet
1317 597 m 2,0,1
 1274 318 1274 318 1081.5 148.5 c 128,-1,2
 889 -21 889 -21 615 -21 c 0,3,4
 356 -21 356 -21 209 155.5 c 128,-1,5
 62 332 62 332 102 597 c 2,6,-1
 141 859 l 2,7,8
 182 1136 182 1136 373.5 1306.5 c 128,-1,9
 565 1477 565 1477 838 1477 c 0,10,11
 966 1477 966 1477 1071 1430.5 c 128,-1,12
 1176 1384 1176 1384 1247 1300 c 1,13,14
 1353 1327 1353 1327 1421.5 1409 c 128,-1,15
 1490 1491 1490 1491 1509 1617 c 1,16,-1
 1725 1617 l 1,17,18
 1694 1418 1694 1418 1596.5 1293 c 128,-1,19
 1499 1168 1499 1168 1342 1118 c 1,20,21
 1358 1058 1358 1058 1362 992.5 c 128,-1,22
 1366 927 1366 927 1356 859 c 2,23,-1
 1317 597 l 2,0,1
1065 861 m 2,24,25
 1091 1037 1091 1037 1022.5 1143 c 128,-1,26
 954 1249 954 1249 803 1249 c 0,27,28
 660 1249 660 1249 558.5 1139 c 128,-1,29
 457 1029 457 1029 432 861 c 2,30,-1
 393 597 l 2,31,32
 366 418 366 418 432 312 c 128,-1,33
 498 206 498 206 649 206 c 0,34,35
 793 206 793 206 896 316 c 128,-1,36
 999 426 999 426 1026 597 c 2,37,-1
 1065 861 l 2,24,25
EndSplineSet
Validated: 33
EndChar

StartChar: ohorn
Encoding: 417 417 324
Width: 1191
GlyphClass: 1
Flags: W
LayerCount: 2
Fore
SplineSet
70 551 m 2,0,1
 107 802 107 802 263.5 952 c 128,-1,2
 420 1102 420 1102 661 1102 c 0,3,4
 768 1102 768 1102 853 1065.5 c 128,-1,5
 938 1029 938 1029 996 963 c 1,6,7
 1058 998 1058 998 1099 1067 c 128,-1,8
 1140 1136 1140 1136 1156 1231 c 1,9,-1
 1367 1231 l 1,10,11
 1343 1079 1343 1079 1268 977.5 c 128,-1,12
 1193 876 1193 876 1071 830 c 1,13,14
 1092 769 1092 769 1097 698.5 c 128,-1,15
 1102 628 1102 628 1091 551 c 2,16,-1
 1088 530 l 2,17,18
 1049 277 1049 277 893 128 c 128,-1,19
 737 -21 737 -21 495 -21 c 0,20,21
 264 -21 264 -21 147 134.5 c 128,-1,22
 30 290 30 290 67 530 c 2,23,-1
 70 551 l 2,0,1
358 530 m 2,24,25
 334 377 334 377 373 290 c 128,-1,26
 412 203 412 203 528 203 c 0,27,28
 636 203 636 203 705 294 c 128,-1,29
 774 385 774 385 796 530 c 2,30,-1
 799 551 l 2,31,32
 820 700 820 700 781.5 788.5 c 128,-1,33
 743 877 743 877 628 877 c 0,34,35
 519 877 519 877 450 784.5 c 128,-1,36
 381 692 381 692 361 551 c 2,37,-1
 358 530 l 2,24,25
EndSplineSet
Validated: 33
EndChar

StartChar: Uhorn
Encoding: 431 431 325
Width: 1460
GlyphClass: 1
Flags: W
LayerCount: 2
Fore
SplineSet
1426 1456 m 1,0,-1
 1399 1277 l 1,1,-1
 1405 1275 l 1,2,3
 1489 1296 1489 1296 1538.5 1381 c 128,-1,4
 1588 1466 1588 1466 1610 1607 c 1,5,-1
 1818 1607 l 1,6,-1
 1820 1602 l 1,7,8
 1788 1366 1788 1366 1678.5 1237 c 128,-1,9
 1569 1108 1569 1108 1370 1081 c 1,10,-1
 1283 503 l 2,11,12
 1245 247 1245 247 1064 113 c 128,-1,13
 883 -21 883 -21 619 -21 c 0,14,15
 370 -21 370 -21 224 119.5 c 128,-1,16
 78 260 78 260 115 503 c 2,17,-1
 258 1456 l 1,18,-1
 551 1456 l 1,19,-1
 408 503 l 2,20,21
 385 352 385 352 451 277.5 c 128,-1,22
 517 203 517 203 652 203 c 0,23,24
 782 203 782 203 875 281 c 128,-1,25
 968 359 968 359 990 503 c 2,26,-1
 1133 1456 l 1,27,-1
 1426 1456 l 1,0,-1
EndSplineSet
Validated: 33
EndChar

StartChar: uhorn
Encoding: 432 432 326
Width: 1166
GlyphClass: 1
Flags: W
LayerCount: 2
Fore
SplineSet
1492 1196 m 1,0,-1
 1494 1190 l 1,1,2
 1470 1008 1470 1008 1371.5 912 c 128,-1,3
 1273 816 1273 816 1087 796 c 1,4,-1
 968 0 l 1,5,-1
 726 0 l 1,6,-1
 719 155 l 1,7,8
 657 69 657 69 573 24 c 128,-1,9
 489 -21 489 -21 386 -21 c 0,10,11
 221 -21 221 -21 139 96 c 128,-1,12
 57 213 57 213 93 455 c 2,13,-1
 187 1082 l 1,14,-1
 478 1082 l 1,15,-1
 384 453 l 2,16,17
 362 306 362 306 392.5 256 c 128,-1,18
 423 206 423 206 505 206 c 0,19,20
 573 206 573 206 627.5 230 c 128,-1,21
 682 254 682 254 721 299 c 1,22,-1
 838 1082 l 1,23,-1
 1130 1082 l 1,24,-1
 1112 960 l 1,25,-1
 1117 957 l 1,26,27
 1199 970 1199 970 1244.5 1029.5 c 128,-1,28
 1290 1089 1290 1089 1306 1196 c 1,29,-1
 1492 1196 l 1,0,-1
EndSplineSet
Validated: 33
EndChar

StartChar: uni0237
Encoding: 567 567 336
Width: 578
GlyphClass: 1
Flags: W
LayerCount: 2
Fore
SplineSet
523 1082 m 1,0,-1
 355 -40 l 2,1,2
 325 -238 325 -238 210.5 -337.5 c 128,-1,3
 96 -437 96 -437 -86 -437 c 0,4,5
 -124 -437 -124 -437 -157.5 -433 c 128,-1,6
 -191 -429 -191 -429 -227 -420 c 1,7,-1
 -179 -199 l 1,8,9
 -157 -205 -157 -205 -132.5 -208.5 c 128,-1,10
 -108 -212 -108 -212 -83 -212 c 0,11,12
 -27 -212 -27 -212 12 -167 c 128,-1,13
 51 -122 51 -122 64 -40 c 2,14,-1
 232 1082 l 1,15,-1
 523 1082 l 1,0,-1
EndSplineSet
Validated: 1
EndChar

StartChar: circumflex
Encoding: 710 710 338
Width: 1016
GlyphClass: 1
Flags: W
LayerCount: 2
Fore
SplineSet
986 1275 m 1,0,-1
 983 1252 l 1,1,-1
 751 1252 l 1,2,-1
 631 1385 l 1,3,-1
 472 1252 l 1,4,-1
 245 1252 l 1,5,-1
 249 1278 l 1,6,-1
 567 1518 l 1,7,-1
 736 1518 l 1,8,-1
 986 1275 l 1,0,-1
EndSplineSet
Validated: 1
EndChar

StartChar: caron
Encoding: 711 711 339
Width: 965
GlyphClass: 1
Flags: W
LayerCount: 2
Fore
SplineSet
609 1397 m 1,0,-1
 745 1524 l 1,1,-1
 1009 1524 l 1,2,-1
 1006 1507 l 1,3,-1
 687 1252 l 1,4,-1
 488 1252 l 1,5,-1
 245 1508 l 1,6,-1
 248 1524 l 1,7,-1
 512 1524 l 1,8,-1
 609 1397 l 1,0,-1
EndSplineSet
Validated: 1
EndChar

StartChar: breve
Encoding: 728 728 340
Width: 910
GlyphClass: 1
Flags: W
LayerCount: 2
Fore
SplineSet
920 1456 m 1,0,-1
 921 1450 l 1,1,2
 907 1318 907 1318 803.5 1240 c 128,-1,3
 700 1162 700 1162 541 1162 c 0,4,5
 388 1162 388 1162 302.5 1243 c 128,-1,6
 217 1324 217 1324 240 1450 c 1,7,-1
 242 1456 l 1,8,-1
 456 1456 l 1,9,10
 447 1401 447 1401 473 1368 c 128,-1,11
 499 1335 499 1335 565 1335 c 0,12,13
 626 1335 626 1335 662 1369.5 c 128,-1,14
 698 1404 698 1404 706 1456 c 1,15,-1
 920 1456 l 1,0,-1
EndSplineSet
Validated: 33
EndChar

StartChar: dotaccent
Encoding: 729 729 341
Width: 629
GlyphClass: 1
Flags: W
LayerCount: 2
Fore
SplineSet
569 1227 m 1,0,-1
 242 1227 l 1,1,-1
 278 1468 l 1,2,-1
 605 1468 l 1,3,-1
 569 1227 l 1,0,-1
EndSplineSet
Validated: 1
EndChar

StartChar: ring
Encoding: 730 730 342
Width: 682
GlyphClass: 1
Flags: W
LayerCount: 2
Fore
SplineSet
270 1305 m 0,0,1
 281 1380 281 1380 342 1428.5 c 128,-1,2
 403 1477 403 1477 484 1477 c 0,3,4
 559 1477 559 1477 606 1427 c 128,-1,5
 653 1377 653 1377 643 1305 c 0,6,7
 631 1228 631 1228 571 1182 c 128,-1,8
 511 1136 511 1136 432 1136 c 0,9,10
 355 1136 355 1136 306.5 1184 c 128,-1,11
 258 1232 258 1232 270 1305 c 0,0,1
386 1305 m 0,12,13
 380 1273 380 1273 397.5 1253 c 128,-1,14
 415 1233 415 1233 447 1233 c 0,15,16
 475 1233 475 1233 498 1253 c 128,-1,17
 521 1273 521 1273 527 1305 c 0,18,19
 532 1338 532 1338 515.5 1358 c 128,-1,20
 499 1378 499 1378 469 1378 c 256,21,22
 439 1378 439 1378 414.5 1357 c 128,-1,23
 390 1336 390 1336 386 1305 c 0,12,13
EndSplineSet
Validated: 33
EndChar

StartChar: ogonek
Encoding: 731 731 343
Width: 618
GlyphClass: 1
Flags: W
LayerCount: 2
Fore
SplineSet
325 0 m 1,0,1
 264 -52 264 -52 233 -89.5 c 128,-1,2
 202 -127 202 -127 195 -176 c 0,3,4
 190 -204 190 -204 203.5 -225 c 128,-1,5
 217 -246 217 -246 270 -246 c 0,6,7
 297 -246 297 -246 320.5 -240 c 128,-1,8
 344 -234 344 -234 367 -226 c 1,9,-1
 379 -380 l 1,10,11
 341 -399 341 -399 294 -411.5 c 128,-1,12
 247 -424 247 -424 186 -424 c 0,13,14
 82 -424 82 -424 19 -367 c 128,-1,15
 -44 -310 -44 -310 -29 -210 c 0,16,17
 -16 -130 -16 -130 39.5 -62.5 c 128,-1,18
 95 5 95 5 202 60 c 1,19,-1
 325 0 l 1,0,1
EndSplineSet
Validated: 33
EndChar

StartChar: tilde
Encoding: 732 732 344
Width: 986
GlyphClass: 1
Flags: W
LayerCount: 2
Fore
SplineSet
1001 1484 m 1,0,1
 987 1385 987 1385 918.5 1319 c 128,-1,2
 850 1253 850 1253 758 1253 c 0,3,4
 692 1253 692 1253 608 1296.5 c 128,-1,5
 524 1340 524 1340 472 1340 c 0,6,7
 437 1340 437 1340 407.5 1307.5 c 128,-1,8
 378 1275 378 1275 372 1230 c 1,9,-1
 222 1272 l 1,10,11
 235 1369 235 1369 304 1437 c 128,-1,12
 373 1505 373 1505 464 1505 c 0,13,14
 517 1505 517 1505 608 1461.5 c 128,-1,15
 699 1418 699 1418 752 1418 c 0,16,17
 785 1418 785 1418 815.5 1450.5 c 128,-1,18
 846 1483 846 1483 853 1529 c 1,19,-1
 1001 1484 l 1,0,1
EndSplineSet
Validated: 1
EndChar

StartChar: hungarumlaut
Encoding: 733 733 345
Width: 876
GlyphClass: 1
Flags: W
LayerCount: 2
Fore
SplineSet
875 1518 m 1,0,-1
 1153 1518 l 1,1,-1
 1155 1512 l 1,2,-1
 831 1252 l 1,3,-1
 598 1252 l 1,4,-1
 596 1258 l 1,5,-1
 875 1518 l 1,0,-1
487 1518 m 1,6,-1
 761 1518 l 1,7,-1
 763 1512 l 1,8,-1
 484 1252 l 1,9,-1
 256 1252 l 1,10,-1
 254 1257 l 1,11,-1
 487 1518 l 1,6,-1
EndSplineSet
Validated: 1
EndChar

StartChar: uni02F3
Encoding: 755 755 346
Width: 664
GlyphClass: 1
Flags: W
LayerCount: 2
Fore
SplineSet
44 -228 m 0,0,1
 55 -154 55 -154 114.5 -108.5 c 128,-1,2
 174 -63 174 -63 253 -63 c 0,3,4
 326 -63 326 -63 372 -110.5 c 128,-1,5
 418 -158 418 -158 408 -228 c 0,6,7
 396 -301 396 -301 338.5 -345.5 c 128,-1,8
 281 -390 281 -390 204 -390 c 0,9,10
 128 -390 128 -390 80.5 -343.5 c 128,-1,11
 33 -297 33 -297 44 -228 c 0,0,1
158 -228 m 0,12,13
 153 -258 153 -258 170 -277 c 128,-1,14
 187 -296 187 -296 218 -296 c 0,15,16
 246 -296 246 -296 267.5 -276.5 c 128,-1,17
 289 -257 289 -257 294 -228 c 0,18,19
 298 -195 298 -195 282.5 -176 c 128,-1,20
 267 -157 267 -157 238 -157 c 0,21,22
 208 -157 208 -157 185 -177 c 128,-1,23
 162 -197 162 -197 158 -228 c 0,12,13
EndSplineSet
Validated: 33
EndChar

StartChar: hook
Encoding: 777 777 350
Width: 0
GlyphClass: 1
Flags: W
LayerCount: 2
Fore
SplineSet
-609 1264 m 1,0,-1
 -605 1401 l 1,1,2
 -529 1404 -529 1404 -495.5 1418.5 c 128,-1,3
 -462 1433 -462 1433 -457 1467 c 0,4,5
 -451 1504 -451 1504 -487.5 1520 c 128,-1,6
 -524 1536 -524 1536 -589 1536 c 1,7,-1
 -562 1669 l 1,8,9
 -375 1669 -375 1669 -285 1618.5 c 128,-1,10
 -195 1568 -195 1568 -210 1474 c 0,11,12
 -219 1410 -219 1410 -268 1374 c 128,-1,13
 -317 1338 -317 1338 -382 1329 c 1,14,-1
 -391 1264 l 1,15,-1
 -609 1264 l 1,0,-1
EndSplineSet
Validated: 33
EndChar

StartChar: uni030F
Encoding: 783 783 351
Width: 0
GlyphClass: 1
Flags: W
LayerCount: 2
Fore
SplineSet
-402 1252 m 1,0,-1
 -642 1252 l 1,1,-1
 -888 1512 l 1,2,-1
 -885 1518 l 1,3,-1
 -607 1518 l 1,4,-1
 -402 1252 l 1,0,-1
-60 1252 m 1,5,-1
 -296 1252 l 1,6,-1
 -501 1518 l 1,7,-1
 -219 1518 l 1,8,-1
 -60 1252 l 1,5,-1
EndSplineSet
Validated: 1
EndChar

StartChar: dotbelow
Encoding: 803 803 352
Width: 0
GlyphClass: 1
Flags: W
LayerCount: 2
Fore
SplineSet
-568 -354 m 1,0,-1
 -895 -354 l 1,1,-1
 -859 -113 l 1,2,-1
 -532 -113 l 1,3,-1
 -568 -354 l 1,0,-1
EndSplineSet
Validated: 1
EndChar

StartChar: tonos
Encoding: 900 900 353
Width: 695
GlyphClass: 1
Flags: W
LayerCount: 2
Fore
SplineSet
455 1553 m 1,0,-1
 726 1553 l 1,1,-1
 728 1548 l 1,2,-1
 494 1270 l 1,3,-1
 352 1270 l 1,4,-1
 455 1553 l 1,0,-1
EndSplineSet
Validated: 1
EndChar

StartChar: dieresistonos
Encoding: 901 901 354
Width: 1125
GlyphClass: 1
Flags: W
LayerCount: 2
Fore
SplineSet
1063 1252 m 1,0,-1
 809 1252 l 1,1,-1
 839 1456 l 1,2,-1
 1093 1456 l 1,3,-1
 1063 1252 l 1,0,-1
514 1252 m 1,4,-1
 261 1252 l 1,5,-1
 291 1456 l 1,6,-1
 544 1456 l 1,7,-1
 514 1252 l 1,4,-1
704 1757 m 1,8,-1
 986 1757 l 1,9,-1
 768 1478 l 1,10,-1
 620 1478 l 1,11,-1
 704 1757 l 1,8,-1
EndSplineSet
Validated: 1
EndChar

StartChar: Gamma
Encoding: 915 915 366
Width: 1137
GlyphClass: 1
Flags: W
LayerCount: 2
Fore
SplineSet
1186 1231 m 1,0,-1
 529 1231 l 1,1,-1
 344 0 l 1,2,-1
 52 0 l 1,3,-1
 270 1456 l 1,4,-1
 1219 1456 l 1,5,-1
 1186 1231 l 1,0,-1
EndSplineSet
Validated: 1
EndChar

StartChar: Delta
Encoding: 916 916 367
AltUni2: 002206.ffffffff.0 002206.ffffffff.0
Width: 1494
GlyphClass: 1
Flags: W
LayerCount: 2
Fore
SplineSet
743 1456 m 1,0,-1
 1043 1456 l 1,1,-1
 1397 0 l 1,2,-1
 -58 0 l 1,3,-1
 743 1456 l 1,0,-1
366 224 m 1,4,-1
 1042 224 l 1,5,-1
 843 1109 l 1,6,-1
 837 1109 l 1,7,-1
 366 224 l 1,4,-1
EndSplineSet
Validated: 1
EndChar

StartChar: Theta
Encoding: 920 920 371
Width: 1410
GlyphClass: 1
Flags: W
LayerCount: 2
Fore
SplineSet
912 613 m 1,0,-1
 532 613 l 1,1,-1
 566 837 l 1,2,-1
 946 837 l 1,3,-1
 912 613 l 1,0,-1
1322 597 m 2,4,5
 1279 318 1279 318 1086.5 148.5 c 128,-1,6
 894 -21 894 -21 620 -21 c 0,7,8
 361 -21 361 -21 214 155.5 c 128,-1,9
 67 332 67 332 107 597 c 2,10,-1
 146 859 l 2,11,12
 187 1136 187 1136 378.5 1306.5 c 128,-1,13
 570 1477 570 1477 843 1477 c 0,14,15
 1104 1477 1104 1477 1252 1299.5 c 128,-1,16
 1400 1122 1400 1122 1361 859 c 2,17,-1
 1322 597 l 2,4,5
1070 861 m 2,18,19
 1096 1037 1096 1037 1027.5 1143 c 128,-1,20
 959 1249 959 1249 808 1249 c 0,21,22
 665 1249 665 1249 563.5 1139 c 128,-1,23
 462 1029 462 1029 437 861 c 2,24,-1
 398 597 l 2,25,26
 371 418 371 418 437 312 c 128,-1,27
 503 206 503 206 654 206 c 0,28,29
 798 206 798 206 901 316 c 128,-1,30
 1004 426 1004 426 1031 597 c 2,31,-1
 1070 861 l 2,18,19
EndSplineSet
Validated: 33
EndChar

StartChar: Lambda
Encoding: 923 923 374
Width: 1328
GlyphClass: 1
Flags: W
LayerCount: 2
Fore
SplineSet
757 1135 m 1,0,-1
 751 1136 l 1,1,-1
 245 0 l 1,2,-1
 -61 0 l 1,3,-1
 651 1456 l 1,4,-1
 950 1456 l 1,5,-1
 1226 0 l 1,6,-1
 921 0 l 1,7,-1
 757 1135 l 1,0,-1
EndSplineSet
Validated: 1
EndChar

StartChar: Xi
Encoding: 926 926 377
Width: 1163
GlyphClass: 1
Flags: W
LayerCount: 2
Fore
SplineSet
52 224 m 1,0,-1
 1033 224 l 1,1,-1
 999 0 l 1,2,-1
 18 0 l 1,3,-1
 52 224 l 1,0,-1
257 849 m 1,4,-1
 1013 849 l 1,5,-1
 981 632 l 1,6,-1
 225 632 l 1,7,-1
 257 849 l 1,4,-1
258 1456 m 1,8,-1
 1176 1456 l 1,9,-1
 1143 1231 l 1,10,-1
 225 1231 l 1,11,-1
 258 1456 l 1,8,-1
EndSplineSet
Validated: 1
EndChar

StartChar: Pi
Encoding: 928 928 379
Width: 1444
GlyphClass: 1
Flags: W
LayerCount: 2
Fore
SplineSet
1231 0 m 1,0,-1
 939 0 l 1,1,-1
 1124 1231 l 1,2,-1
 530 1231 l 1,3,-1
 345 0 l 1,4,-1
 53 0 l 1,5,-1
 271 1456 l 1,6,-1
 1449 1456 l 1,7,-1
 1231 0 l 1,0,-1
EndSplineSet
Validated: 1
EndChar

StartChar: Sigma
Encoding: 931 931 381
Width: 1163
GlyphClass: 1
Flags: W
LayerCount: 2
Fore
SplineSet
853 724 m 1,0,-1
 419 230 l 1,1,-1
 421 225 l 1,2,-1
 1059 225 l 1,3,-1
 1025 0 l 1,4,-1
 -8 0 l 1,5,-1
 15 152 l 1,6,-1
 545 733 l 1,7,-1
 188 1305 l 1,8,-1
 210 1456 l 1,9,-1
 1216 1456 l 1,10,-1
 1183 1231 l 1,11,-1
 566 1231 l 1,12,-1
 855 741 l 1,13,-1
 853 724 l 1,0,-1
EndSplineSet
Validated: 1
EndChar

StartChar: Phi
Encoding: 934 934 384
Width: 1507
GlyphClass: 1
Flags: W
LayerCount: 2
Fore
SplineSet
1017 1255 m 1,0,1
 1254 1239 1254 1239 1389.5 1093 c 128,-1,2
 1525 947 1525 947 1492 720 c 0,3,4
 1456 486 1456 486 1283.5 347.5 c 128,-1,5
 1111 209 1111 209 858 195 c 1,6,-1
 829 0 l 1,7,-1
 537 0 l 1,8,-1
 566 195 l 1,9,10
 326 209 326 209 189.5 352 c 128,-1,11
 53 495 53 495 87 718 c 0,12,13
 122 957 122 957 296 1099 c 128,-1,14
 470 1241 470 1241 725 1255 c 1,15,-1
 755 1456 l 1,16,-1
 1047 1456 l 1,17,-1
 1017 1255 l 1,0,1
373 718 m 0,18,19
 353 587 353 587 413.5 517 c 128,-1,20
 474 447 474 447 597 441 c 1,21,-1
 603 442 l 1,22,-1
 688 1006 l 1,23,-1
 682 1009 l 1,24,25
 562 1000 562 1000 476.5 923.5 c 128,-1,26
 391 847 391 847 373 718 c 0,18,19
1205 720 m 0,27,28
 1225 855 1225 855 1166.5 928.5 c 128,-1,29
 1108 1002 1108 1002 986 1009 c 1,30,-1
 980 1007 l 1,31,-1
 895 444 l 1,32,-1
 901 441 l 1,33,34
 1019 450 1019 450 1102 523.5 c 128,-1,35
 1185 597 1185 597 1205 720 c 0,27,28
EndSplineSet
Validated: 33
EndChar

StartChar: Psi
Encoding: 936 936 386
Width: 1483
GlyphClass: 1
Flags: W
LayerCount: 2
Fore
SplineSet
895 582 m 1,0,-1
 900 580 l 1,1,2
 1015 596 1015 596 1090 687.5 c 128,-1,3
 1165 779 1165 779 1190 939 c 2,4,-1
 1267 1456 l 1,5,-1
 1560 1456 l 1,6,-1
 1483 939 l 2,7,8
 1442 668 1442 668 1276.5 517 c 128,-1,9
 1111 366 1111 366 859 343 c 1,10,-1
 808 0 l 1,11,-1
 517 0 l 1,12,-1
 568 342 l 1,13,14
 329 365 329 365 203 522 c 128,-1,15
 77 679 77 679 117 939 c 2,16,-1
 194 1456 l 1,17,-1
 485 1456 l 1,18,-1
 408 939 l 2,19,20
 383 775 383 775 433.5 685 c 128,-1,21
 484 595 484 595 599 579 c 1,22,-1
 604 580 l 1,23,-1
 735 1456 l 1,24,-1
 1026 1456 l 1,25,-1
 895 582 l 1,0,-1
EndSplineSet
Validated: 33
EndChar

StartChar: Omega
Encoding: 937 937 387
AltUni2: 002126.ffffffff.0 002126.ffffffff.0
Width: 1376
GlyphClass: 1
Flags: W
LayerCount: 2
Fore
SplineSet
673 123 m 1,0,-1
 681 178 l 1,1,-1
 689 227 l 1,2,-1
 690 231 l 1,3,4
 787 264 787 264 859 395.5 c 128,-1,5
 931 527 931 527 968 764 c 2,6,-1
 982 858 l 2,7,8
 1011 1056 1011 1056 959 1152.5 c 128,-1,9
 907 1249 907 1249 785 1249 c 0,10,11
 671 1249 671 1249 587 1147.5 c 128,-1,12
 503 1046 503 1046 475 858 c 2,13,-1
 461 764 l 2,14,15
 423 516 423 516 457.5 390 c 128,-1,16
 492 264 492 264 585 231 c 1,17,-1
 576 178 l 1,18,-1
 550 0 l 1,19,-1
 46 0 l 1,20,-1
 80 227 l 1,21,-1
 331 227 l 1,22,23
 222 317 222 317 168 459.5 c 128,-1,24
 114 602 114 602 139 764 c 2,25,-1
 152 856 l 2,26,27
 195 1140 195 1140 378.5 1308.5 c 128,-1,28
 562 1477 562 1477 820 1477 c 0,29,30
 1066 1477 1066 1477 1204.5 1301.5 c 128,-1,31
 1343 1126 1343 1126 1303 856 c 2,32,-1
 1290 764 l 2,33,34
 1264 597 1264 597 1169.5 456 c 128,-1,35
 1075 315 1075 315 942 227 c 1,36,-1
 1194 227 l 1,37,-1
 1160 0 l 1,38,-1
 655 0 l 1,39,-1
 673 123 l 1,0,-1
EndSplineSet
Validated: 33
EndChar

StartChar: alpha
Encoding: 945 945 395
Width: 1154
GlyphClass: 1
Flags: W
LayerCount: 2
Fore
SplineSet
1111 1081 m 1,0,-1
 998 325 l 2,1,2
 988 259 988 259 1002 234.5 c 128,-1,3
 1016 210 1016 210 1052 210 c 0,4,5
 1064 210 1064 210 1073.5 211.5 c 128,-1,6
 1083 213 1083 213 1094 217 c 1,7,-1
 1087 7 l 1,8,9
 1050 -9 1050 -9 1017 -15 c 128,-1,10
 984 -21 984 -21 942 -21 c 0,11,12
 853 -21 853 -21 793 18 c 128,-1,13
 733 57 733 57 711 135 c 1,14,15
 652 59 652 59 577.5 19 c 128,-1,16
 503 -21 503 -21 411 -21 c 0,17,18
 219 -21 219 -21 126.5 127 c 128,-1,19
 34 275 34 275 70 511 c 2,20,-1
 73 532 l 2,21,22
 112 798 112 798 245 950 c 128,-1,23
 378 1102 378 1102 581 1102 c 0,24,25
 665 1102 665 1102 726 1060.5 c 128,-1,26
 787 1019 787 1019 825 943 c 1,27,-1
 893 1081 l 1,28,-1
 1111 1081 l 1,0,-1
362 511 m 2,29,30
 339 363 339 363 374.5 283 c 128,-1,31
 410 203 410 203 518 203 c 0,32,33
 575 203 575 203 621.5 227 c 128,-1,34
 668 251 668 251 702 296 c 1,35,36
 703 306 703 306 703.5 312 c 128,-1,37
 704 318 704 318 706 325 c 2,38,-1
 774 784 l 1,39,40
 754 828 754 828 716.5 852.5 c 128,-1,41
 679 877 679 877 622 877 c 0,42,43
 520 877 520 877 453.5 780 c 128,-1,44
 387 683 387 683 365 532 c 2,45,-1
 362 511 l 2,29,30
EndSplineSet
Validated: 33
EndChar

StartChar: beta
Encoding: 946 946 396
Width: 1233
GlyphClass: 1
Flags: W
LayerCount: 2
Fore
SplineSet
769 1477 m 256,0,1
 976 1477 976 1477 1091 1370.5 c 128,-1,2
 1206 1264 1206 1264 1179 1082 c 0,3,4
 1163 979 1163 979 1100.5 898 c 128,-1,5
 1038 817 1038 817 941 771 c 1,6,7
 1054 726 1054 726 1107.5 633.5 c 128,-1,8
 1161 541 1161 541 1142 415 c 0,9,10
 1109 200 1109 200 975 89.5 c 128,-1,11
 841 -21 841 -21 631 -21 c 0,12,13
 560 -21 560 -21 489 -1.5 c 128,-1,14
 418 18 418 18 362 57 c 1,15,-1
 293 -403 l 1,16,-1
 2 -403 l 1,17,-1
 218 1037 l 2,18,19
 247 1237 247 1237 404.5 1357 c 128,-1,20
 562 1477 562 1477 769 1477 c 256,0,1
576 653 m 1,21,-1
 585 716 l 1,22,-1
 599 806 l 1,23,-1
 607 859 l 1,24,-1
 672 859 l 2,25,26
 763 859 763 859 816 912 c 128,-1,27
 869 965 869 965 884 1063 c 0,28,29
 896 1144 896 1144 858.5 1198 c 128,-1,30
 821 1252 821 1252 735 1252 c 0,31,32
 653 1252 653 1252 587.5 1192 c 128,-1,33
 522 1132 522 1132 509 1037 c 2,34,-1
 392 261 l 1,35,36
 426 232 426 232 478.5 217.5 c 128,-1,37
 531 203 531 203 598 203 c 0,38,39
 695 203 695 203 766 264 c 128,-1,40
 837 325 837 325 851 418 c 0,41,42
 867 530 867 530 821 591.5 c 128,-1,43
 775 653 775 653 672 653 c 2,44,-1
 576 653 l 1,21,-1
EndSplineSet
Validated: 33
EndChar

StartChar: gamma
Encoding: 947 947 397
Width: 1046
GlyphClass: 1
Flags: W
LayerCount: 2
Fore
SplineSet
808 1082 m 1,0,-1
 1113 1082 l 1,1,-1
 591 16 l 1,2,-1
 526 -417 l 1,3,-1
 234 -417 l 1,4,-1
 300 21 l 1,5,-1
 98 1082 l 1,6,-1
 403 1082 l 1,7,-1
 483 403 l 1,8,-1
 487 304 l 1,9,-1
 493 303 l 1,10,-1
 528 403 l 1,11,-1
 808 1082 l 1,0,-1
EndSplineSet
Validated: 1
EndChar

StartChar: delta
Encoding: 948 948 398
Width: 1156
GlyphClass: 1
Flags: W
LayerCount: 2
Fore
SplineSet
1117 1456 m 1,0,-1
 1084 1232 l 1,1,-1
 680 1232 l 1,2,-1
 677 1226 l 1,3,-1
 893 1038 l 2,4,5
 998 951 998 951 1055.5 828.5 c 128,-1,6
 1113 706 1113 706 1091 551 c 2,7,-1
 1088 530 l 2,8,9
 1049 277 1049 277 893 128 c 128,-1,10
 737 -21 737 -21 495 -21 c 0,11,12
 264 -21 264 -21 145.5 126.5 c 128,-1,13
 27 274 27 274 63 504 c 2,14,-1
 66 525 l 2,15,16
 97 733 97 733 224 868.5 c 128,-1,17
 351 1004 351 1004 527 1035 c 1,18,-1
 536 1036 l 1,19,-1
 538 1042 l 1,20,-1
 282 1279 l 1,21,-1
 308 1456 l 1,22,-1
 1117 1456 l 1,0,-1
628 877 m 0,23,24
 519 877 519 877 450 784.5 c 128,-1,25
 381 692 381 692 361 551 c 2,26,-1
 358 530 l 2,27,28
 334 377 334 377 373 290 c 128,-1,29
 412 203 412 203 528 203 c 0,30,31
 636 203 636 203 705 294 c 128,-1,32
 774 385 774 385 796 530 c 2,33,-1
 799 551 l 2,34,35
 820 700 820 700 781.5 788.5 c 128,-1,36
 743 877 743 877 628 877 c 0,23,24
EndSplineSet
Validated: 33
EndChar

StartChar: epsilon
Encoding: 949 949 399
Width: 1140
GlyphClass: 1
Flags: W
LayerCount: 2
Fore
SplineSet
61 306 m 0,0,1
 75 401 75 401 136.5 464 c 128,-1,2
 198 527 198 527 304 559 c 1,3,4
 223 595 223 595 182 655 c 128,-1,5
 141 715 141 715 152 786 c 0,6,7
 175 942 175 942 317.5 1021.5 c 128,-1,8
 460 1101 460 1101 683 1101 c 0,9,10
 870 1101 870 1101 991 1011 c 128,-1,11
 1112 921 1112 921 1085 777 c 1,12,-1
 1083 771 l 1,13,-1
 800 771 l 1,14,15
 808 827 808 827 762 858 c 128,-1,16
 716 889 716 889 636 889 c 0,17,18
 551 889 551 889 499 852 c 128,-1,19
 447 815 447 815 440 765 c 0,20,21
 431 708 431 708 472 677.5 c 128,-1,22
 513 647 513 647 601 647 c 2,23,-1
 788 647 l 1,24,-1
 779 588 l 1,25,-1
 760 458 l 1,26,-1
 573 458 l 2,27,28
 481 458 481 458 423 425.5 c 128,-1,29
 365 393 365 393 355 325 c 0,30,31
 346 268 346 268 391.5 229.5 c 128,-1,32
 437 191 437 191 531 191 c 0,33,34
 621 191 621 191 681.5 228.5 c 128,-1,35
 742 266 742 266 750 320 c 1,36,-1
 1030 320 l 1,37,-1
 1032 314 l 1,38,39
 1012 145 1012 145 862 62.5 c 128,-1,40
 712 -20 712 -20 515 -20 c 0,41,42
 303 -20 303 -20 170.5 68.5 c 128,-1,43
 38 157 38 157 61 306 c 0,0,1
EndSplineSet
Validated: 33
EndChar

StartChar: zeta
Encoding: 950 950 400
Width: 1034
GlyphClass: 1
Flags: W
LayerCount: 2
Fore
SplineSet
1106 1456 m 1,0,-1
 1083 1300 l 1,1,-1
 658 868 l 2,2,3
 530 738 530 738 469 643 c 128,-1,4
 408 548 408 548 390 422 c 0,5,6
 374 316 374 316 415 268.5 c 128,-1,7
 456 221 456 221 559 221 c 2,8,-1
 613 221 l 2,9,10
 754 221 754 221 830.5 147 c 128,-1,11
 907 73 907 73 888 -59 c 0,12,13
 867 -184 867 -184 763 -284.5 c 128,-1,14
 659 -385 659 -385 504 -427 c 1,15,-1
 436 -234 l 1,16,17
 505 -206 505 -206 549.5 -171 c 128,-1,18
 594 -136 594 -136 603 -83 c 0,19,20
 608 -42 608 -42 580.5 -21 c 128,-1,21
 553 0 553 0 480 0 c 2,22,-1
 431 0 l 2,23,24
 246 0 246 0 158 111 c 128,-1,25
 70 222 70 222 94 382 c 0,26,27
 118 541 118 541 203 676.5 c 128,-1,28
 288 812 288 812 456 985 c 2,29,-1
 696 1226 l 1,30,-1
 694 1232 l 1,31,-1
 180 1232 l 1,32,-1
 213 1456 l 1,33,-1
 1106 1456 l 1,0,-1
EndSplineSet
Validated: 33
EndChar

StartChar: eta
Encoding: 951 951 401
Width: 1156
GlyphClass: 1
Flags: W
LayerCount: 2
Fore
SplineSet
312 576 m 1,0,-1
 309 582 l 1,1,2
 341 816 341 816 471.5 959 c 128,-1,3
 602 1102 602 1102 785 1102 c 0,4,5
 945 1102 945 1102 1023 997 c 128,-1,6
 1101 892 1101 892 1067 663 c 2,7,-1
 906 -415 l 1,8,-1
 613 -415 l 1,9,-1
 774 662 l 2,10,11
 792 783 792 783 759.5 830 c 128,-1,12
 727 877 727 877 645 877 c 0,13,14
 527 877 527 877 445.5 792 c 128,-1,15
 364 707 364 707 345 578 c 1,16,-1
 312 576 l 1,0,-1
436 783 m 1,17,-1
 319 0 l 1,18,-1
 27 0 l 1,19,-1
 189 1082 l 1,20,-1
 461 1082 l 1,21,-1
 452 936 l 1,22,-1
 447 851 l 1,23,-1
 436 783 l 1,17,-1
EndSplineSet
Validated: 37
EndChar

StartChar: theta
Encoding: 952 952 402
Width: 1209
GlyphClass: 1
Flags: W
LayerCount: 2
Fore
SplineSet
1085 527 m 2,0,1
 1045 261 1045 261 891 120 c 128,-1,2
 737 -21 737 -21 512 -21 c 0,3,4
 297 -21 297 -21 179 126.5 c 128,-1,5
 61 274 61 274 100 527 c 2,6,-1
 160 928 l 2,7,8
 200 1193 200 1193 354.5 1335 c 128,-1,9
 509 1477 509 1477 735 1477 c 0,10,11
 949 1477 949 1477 1066 1328.5 c 128,-1,12
 1183 1180 1183 1180 1145 928 c 2,13,-1
 1085 527 l 2,0,1
808 623 m 1,14,-1
 405 623 l 1,15,-1
 387 499 l 2,16,17
 364 350 364 350 405.5 276.5 c 128,-1,18
 447 203 447 203 545 203 c 0,19,20
 637 203 637 203 702.5 280 c 128,-1,21
 768 357 768 357 790 499 c 2,22,-1
 808 623 l 1,14,-1
438 840 m 1,23,-1
 841 840 l 1,24,-1
 859 958 l 2,25,26
 880 1103 880 1103 838.5 1177.5 c 128,-1,27
 797 1252 797 1252 701 1252 c 0,28,29
 608 1252 608 1252 542 1174 c 128,-1,30
 476 1096 476 1096 456 958 c 2,31,-1
 438 840 l 1,23,-1
EndSplineSet
Validated: 33
EndChar

StartChar: iota
Encoding: 953 953 403
Width: 681
GlyphClass: 1
Flags: W
LayerCount: 2
Fore
SplineSet
511 1081 m 1,0,-1
 397 321 l 2,1,2
 387 254 387 254 405.5 230 c 128,-1,3
 424 206 424 206 471 206 c 0,4,5
 498 206 498 206 517 209.5 c 128,-1,6
 536 213 536 213 572 224 c 1,7,-1
 570 14 l 1,8,9
 520 -6 520 -6 476.5 -13.5 c 128,-1,10
 433 -21 433 -21 378 -21 c 0,11,12
 227 -21 227 -21 153 65.5 c 128,-1,13
 79 152 79 152 106 325 c 2,14,-1
 219 1081 l 1,15,-1
 511 1081 l 1,0,-1
EndSplineSet
Validated: 33
EndChar

StartChar: lambda
Encoding: 955 955 405
Width: 1102
GlyphClass: 1
Flags: W
LayerCount: 2
Fore
SplineSet
247 0 m 1,0,-1
 -68 0 l 1,1,-1
 467 1059 l 1,2,-1
 429 1167 l 2,3,4
 413 1222 413 1222 378.5 1257 c 128,-1,5
 344 1292 344 1292 291 1292 c 0,6,7
 279 1292 279 1292 257 1290 c 128,-1,8
 235 1288 235 1288 224 1286 c 1,9,-1
 249 1495 l 1,10,11
 292 1506 292 1506 325 1512 c 128,-1,12
 358 1518 358 1518 396 1518 c 0,13,14
 547 1518 547 1518 618.5 1437 c 128,-1,15
 690 1356 690 1356 717 1244 c 2,16,-1
 945 345 l 2,17,18
 955 292 955 292 979.5 258 c 128,-1,19
 1004 224 1004 224 1044 217 c 0,20,21
 1055 215 1055 215 1067.5 215 c 128,-1,22
 1080 215 1080 215 1095 216 c 1,23,-1
 1044 -3 l 1,24,25
 1010 -9 1010 -9 976.5 -11.5 c 128,-1,26
 943 -14 943 -14 910 -12 c 0,27,28
 784 -3 784 -3 723.5 88.5 c 128,-1,29
 663 180 663 180 639 311 c 2,30,-1
 555 703 l 1,31,-1
 549 703 l 1,32,-1
 522 623 l 1,33,-1
 247 0 l 1,0,-1
EndSplineSet
Validated: 33
EndChar

StartChar: xi
Encoding: 958 958 408
Width: 1097
GlyphClass: 1
Flags: W
LayerCount: 2
Fore
SplineSet
1119 1456 m 1,0,-1
 1085 1224 l 1,1,-1
 806 1224 l 2,2,3
 701 1221 701 1221 637.5 1177 c 128,-1,4
 574 1133 574 1133 564 1063 c 0,5,6
 552 985 552 985 599 943 c 128,-1,7
 646 901 646 901 761 901 c 2,8,-1
 912 901 l 1,9,-1
 901 826 l 1,10,-1
 888 740 l 1,11,-1
 877 669 l 1,12,-1
 734 669 l 2,13,14
 583 669 583 669 488.5 603.5 c 128,-1,15
 394 538 394 538 376 416 c 0,16,17
 362 321 362 321 416.5 266 c 128,-1,18
 471 211 471 211 582 211 c 2,19,-1
 703 211 l 2,20,21
 850 211 850 211 929 140.5 c 128,-1,22
 1008 70 1008 70 988 -66 c 0,23,24
 965 -207 965 -207 866 -303 c 128,-1,25
 767 -399 767 -399 603 -448 c 1,26,-1
 547 -276 l 1,27,28
 610 -249 610 -249 657.5 -213 c 128,-1,29
 705 -177 705 -177 714 -117 c 0,30,31
 721 -70 721 -70 694 -45.5 c 128,-1,32
 667 -21 667 -21 601 -21 c 2,33,-1
 531 -21 l 2,34,35
 306 -21 306 -21 180.5 96.5 c 128,-1,36
 55 214 55 214 86 420 c 0,37,38
 106 559 106 559 195 650.5 c 128,-1,39
 284 742 284 742 435 786 c 1,40,41
 343 821 343 821 298.5 880 c 128,-1,42
 254 939 254 939 266 1019 c 0,43,44
 276 1090 276 1090 317.5 1140.5 c 128,-1,45
 359 1191 359 1191 428 1219 c 1,46,-1
 425 1224 l 1,47,-1
 226 1224 l 1,48,-1
 260 1456 l 1,49,-1
 1119 1456 l 1,0,-1
EndSplineSet
Validated: 33
EndChar

StartChar: pi
Encoding: 960 960 410
Width: 1356
GlyphClass: 1
Flags: W
LayerCount: 2
Fore
SplineSet
1273 868 m 1,0,-1
 1080 868 l 1,1,-1
 998 321 l 2,2,3
 988 254 988 254 1006.5 230 c 128,-1,4
 1025 206 1025 206 1072 206 c 0,5,6
 1099 206 1099 206 1118 209.5 c 128,-1,7
 1137 213 1137 213 1173 224 c 1,8,-1
 1171 14 l 1,9,10
 1121 -6 1121 -6 1077.5 -13.5 c 128,-1,11
 1034 -21 1034 -21 979 -21 c 0,12,13
 828 -21 828 -21 754 65.5 c 128,-1,14
 680 152 680 152 707 325 c 2,15,-1
 788 868 l 1,16,-1
 579 868 l 1,17,-1
 449 0 l 1,18,-1
 157 0 l 1,19,-1
 287 868 l 1,20,-1
 128 868 l 1,21,-1
 160 1082 l 1,22,-1
 1305 1082 l 1,23,-1
 1273 868 l 1,0,-1
EndSplineSet
Validated: 33
EndChar

StartChar: rho
Encoding: 961 961 411
Width: 1156
GlyphClass: 1
Flags: W
LayerCount: 2
Fore
SplineSet
1083 511 m 2,0,1
 1045 262 1045 262 915 120.5 c 128,-1,2
 785 -21 785 -21 584 -21 c 0,3,4
 502 -21 502 -21 440.5 11.5 c 128,-1,5
 379 44 379 44 339 105 c 1,6,-1
 261 -416 l 1,7,-1
 -30 -416 l 1,8,-1
 119 577 l 2,9,10
 155 821 155 821 308.5 961.5 c 128,-1,11
 462 1102 462 1102 692 1102 c 0,12,13
 912 1102 912 1102 1018 943.5 c 128,-1,14
 1124 785 1124 785 1086 532 c 2,15,-1
 1083 511 l 2,0,1
795 532 m 2,16,17
 819 691 819 691 784.5 784 c 128,-1,18
 750 877 750 877 644 877 c 0,19,20
 553 877 553 877 489.5 783.5 c 128,-1,21
 426 690 426 690 406 554 c 1,22,-1
 405 553 l 1,23,-1
 406 553 l 1,24,-1
 368 297 l 1,25,26
 388 251 388 251 430.5 227 c 128,-1,27
 473 203 473 203 541 203 c 0,28,29
 643 203 643 203 706.5 287 c 128,-1,30
 770 371 770 371 792 511 c 2,31,-1
 795 532 l 2,16,17
EndSplineSet
Validated: 33
EndChar

StartChar: sigma1
Encoding: 962 962 412
Width: 1052
GlyphClass: 1
Flags: W
LayerCount: 2
Fore
SplineSet
647 1102 m 0,0,1
 840 1102 840 1102 947.5 989.5 c 128,-1,2
 1055 877 1055 877 1023 687 c 1,3,-1
 1021 682 l 1,4,-1
 754 682 l 1,5,6
 767 770 767 770 732.5 823.5 c 128,-1,7
 698 877 698 877 614 877 c 0,8,9
 507 877 507 877 442 784.5 c 128,-1,10
 377 692 377 692 357 555 c 2,11,-1
 353 525 l 2,12,13
 331 384 331 384 384.5 312.5 c 128,-1,14
 438 241 438 241 582 220 c 0,15,16
 766 190 766 190 843 126 c 128,-1,17
 920 62 920 62 900 -72 c 0,18,19
 879 -197 879 -197 775 -297 c 128,-1,20
 671 -397 671 -397 517 -440 c 1,21,-1
 449 -247 l 1,22,23
 518 -218 518 -218 562 -183.5 c 128,-1,24
 606 -149 606 -149 615 -96 c 0,25,26
 620 -54 620 -54 586.5 -32.5 c 128,-1,27
 553 -11 553 -11 475 3 c 0,28,29
 232 39 232 39 129.5 171 c 128,-1,30
 27 303 27 303 61 525 c 1,31,-1
 65 555 l 1,32,33
 102 801 102 801 255 951.5 c 128,-1,34
 408 1102 408 1102 647 1102 c 0,0,1
EndSplineSet
Validated: 33
EndChar

StartChar: sigma
Encoding: 963 963 413
Width: 1172
GlyphClass: 1
Flags: W
LayerCount: 2
Fore
SplineSet
1197 856 m 1,0,-1
 940 856 l 1,1,2
 1011 790 1011 790 1046.5 700 c 128,-1,3
 1082 610 1082 610 1068 510 c 1,4,-1
 1064 489 l 1,5,6
 1030 260 1030 260 878.5 119.5 c 128,-1,7
 727 -21 727 -21 494 -21 c 0,8,9
 262 -21 262 -21 145 134 c 128,-1,10
 28 289 28 289 65 530 c 2,11,-1
 68 551 l 2,12,13
 103 793 103 793 259 937.5 c 128,-1,14
 415 1082 415 1082 657 1082 c 2,15,-1
 1231 1082 l 1,16,-1
 1197 856 l 1,0,-1
357 530 m 2,17,18
 333 377 333 377 372 290 c 128,-1,19
 411 203 411 203 527 203 c 0,20,21
 628 203 628 203 693 294 c 128,-1,22
 758 385 758 385 780 530 c 2,23,-1
 783 551 l 2,24,25
 803 690 803 690 766.5 773 c 128,-1,26
 730 856 730 856 623 856 c 0,27,28
 514 856 514 856 446.5 769.5 c 128,-1,29
 379 683 379 683 360 551 c 2,30,-1
 357 530 l 2,17,18
EndSplineSet
Validated: 33
EndChar

StartChar: tau
Encoding: 964 964 414
Width: 1076
GlyphClass: 1
Flags: W
LayerCount: 2
Fore
SplineSet
1080 859 m 1,0,-1
 732 859 l 1,1,-1
 604 0 l 1,2,-1
 312 0 l 1,3,-1
 440 859 l 1,4,-1
 100 859 l 1,5,-1
 133 1082 l 1,6,-1
 1113 1082 l 1,7,-1
 1080 859 l 1,0,-1
EndSplineSet
Validated: 1
EndChar

StartChar: upsilon
Encoding: 965 965 415
Width: 1156
GlyphClass: 1
Flags: W
LayerCount: 2
Fore
SplineSet
486 1082 m 1,0,-1
 395 470 l 2,1,2
 372 322 372 322 412.5 262.5 c 128,-1,3
 453 203 453 203 539 203 c 0,4,5
 639 203 639 203 706 310.5 c 128,-1,6
 773 418 773 418 795 566 c 0,7,8
 811 693 811 693 804 822.5 c 128,-1,9
 797 952 797 952 771 1082 c 1,10,-1
 1049 1082 l 1,11,12
 1084 977 1084 977 1096 848 c 128,-1,13
 1108 719 1108 719 1086 566 c 0,14,15
 1044 289 1044 289 908.5 134 c 128,-1,16
 773 -21 773 -21 516 -21 c 0,17,18
 295 -21 295 -21 181 102 c 128,-1,19
 67 225 67 225 104 472 c 2,20,-1
 195 1082 l 1,21,-1
 486 1082 l 1,0,-1
EndSplineSet
Validated: 33
EndChar

StartChar: phi
Encoding: 966 966 416
Width: 1529
GlyphClass: 1
Flags: W
LayerCount: 2
Fore
SplineSet
983 1082 m 2,0,1
 1238 1082 1238 1082 1366.5 915.5 c 128,-1,2
 1495 749 1495 749 1464 537 c 0,3,4
 1429 309 1429 309 1273.5 161.5 c 128,-1,5
 1118 14 1118 14 818 -14 c 1,6,-1
 749 -478 l 1,7,-1
 458 -478 l 1,8,-1
 528 -11 l 1,9,10
 253 27 253 27 140 193.5 c 128,-1,11
 27 360 27 360 62 592 c 0,12,13
 84 742 84 742 137 861 c 128,-1,14
 190 980 190 980 264 1082 c 1,15,-1
 535 1082 l 1,16,17
 465 951 465 951 418.5 830 c 128,-1,18
 372 709 372 709 354 592 c 0,19,20
 331 442 331 442 377 347.5 c 128,-1,21
 423 253 423 253 557 226 c 1,22,-1
 563 227 l 1,23,-1
 692 1082 l 1,24,-1
 983 1082 l 2,0,1
1172 537 m 0,25,26
 1191 675 1191 675 1135 764.5 c 128,-1,27
 1079 854 1079 854 954 849 c 1,28,-1
 948 848 l 1,29,-1
 854 225 l 1,30,-1
 860 222 l 1,31,32
 998 245 998 245 1075.5 330 c 128,-1,33
 1153 415 1153 415 1172 537 c 0,25,26
EndSplineSet
Validated: 33
EndChar

StartChar: chi
Encoding: 967 967 417
Width: 1102
GlyphClass: 1
Flags: W
LayerCount: 2
Fore
SplineSet
251 1098 m 0,0,1
 402 1098 402 1098 474 1016.5 c 128,-1,2
 546 935 546 935 572 825 c 1,3,-1
 612 680 l 1,4,-1
 618 679 l 1,5,-1
 874 1082 l 1,6,-1
 1170 1082 l 1,7,-1
 704 354 l 1,8,-1
 823 -73 l 2,9,10
 835 -125 835 -125 859 -159 c 128,-1,11
 883 -193 883 -193 922 -201 c 0,12,13
 933 -203 933 -203 945.5 -203 c 128,-1,14
 958 -203 958 -203 974 -203 c 1,15,-1
 922 -423 l 1,16,17
 890 -430 890 -430 855.5 -432 c 128,-1,18
 821 -434 821 -434 788 -431 c 0,19,20
 678 -421 678 -421 624 -330.5 c 128,-1,21
 570 -240 570 -240 541 -107 c 1,22,-1
 502 29 l 1,23,-1
 496 30 l 1,24,-1
 211 -416 l 1,25,-1
 -78 -416 l 1,26,-1
 411 353 l 1,27,-1
 300 748 l 2,28,29
 286 805 286 805 245 839 c 128,-1,30
 204 873 204 873 146 873 c 0,31,32
 134 873 134 873 112.5 871 c 128,-1,33
 91 869 91 869 79 867 c 1,34,-1
 104 1076 l 1,35,36
 145 1086 145 1086 179 1092 c 128,-1,37
 213 1098 213 1098 251 1098 c 0,0,1
EndSplineSet
Validated: 33
EndChar

StartChar: psi
Encoding: 968 968 418
Width: 1526
GlyphClass: 1
Flags: W
LayerCount: 2
Fore
SplineSet
981 1082 m 1,0,-1
 853 230 l 1,1,-1
 858 227 l 1,2,3
 995 256 995 256 1075.5 354 c 128,-1,4
 1156 452 1156 452 1178 592 c 0,5,6
 1193 710 1193 710 1182.5 831.5 c 128,-1,7
 1172 953 1172 953 1142 1082 c 1,8,-1
 1413 1082 l 1,9,10
 1456 984 1456 984 1473 860.5 c 128,-1,11
 1490 737 1490 737 1469 592 c 0,12,13
 1430 342 1430 342 1273 179.5 c 128,-1,14
 1116 17 1116 17 816 -14 c 1,15,-1
 747 -478 l 1,16,-1
 455 -478 l 1,17,-1
 525 -10 l 1,18,19
 279 23 279 23 157.5 172 c 128,-1,20
 36 321 36 321 77 590 c 2,21,-1
 150 1082 l 1,22,-1
 442 1082 l 1,23,-1
 368 587 l 2,24,25
 343 419 343 419 394 333 c 128,-1,26
 445 247 445 247 555 227 c 1,27,-1
 560 228 l 1,28,-1
 689 1082 l 1,29,-1
 981 1082 l 1,0,-1
EndSplineSet
Validated: 33
EndChar

StartChar: omega
Encoding: 969 969 419
Width: 1760
GlyphClass: 1
Flags: W
LayerCount: 2
Fore
SplineSet
594 1082 m 1,0,1
 510 951 510 951 454 822 c 128,-1,2
 398 693 398 693 376 566 c 0,3,4
 351 402 351 402 377 302.5 c 128,-1,5
 403 203 403 203 497 203 c 0,6,7
 575 203 575 203 636 272.5 c 128,-1,8
 697 342 697 342 720 490 c 2,9,-1
 771 836 l 1,10,-1
 1079 836 l 1,11,-1
 1028 490 l 2,12,13
 1004 334 1004 334 1041.5 268.5 c 128,-1,14
 1079 203 1079 203 1162 203 c 0,15,16
 1251 203 1251 203 1310 307 c 128,-1,17
 1369 411 1369 411 1393 566 c 1,18,19
 1408 694 1408 694 1391 823.5 c 128,-1,20
 1374 953 1374 953 1329 1082 c 1,21,-1
 1607 1082 l 1,22,23
 1661 979 1661 979 1684 849.5 c 128,-1,24
 1707 720 1707 720 1684 566 c 0,25,26
 1642 289 1642 289 1513 134 c 128,-1,27
 1384 -21 1384 -21 1140 -21 c 0,28,29
 1028 -21 1028 -21 948 34 c 128,-1,30
 868 89 868 89 832 194 c 1,31,32
 765 87 765 87 669 33 c 128,-1,33
 573 -21 573 -21 454 -21 c 0,34,35
 221 -21 221 -21 133 141 c 128,-1,36
 45 303 45 303 85 566 c 0,37,38
 109 725 109 725 169.5 850.5 c 128,-1,39
 230 976 230 976 316 1082 c 1,40,-1
 594 1082 l 1,0,1
EndSplineSet
Validated: 33
EndChar

StartChar: uni03D1
Encoding: 977 977 425
Width: 1396
GlyphClass: 2
Flags: W
LayerCount: 2
Fore
SplineSet
611 968 m 1,0,-1
 627 1071 l 2,1,2
 654 1254 654 1254 781.5 1365.5 c 128,-1,3
 909 1477 909 1477 1075 1477 c 0,4,5
 1248 1477 1248 1477 1331 1372.5 c 128,-1,6
 1414 1268 1414 1268 1385 1071 c 2,7,-1
 1307 556 l 2,8,9
 1268 298 1268 298 1078.5 138.5 c 128,-1,10
 889 -21 889 -21 636 -21 c 0,11,12
 368 -21 368 -21 227 138.5 c 128,-1,13
 86 298 86 298 125 556 c 2,14,-1
 230 1252 l 1,15,-1
 538 1254 l 1,16,-1
 433 556 l 2,17,18
 411 406 411 406 476.5 309.5 c 128,-1,19
 542 213 542 213 671 213 c 256,20,21
 800 213 800 213 886 298 c 128,-1,22
 972 383 972 383 998 544 c 1,23,24
 804 557 804 557 693.5 673 c 128,-1,25
 583 789 583 789 611 968 c 1,26,-1
 611 968 l 1,0,-1
1082 1098 m 2,27,28
 1091 1162 1091 1162 1075 1195.5 c 128,-1,29
 1059 1229 1059 1229 1021 1229 c 0,30,31
 977 1229 977 1229 947.5 1196.5 c 128,-1,32
 918 1164 918 1164 908 1098 c 2,33,-1
 888 966 l 2,34,35
 875 885 875 885 913 827.5 c 128,-1,36
 951 770 951 770 1025 762 c 1,37,-1
 1031 763 l 1,38,-1
 1082 1098 l 2,27,28
EndSplineSet
Validated: 37
EndChar

StartChar: uni03D2
Encoding: 978 978 426
Width: 1202
GlyphClass: 1
Flags: W
LayerCount: 2
Fore
SplineSet
870 1203 m 2,0,1
 954 1356 954 1356 1039 1418 c 128,-1,2
 1124 1480 1124 1480 1254 1480 c 0,3,4
 1285 1480 1285 1480 1310 1475.5 c 128,-1,5
 1335 1471 1335 1471 1354 1461 c 1,6,-1
 1297 1239 l 1,7,8
 1293 1240 1293 1240 1275.5 1242 c 128,-1,9
 1258 1244 1258 1244 1247 1244 c 0,10,11
 1212 1244 1212 1244 1178.5 1217.5 c 128,-1,12
 1145 1191 1145 1191 1121 1149 c 2,13,-1
 734 477 l 1,14,-1
 663 0 l 1,15,-1
 372 0 l 1,16,-1
 445 490 l 1,17,-1
 264 1149 l 2,18,19
 251 1192 251 1192 227 1218 c 128,-1,20
 203 1244 203 1244 167 1244 c 0,21,22
 155 1244 155 1244 136.5 1242 c 128,-1,23
 118 1240 118 1240 116 1239 c 1,24,-1
 126 1461 l 1,25,26
 147 1472 147 1472 172.5 1476 c 128,-1,27
 198 1480 198 1480 231 1480 c 0,28,29
 357 1480 357 1480 426 1420 c 128,-1,30
 495 1360 495 1360 532 1210 c 2,31,-1
 623 825 l 1,32,-1
 628 736 l 1,33,-1
 634 735 l 1,34,-1
 666 825 l 1,35,-1
 870 1203 l 2,0,1
EndSplineSet
Validated: 1
EndChar

StartChar: uni03D6
Encoding: 982 982 427
Width: 1696
GlyphClass: 1
Flags: W
LayerCount: 2
Fore
SplineSet
1743 900 m 1,0,-1
 1610 900 l 1,1,2
 1626 825 1626 825 1628.5 741 c 128,-1,3
 1631 657 1631 657 1618 566 c 0,4,5
 1576 289 1576 289 1453.5 134 c 128,-1,6
 1331 -21 1331 -21 1104 -21 c 0,7,8
 993 -21 993 -21 915 34 c 128,-1,9
 837 89 837 89 802 195 c 1,10,11
 736 87 736 87 641 33 c 128,-1,12
 546 -21 546 -21 428 -21 c 0,13,14
 211 -21 211 -21 130.5 141 c 128,-1,15
 50 303 50 303 90 566 c 0,16,17
 104 660 104 660 131 743 c 128,-1,18
 158 826 158 826 197 900 c 1,19,-1
 74 900 l 1,20,-1
 101 1082 l 1,21,-1
 1770 1082 l 1,22,-1
 1743 900 l 1,0,-1
1327 566 m 0,23,24
 1336 649 1336 649 1333 732.5 c 128,-1,25
 1330 816 1330 816 1315 900 c 1,26,-1
 493 900 l 1,27,28
 452 816 452 816 423.5 732.5 c 128,-1,29
 395 649 395 649 381 566 c 0,30,31
 356 402 356 402 374 303.5 c 128,-1,32
 392 205 392 205 469 210 c 1,33,-1
 475 209 l 1,34,35
 547 204 547 204 607 272.5 c 128,-1,36
 667 341 667 341 690 490 c 2,37,-1
 720 695 l 1,38,-1
 1027 695 l 1,39,-1
 997 490 l 2,40,41
 973 334 973 334 1009.5 268.5 c 128,-1,42
 1046 203 1046 203 1126 203 c 0,43,44
 1200 203 1200 203 1251.5 306.5 c 128,-1,45
 1303 410 1303 410 1327 566 c 0,23,24
EndSplineSet
Validated: 33
EndChar

StartChar: uni0402
Encoding: 1026 1026 430
Width: 1560
GlyphClass: 1
Flags: W
LayerCount: 2
Fore
SplineSet
1274 1231 m 1,0,-1
 857 1231 l 1,1,-1
 810 917 l 1,2,-1
 986 917 l 2,3,4
 1242 917 1242 917 1387.5 790.5 c 128,-1,5
 1533 664 1533 664 1499 430 c 0,6,7
 1481 296 1481 296 1364.5 160.5 c 128,-1,8
 1248 25 1248 25 1058 -32 c 1,9,-1
 963 156 l 1,10,11
 1069 200 1069 200 1130.5 266.5 c 128,-1,12
 1192 333 1192 333 1208 430 c 0,13,14
 1227 561 1227 561 1159.5 624.5 c 128,-1,15
 1092 688 1092 688 951 688 c 2,16,-1
 776 688 l 1,17,-1
 673 0 l 1,18,-1
 381 0 l 1,19,-1
 565 1231 l 1,20,-1
 156 1231 l 1,21,-1
 189 1456 l 1,22,-1
 1307 1456 l 1,23,-1
 1274 1231 l 1,0,-1
EndSplineSet
Validated: 33
EndChar

StartChar: uni0404
Encoding: 1028 1028 432
Width: 1290
GlyphClass: 1
Flags: W
LayerCount: 2
Fore
SplineSet
1234 483 m 1,0,-1
 1236 477 l 1,1,2
 1204 235 1204 235 1041 107.5 c 128,-1,3
 878 -20 878 -20 617 -20 c 0,4,5
 365 -20 365 -20 224.5 150 c 128,-1,6
 84 320 84 320 124 584 c 2,7,-1
 167 873 l 2,8,9
 208 1149 208 1149 388.5 1313.5 c 128,-1,10
 569 1478 569 1478 827 1478 c 0,11,12
 1083 1478 1083 1478 1218 1346.5 c 128,-1,13
 1353 1215 1353 1215 1314 982 c 1,14,-1
 1311 976 l 1,15,-1
 1027 976 l 1,16,17
 1049 1121 1049 1121 992 1187 c 128,-1,18
 935 1253 935 1253 793 1253 c 0,19,20
 667 1253 667 1253 575 1146 c 128,-1,21
 483 1039 483 1039 458 875 c 2,22,-1
 453 844 l 1,23,-1
 885 844 l 1,24,-1
 851 618 l 1,25,-1
 420 618 l 1,26,-1
 415 584 l 2,27,28
 389 410 389 410 450.5 307 c 128,-1,29
 512 204 512 204 651 204 c 0,30,31
 777 204 777 204 854 273.5 c 128,-1,32
 931 343 931 343 952 483 c 1,33,-1
 1234 483 l 1,0,-1
EndSplineSet
Validated: 33
EndChar

StartChar: uni0405
Encoding: 1029 1029 433
Width: 1266
GlyphClass: 1
Flags: W
LayerCount: 2
Fore
SplineSet
870 380 m 0,0,1
 883 468 883 468 833 517 c 128,-1,2
 783 566 783 566 641 611 c 0,3,4
 400 687 400 687 284.5 790 c 128,-1,5
 169 893 169 893 197 1071 c 0,6,7
 224 1256 224 1256 386.5 1366.5 c 128,-1,8
 549 1477 549 1477 780 1477 c 0,9,10
 1013 1477 1013 1477 1146 1353.5 c 128,-1,11
 1279 1230 1279 1230 1245 1035 c 1,12,-1
 1243 1029 l 1,13,-1
 959 1029 l 1,14,15
 976 1142 976 1142 919.5 1198.5 c 128,-1,16
 863 1255 863 1255 742 1255 c 0,17,18
 638 1255 638 1255 569 1202.5 c 128,-1,19
 500 1150 500 1150 489 1070 c 0,20,21
 476 993 476 993 532 947.5 c 128,-1,22
 588 902 588 902 740 848 c 1,23,24
 970 780 970 780 1079.5 670.5 c 128,-1,25
 1189 561 1189 561 1162 382 c 0,26,27
 1133 187 1133 187 973 83 c 128,-1,28
 813 -21 813 -21 570 -21 c 0,29,30
 343 -21 343 -21 188 97 c 128,-1,31
 33 215 33 215 73 445 c 1,32,-1
 75 451 l 1,33,-1
 359 451 l 1,34,35
 338 317 338 317 404.5 258.5 c 128,-1,36
 471 200 471 200 603 200 c 0,37,38
 715 200 715 200 786 249.5 c 128,-1,39
 857 299 857 299 870 380 c 0,0,1
EndSplineSet
Validated: 33
EndChar

StartChar: uni0409
Encoding: 1033 1033 437
Width: 2169
GlyphClass: 1
Flags: W
LayerCount: 2
Fore
SplineSet
1449 1456 m 1,0,-1
 1373 947 l 1,1,-1
 1623 947 l 2,2,3
 1863 947 1863 947 1995.5 813 c 128,-1,4
 2128 679 2128 679 2098 474 c 0,5,6
 2065 256 2065 256 1899.5 128 c 128,-1,7
 1734 0 1734 0 1481 0 c 2,8,-1
 939 0 l 1,9,-1
 1123 1231 l 1,10,-1
 737 1231 l 1,11,-1
 672 793 l 2,12,13
 606 356 606 356 446 178 c 128,-1,14
 286 0 286 0 5 0 c 2,15,-1
 -38 0 l 1,16,-1
 -4 224 l 1,17,-1
 36 224 l 2,18,19
 181 224 181 224 256.5 350 c 128,-1,20
 332 476 332 476 380 793 c 2,21,-1
 479 1456 l 1,22,-1
 1449 1456 l 1,0,-1
1339 722 m 1,23,-1
 1265 224 l 1,24,-1
 1515 224 l 2,25,26
 1632 224 1632 224 1711.5 298 c 128,-1,27
 1791 372 1791 372 1807 476 c 0,28,29
 1822 582 1822 582 1767 652 c 128,-1,30
 1712 722 1712 722 1589 722 c 2,31,-1
 1339 722 l 1,23,-1
EndSplineSet
Validated: 33
EndChar

StartChar: uni040A
Encoding: 1034 1034 438
Width: 2168
GlyphClass: 1
Flags: W
LayerCount: 2
Fore
SplineSet
470 841 m 1,0,-1
 1063 841 l 1,1,-1
 1156 1456 l 1,2,-1
 1448 1456 l 1,3,-1
 1369 929 l 1,4,-1
 1619 929 l 2,5,6
 1860 929 1860 929 1993.5 799 c 128,-1,7
 2127 669 2127 669 2097 466 c 0,8,9
 2065 253 2065 253 1899 126.5 c 128,-1,10
 1733 0 1733 0 1480 0 c 2,11,-1
 938 0 l 1,12,-1
 1030 616 l 1,13,-1
 437 616 l 1,14,-1
 345 0 l 1,15,-1
 53 0 l 1,16,-1
 271 1456 l 1,17,-1
 563 1456 l 1,18,-1
 470 841 l 1,0,-1
1335 704 m 1,19,-1
 1264 228 l 1,20,-1
 1514 228 l 2,21,22
 1631 228 1631 228 1710 298 c 128,-1,23
 1789 368 1789 368 1805 468 c 0,24,25
 1820 571 1820 571 1765 637.5 c 128,-1,26
 1710 704 1710 704 1586 704 c 2,27,-1
 1335 704 l 1,19,-1
EndSplineSet
Validated: 33
EndChar

StartChar: uni040B
Encoding: 1035 1035 439
Width: 1634
GlyphClass: 1
Flags: W
LayerCount: 2
Fore
SplineSet
1290 1231 m 1,0,-1
 873 1231 l 1,1,-1
 835 978 l 1,2,-1
 1031 978 l 2,3,4
 1285 978 1285 978 1413 859 c 128,-1,5
 1541 740 1541 740 1505 499 c 2,6,-1
 1430 0 l 1,7,-1
 1138 0 l 1,8,-1
 1213 499 l 2,9,10
 1235 648 1235 648 1186 700.5 c 128,-1,11
 1137 753 1137 753 997 753 c 2,12,-1
 801 753 l 1,13,-1
 689 0 l 1,14,-1
 397 0 l 1,15,-1
 581 1231 l 1,16,-1
 172 1231 l 1,17,-1
 205 1456 l 1,18,-1
 1323 1456 l 1,19,-1
 1290 1231 l 1,0,-1
EndSplineSet
Validated: 33
EndChar

StartChar: uni040F
Encoding: 1039 1039 443
Width: 1431
GlyphClass: 1
Flags: W
LayerCount: 2
Fore
SplineSet
258 1456 m 1,0,-1
 549 1456 l 1,1,-1
 365 224 l 1,2,-1
 959 224 l 1,3,-1
 1143 1456 l 1,4,-1
 1435 1456 l 1,5,-1
 1217 0 l 1,6,-1
 786 0 l 1,7,-1
 733 -360 l 1,8,-1
 441 -360 l 1,9,-1
 494 0 l 1,10,-1
 40 0 l 1,11,-1
 258 1456 l 1,0,-1
EndSplineSet
Validated: 1
EndChar

StartChar: uni0411
Encoding: 1041 1041 445
Width: 1283
GlyphClass: 1
Flags: W
LayerCount: 2
Fore
SplineSet
1186 1231 m 1,0,-1
 529 1231 l 1,1,-1
 486 944 l 1,2,-1
 736 944 l 2,3,4
 977 944 977 944 1109.5 811.5 c 128,-1,5
 1242 679 1242 679 1212 474 c 0,6,7
 1179 256 1179 256 1013 128 c 128,-1,8
 847 0 847 0 594 0 c 2,9,-1
 52 0 l 1,10,-1
 270 1456 l 1,11,-1
 1219 1456 l 1,12,-1
 1186 1231 l 1,0,-1
452 719 m 1,13,-1
 439 635 l 1,14,-1
 378 224 l 1,15,-1
 628 224 l 2,16,17
 745 224 745 224 825 298 c 128,-1,18
 905 372 905 372 921 476 c 0,19,20
 936 581 936 581 881 650 c 128,-1,21
 826 719 826 719 702 719 c 2,22,-1
 452 719 l 1,13,-1
EndSplineSet
Validated: 33
EndChar

StartChar: uni0414
Encoding: 1044 1044 448
Width: 1465
GlyphClass: 1
Flags: W
LayerCount: 2
Fore
SplineSet
1339 -358 m 1,0,-1
 1047 -358 l 1,1,-1
 1101 0 l 1,2,-1
 225 0 l 1,3,-1
 171 -358 l 1,4,-1
 -120 -358 l 1,5,-1
 -32 224 l 1,6,-1
 53 224 l 2,7,8
 162 224 162 224 238 378.5 c 128,-1,9
 314 533 314 533 377 860 c 2,10,-1
 499 1456 l 1,11,-1
 1438 1456 l 1,12,-1
 1253 224 l 1,13,-1
 1427 224 l 1,14,-1
 1339 -358 l 1,0,-1
669 860 m 2,15,16
 626 648 626 648 566.5 489 c 128,-1,17
 507 330 507 330 429 224 c 1,18,-1
 962 224 l 1,19,-1
 1113 1231 l 1,20,-1
 744 1231 l 1,21,-1
 669 860 l 2,15,16
EndSplineSet
Validated: 1
EndChar

StartChar: uni0416
Encoding: 1046 1046 450
Width: 1870
GlyphClass: 1
Flags: W
LayerCount: 2
Fore
SplineSet
1190 608 m 1,0,-1
 1097 608 l 1,1,-1
 1006 0 l 1,2,-1
 715 0 l 1,3,-1
 806 608 l 1,4,-1
 710 608 l 1,5,-1
 290 0 l 1,6,-1
 -74 0 l 1,7,-1
 503 785 l 1,8,-1
 168 1456 l 1,9,-1
 529 1456 l 1,10,-1
 770 861 l 1,11,-1
 844 861 l 1,12,-1
 933 1456 l 1,13,-1
 1224 1456 l 1,14,-1
 1135 861 l 1,15,-1
 1205 861 l 1,16,-1
 1617 1456 l 1,17,-1
 1977 1456 l 1,18,-1
 1448 786 l 1,19,-1
 1783 0 l 1,20,-1
 1420 0 l 1,21,-1
 1190 608 l 1,0,-1
EndSplineSet
Validated: 1
EndChar

StartChar: uni0417
Encoding: 1047 1047 451
Width: 1345
GlyphClass: 1
Flags: W
LayerCount: 2
Fore
SplineSet
518 852 m 1,0,-1
 715 852 l 2,1,2
 847 852 847 852 923.5 906.5 c 128,-1,3
 1000 961 1000 961 1015 1057 c 0,4,5
 1027 1144 1027 1144 963 1198 c 128,-1,6
 899 1252 899 1252 759 1252 c 0,7,8
 654 1252 654 1252 572 1199 c 128,-1,9
 490 1146 490 1146 478 1065 c 1,10,-1
 196 1065 l 1,11,-1
 194 1071 l 1,12,13
 217 1260 217 1260 389 1368.5 c 128,-1,14
 561 1477 561 1477 793 1477 c 0,15,16
 1050 1477 1050 1477 1192.5 1368 c 128,-1,17
 1335 1259 1335 1259 1306 1061 c 0,18,19
 1290 956 1290 956 1213.5 873.5 c 128,-1,20
 1137 791 1137 791 1015 745 c 1,21,22
 1135 701 1135 701 1192 615 c 128,-1,23
 1249 529 1249 529 1231 408 c 0,24,25
 1199 199 1199 199 1019 89 c 128,-1,26
 839 -21 839 -21 568 -21 c 0,27,28
 346 -21 346 -21 191 87 c 128,-1,29
 36 195 36 195 73 398 c 1,30,-1
 75 404 l 1,31,-1
 359 404 l 1,32,33
 345 315 345 315 412.5 259 c 128,-1,34
 480 203 480 203 601 203 c 0,35,36
 737 203 737 203 831.5 262 c 128,-1,37
 926 321 926 321 940 411 c 0,38,39
 957 530 957 530 893 581.5 c 128,-1,40
 829 633 829 633 682 633 c 2,41,-1
 485 633 l 1,42,-1
 508 786 l 1,43,-1
 518 852 l 1,0,-1
EndSplineSet
Validated: 33
EndChar

StartChar: uni0418
Encoding: 1048 1048 452
Width: 1431
GlyphClass: 1
Flags: W
LayerCount: 2
Fore
SplineSet
1147 1456 m 1,0,-1
 1439 1456 l 1,1,-1
 1221 0 l 1,2,-1
 929 0 l 1,3,-1
 1074 971 l 1,4,-1
 1069 973 l 1,5,-1
 335 0 l 1,6,-1
 44 0 l 1,7,-1
 262 1456 l 1,8,-1
 553 1456 l 1,9,-1
 408 485 l 1,10,-1
 413 483 l 1,11,-1
 1147 1456 l 1,0,-1
EndSplineSet
Validated: 1
EndChar

StartChar: uni041B
Encoding: 1051 1051 455
Width: 1444
GlyphClass: 1
Flags: W
LayerCount: 2
Fore
SplineSet
1449 1456 m 1,0,-1
 1231 0 l 1,1,-1
 939 0 l 1,2,-1
 1123 1231 l 1,3,-1
 709 1231 l 1,4,-1
 644 793 l 2,5,6
 578 354 578 354 426 177 c 128,-1,7
 274 0 274 0 5 0 c 2,8,-1
 -38 0 l 1,9,-1
 -4 224 l 1,10,-1
 36 224 l 2,11,12
 168 224 168 224 236 348.5 c 128,-1,13
 304 473 304 473 352 793 c 2,14,-1
 451 1456 l 1,15,-1
 1449 1456 l 1,0,-1
EndSplineSet
Validated: 1
EndChar

StartChar: uni0423
Encoding: 1059 1059 463
Width: 1310
GlyphClass: 1
Flags: W
LayerCount: 2
Fore
SplineSet
678 809 m 1,0,-1
 692 721 l 1,1,-1
 698 720 l 1,2,-1
 1113 1456 l 1,3,-1
 1422 1456 l 1,4,-1
 714 276 l 2,5,6
 631 135 631 135 530 57 c 128,-1,7
 429 -21 429 -21 269 -21 c 0,8,9
 211 -21 211 -21 164 -10.5 c 128,-1,10
 117 0 117 0 60 20 c 1,11,-1
 125 229 l 1,12,13
 168 216 168 216 201.5 209.5 c 128,-1,14
 235 203 235 203 270 203 c 0,15,16
 349 203 349 203 400.5 239 c 128,-1,17
 452 275 452 275 487 344 c 2,18,-1
 517 399 l 1,19,-1
 162 1456 l 1,20,-1
 477 1456 l 1,21,-1
 678 809 l 1,0,-1
EndSplineSet
Validated: 1
EndChar

StartChar: uni0426
Encoding: 1062 1062 466
Width: 1558
GlyphClass: 1
Flags: W
LayerCount: 2
Fore
SplineSet
259 1456 m 1,0,-1
 551 1456 l 1,1,-1
 367 225 l 1,2,-1
 961 225 l 1,3,-1
 1145 1456 l 1,4,-1
 1437 1456 l 1,5,-1
 1252 225 l 1,6,-1
 1448 225 l 1,7,-1
 1360 -359 l 1,8,-1
 1068 -359 l 1,9,-1
 1122 0 l 1,10,-1
 41 0 l 1,11,-1
 259 1456 l 1,0,-1
EndSplineSet
Validated: 1
EndChar

StartChar: uni0427
Encoding: 1063 1063 467
Width: 1420
GlyphClass: 1
Flags: W
LayerCount: 2
Fore
SplineSet
1426 1456 m 1,0,-1
 1208 0 l 1,1,-1
 915 0 l 1,2,-1
 999 561 l 1,3,4
 930 545 930 545 847 536.5 c 128,-1,5
 764 528 764 528 699 528 c 0,6,7
 441 528 441 528 307 645 c 128,-1,8
 173 762 173 762 209 1003 c 2,9,-1
 277 1456 l 1,10,-1
 569 1456 l 1,11,-1
 501 1003 l 2,12,13
 479 856 479 856 534 804.5 c 128,-1,14
 589 753 589 753 733 753 c 0,15,16
 792 753 792 753 878 761.5 c 128,-1,17
 964 770 964 770 1032 786 c 1,18,-1
 1133 1456 l 1,19,-1
 1426 1456 l 1,0,-1
EndSplineSet
Validated: 33
EndChar

StartChar: uni0428
Encoding: 1064 1064 468
Width: 2119
GlyphClass: 1
Flags: W
LayerCount: 2
Fore
SplineSet
559 1456 m 1,0,-1
 375 224 l 1,1,-1
 872 224 l 1,2,-1
 1056 1456 l 1,3,-1
 1347 1456 l 1,4,-1
 1163 224 l 1,5,-1
 1656 224 l 1,6,-1
 1840 1456 l 1,7,-1
 2132 1456 l 1,8,-1
 1914 0 l 1,9,-1
 49 0 l 1,10,-1
 267 1456 l 1,11,-1
 559 1456 l 1,0,-1
EndSplineSet
Validated: 1
EndChar

StartChar: uni0429
Encoding: 1065 1065 469
Width: 2275
GlyphClass: 1
Flags: W
LayerCount: 2
Fore
SplineSet
559 1456 m 1,0,-1
 375 224 l 1,1,-1
 872 224 l 1,2,-1
 1056 1456 l 1,3,-1
 1347 1456 l 1,4,-1
 1163 224 l 1,5,-1
 1656 224 l 1,6,-1
 1840 1456 l 1,7,-1
 2132 1456 l 1,8,-1
 1945 208 l 1,9,-1
 2171 208 l 1,10,-1
 2088 -349 l 1,11,-1
 1796 -349 l 1,12,-1
 1848 0 l 1,13,-1
 49 0 l 1,14,-1
 267 1456 l 1,15,-1
 559 1456 l 1,0,-1
EndSplineSet
Validated: 1
EndChar

StartChar: uni042A
Encoding: 1066 1066 470
Width: 1474
GlyphClass: 1
Flags: W
LayerCount: 2
Fore
SplineSet
144 1456 m 1,0,-1
 725 1456 l 1,1,-1
 648 944 l 1,2,-1
 899 944 l 2,3,4
 1140 944 1140 944 1272.5 811.5 c 128,-1,5
 1405 679 1405 679 1375 474 c 0,6,7
 1342 256 1342 256 1176 128 c 128,-1,8
 1010 0 1010 0 757 0 c 2,9,-1
 215 0 l 1,10,-1
 399 1231 l 1,11,-1
 111 1231 l 1,12,-1
 144 1456 l 1,0,-1
615 719 m 1,13,-1
 541 224 l 1,14,-1
 791 224 l 2,15,16
 908 224 908 224 988 298 c 128,-1,17
 1068 372 1068 372 1084 476 c 0,18,19
 1099 581 1099 581 1044 650 c 128,-1,20
 989 719 989 719 865 719 c 2,21,-1
 615 719 l 1,13,-1
EndSplineSet
Validated: 33
EndChar

StartChar: uni042B
Encoding: 1067 1067 471
Width: 1777
GlyphClass: 1
Flags: W
LayerCount: 2
Fore
SplineSet
485 944 m 1,0,-1
 736 944 l 2,1,2
 977 944 977 944 1109.5 811.5 c 128,-1,3
 1242 679 1242 679 1212 474 c 0,4,5
 1179 256 1179 256 1013 128 c 128,-1,6
 847 0 847 0 594 0 c 2,7,-1
 52 0 l 1,8,-1
 270 1456 l 1,9,-1
 562 1456 l 1,10,-1
 485 944 l 1,0,-1
1564 0 m 1,11,-1
 1272 0 l 1,12,-1
 1490 1456 l 1,13,-1
 1782 1456 l 1,14,-1
 1564 0 l 1,11,-1
452 719 m 1,15,-1
 378 224 l 1,16,-1
 628 224 l 2,17,18
 745 224 745 224 825 298 c 128,-1,19
 905 372 905 372 921 476 c 0,20,21
 936 581 936 581 881 650 c 128,-1,22
 826 719 826 719 702 719 c 2,23,-1
 452 719 l 1,15,-1
EndSplineSet
Validated: 33
EndChar

StartChar: uni042C
Encoding: 1068 1068 472
Width: 1283
GlyphClass: 1
Flags: W
LayerCount: 2
Fore
SplineSet
485 944 m 1,0,-1
 736 944 l 2,1,2
 977 944 977 944 1109.5 811.5 c 128,-1,3
 1242 679 1242 679 1212 474 c 0,4,5
 1179 256 1179 256 1013 128 c 128,-1,6
 847 0 847 0 594 0 c 2,7,-1
 52 0 l 1,8,-1
 270 1456 l 1,9,-1
 562 1456 l 1,10,-1
 485 944 l 1,0,-1
452 719 m 1,11,-1
 378 224 l 1,12,-1
 628 224 l 2,13,14
 745 224 745 224 825 298 c 128,-1,15
 905 372 905 372 921 476 c 0,16,17
 936 581 936 581 881 650 c 128,-1,18
 826 719 826 719 702 719 c 2,19,-1
 452 719 l 1,11,-1
EndSplineSet
Validated: 33
EndChar

StartChar: uni042D
Encoding: 1069 1069 473
Width: 1288
GlyphClass: 1
Flags: W
LayerCount: 2
Fore
SplineSet
161 974 m 1,0,-1
 159 980 l 1,1,2
 190 1222 190 1222 350.5 1350 c 128,-1,3
 511 1478 511 1478 771 1478 c 0,4,5
 1014 1478 1014 1478 1147.5 1307.5 c 128,-1,6
 1281 1137 1281 1137 1242 873 c 2,7,-1
 1199 584 l 2,8,9
 1157 306 1157 306 979.5 143 c 128,-1,10
 802 -20 802 -20 546 -20 c 0,11,12
 296 -20 296 -20 169 110 c 128,-1,13
 42 240 42 240 82 475 c 1,14,-1
 85 481 l 1,15,-1
 368 481 l 1,16,17
 346 334 346 334 396 269 c 128,-1,18
 446 204 446 204 580 204 c 0,19,20
 704 204 704 204 792 310 c 128,-1,21
 880 416 880 416 905 582 c 2,22,-1
 911 625 l 1,23,-1
 465 625 l 1,24,-1
 499 850 l 1,25,-1
 945 850 l 1,26,-1
 949 873 l 1,27,28
 975 1047 975 1047 921 1150 c 128,-1,29
 867 1253 867 1253 737 1253 c 0,30,31
 611 1253 611 1253 537.5 1183.5 c 128,-1,32
 464 1114 464 1114 444 974 c 1,33,-1
 161 974 l 1,0,-1
EndSplineSet
Validated: 33
EndChar

StartChar: uni042E
Encoding: 1070 1070 474
Width: 1935
GlyphClass: 1
Flags: W
LayerCount: 2
Fore
SplineSet
1802 597 m 2,0,1
 1759 318 1759 318 1566.5 148.5 c 128,-1,2
 1374 -21 1374 -21 1100 -21 c 0,3,4
 841 -21 841 -21 694 155.5 c 128,-1,5
 547 332 547 332 587 597 c 2,6,-1
 588 604 l 1,7,-1
 456 604 l 1,8,-1
 366 0 l 1,9,-1
 74 0 l 1,10,-1
 292 1456 l 1,11,-1
 584 1456 l 1,12,-1
 490 829 l 1,13,-1
 621 829 l 1,14,-1
 626 859 l 1,15,16
 667 1136 667 1136 858.5 1306.5 c 128,-1,17
 1050 1477 1050 1477 1323 1477 c 0,18,19
 1584 1477 1584 1477 1732 1299.5 c 128,-1,20
 1880 1122 1880 1122 1841 859 c 2,21,-1
 1802 597 l 2,0,1
1550 861 m 2,22,23
 1576 1037 1576 1037 1507.5 1143 c 128,-1,24
 1439 1249 1439 1249 1288 1249 c 0,25,26
 1145 1249 1145 1249 1043.5 1139 c 128,-1,27
 942 1029 942 1029 917 861 c 2,28,-1
 878 597 l 2,29,30
 851 418 851 418 917 312 c 128,-1,31
 983 206 983 206 1134 206 c 0,32,33
 1278 206 1278 206 1381 316 c 128,-1,34
 1484 426 1484 426 1511 597 c 2,35,-1
 1550 861 l 2,22,23
EndSplineSet
Validated: 33
EndChar

StartChar: uni042F
Encoding: 1071 1071 475
Width: 1203
GlyphClass: 1
Flags: W
LayerCount: 2
Fore
SplineSet
204 0 m 1,0,-1
 -112 0 l 1,1,-1
 300 649 l 1,2,3
 194 707 194 707 150 799 c 128,-1,4
 106 891 106 891 126 1023 c 0,5,6
 156 1227 156 1227 320.5 1341.5 c 128,-1,7
 485 1456 485 1456 726 1456 c 2,8,-1
 1231 1456 l 1,9,-1
 1013 0 l 1,10,-1
 721 0 l 1,11,-1
 805 561 l 1,12,-1
 558 561 l 1,13,-1
 204 0 l 1,0,-1
906 1231 m 1,14,-1
 693 1231 l 2,15,16
 571 1231 571 1231 501 1174.5 c 128,-1,17
 431 1118 431 1118 416 1010 c 0,18,19
 399 906 399 906 455 840 c 128,-1,20
 511 774 511 774 624 774 c 2,21,-1
 837 774 l 1,22,-1
 906 1231 l 1,14,-1
EndSplineSet
Validated: 33
EndChar

StartChar: uni0431
Encoding: 1073 1073 477
Width: 1148
GlyphClass: 1
Flags: W
LayerCount: 2
Fore
SplineSet
685 1102 m 0,0,1
 904 1102 904 1102 1014 946 c 128,-1,2
 1124 790 1124 790 1089 551 c 2,3,-1
 1086 530 l 2,4,5
 1047 277 1047 277 891 128 c 128,-1,6
 735 -21 735 -21 494 -21 c 0,7,8
 262 -21 262 -21 145 134 c 128,-1,9
 28 289 28 289 65 530 c 2,10,-1
 68 551 l 1,11,-1
 71 567 l 1,12,-1
 106 802 l 2,13,14
 157 1137 157 1137 300 1284 c 128,-1,15
 443 1431 443 1431 705 1438 c 0,16,17
 837 1441 837 1441 903.5 1468 c 128,-1,18
 970 1495 970 1495 980 1557 c 1,19,-1
 1205 1557 l 1,20,-1
 1206 1551 l 1,21,22
 1181 1351 1181 1351 1060 1280.5 c 128,-1,23
 939 1210 939 1210 695 1206 c 0,24,25
 547 1203 547 1203 462 1143 c 128,-1,26
 377 1083 377 1083 368 981 c 1,27,-1
 371 976 l 1,28,29
 429 1030 429 1030 512.5 1066 c 128,-1,30
 596 1102 596 1102 685 1102 c 0,0,1
627 877 m 0,31,32
 518 877 518 877 449.5 784.5 c 128,-1,33
 381 692 381 692 360 551 c 2,34,-1
 357 530 l 2,35,36
 333 377 333 377 372 290 c 128,-1,37
 411 203 411 203 527 203 c 0,38,39
 635 203 635 203 704 294 c 128,-1,40
 773 385 773 385 795 530 c 2,41,-1
 798 551 l 2,42,43
 819 700 819 700 780.5 788.5 c 128,-1,44
 742 877 742 877 627 877 c 0,31,32
EndSplineSet
Validated: 33
EndChar

StartChar: uni0432
Encoding: 1074 1074 478
Width: 1156
GlyphClass: 1
Flags: W
LayerCount: 2
Fore
SplineSet
47 0 m 1,0,-1
 209 1082 l 1,1,-1
 661 1082 l 2,2,3
 870 1082 870 1082 982.5 1005 c 128,-1,4
 1095 928 1095 928 1073 780 c 0,5,6
 1060 701 1060 701 1002 643 c 128,-1,7
 944 585 944 585 847 554 c 1,8,9
 965 530 965 530 1018 464 c 128,-1,10
 1071 398 1071 398 1058 309 c 0,11,12
 1034 150 1034 150 910 75 c 128,-1,13
 786 0 786 0 569 0 c 2,14,-1
 47 0 l 1,0,-1
407 451 m 1,15,-1
 372 222 l 1,16,-1
 602 222 l 2,17,18
 676 222 676 222 718.5 250.5 c 128,-1,19
 761 279 761 279 770 335 c 0,20,21
 779 393 779 393 748.5 422 c 128,-1,22
 718 451 718 451 637 451 c 2,23,-1
 407 451 l 1,15,-1
435 641 m 1,24,-1
 611 641 l 2,25,26
 686 642 686 642 727.5 668 c 128,-1,27
 769 694 769 694 777 745 c 0,28,29
 785 806 785 806 749 832.5 c 128,-1,30
 713 859 713 859 628 859 c 2,31,-1
 468 859 l 1,32,-1
 435 641 l 1,24,-1
EndSplineSet
Validated: 33
EndChar

StartChar: uni0433
Encoding: 1075 1075 479
Width: 855
GlyphClass: 1
Flags: W
LayerCount: 2
Fore
SplineSet
894 856 m 1,0,-1
 447 856 l 1,1,-1
 319 0 l 1,2,-1
 27 0 l 1,3,-1
 189 1082 l 1,4,-1
 928 1082 l 1,5,-1
 894 856 l 1,0,-1
EndSplineSet
Validated: 1
EndChar

StartChar: uni0434
Encoding: 1076 1076 480
Width: 1365
GlyphClass: 1
Flags: W
LayerCount: 2
Fore
SplineSet
96 224 m 1,0,-1
 96 225 l 1,1,-1
 127 225 l 2,2,3
 203 225 203 225 251.5 321.5 c 128,-1,4
 300 418 300 418 344 639 c 2,5,-1
 432 1082 l 1,6,-1
 1233 1082 l 1,7,-1
 1104 224 l 1,8,-1
 1254 224 l 1,9,-1
 1166 -358 l 1,10,-1
 874 -358 l 1,11,-1
 928 0 l 1,12,-1
 285 0 l 1,13,-1
 231 -358 l 1,14,-1
 -61 -358 l 1,15,-1
 27 224 l 1,16,-1
 96 224 l 1,0,-1
635 639 m 2,17,18
 608 505 608 505 574 402 c 128,-1,19
 540 299 540 299 496 224 c 1,20,-1
 813 224 l 1,21,-1
 907 849 l 1,22,-1
 677 849 l 1,23,-1
 635 639 l 2,17,18
EndSplineSet
Validated: 1
EndChar

StartChar: uni0436
Encoding: 1078 1078 482
Width: 1661
GlyphClass: 1
Flags: W
LayerCount: 2
Fore
SplineSet
1036 408 m 1,0,-1
 955 408 l 1,1,-1
 894 0 l 1,2,-1
 604 0 l 1,3,-1
 665 408 l 1,4,-1
 585 408 l 1,5,-1
 311 0 l 1,6,-1
 -63 0 l 1,7,-1
 379 585 l 1,8,-1
 117 1082 l 1,9,-1
 485 1082 l 1,10,-1
 647 674 l 1,11,-1
 705 674 l 1,12,-1
 766 1082 l 1,13,-1
 1056 1082 l 1,14,-1
 995 674 l 1,15,-1
 1056 674 l 1,16,-1
 1339 1082 l 1,17,-1
 1701 1082 l 1,18,-1
 1704 1077 l 1,19,-1
 1297 586 l 1,20,-1
 1562 0 l 1,21,-1
 1189 0 l 1,22,-1
 1036 408 l 1,0,-1
EndSplineSet
Validated: 1
EndChar

StartChar: uni0437
Encoding: 1079 1079 483
Width: 1140
GlyphClass: 1
Flags: W
LayerCount: 2
Fore
SplineSet
1071 786 m 0,0,1
 1059 710 1059 710 1002 650 c 128,-1,2
 945 590 945 590 854 555 c 1,3,4
 945 522 945 522 988.5 458.5 c 128,-1,5
 1032 395 1032 395 1019 306 c 0,6,7
 995 149 995 149 844 64.5 c 128,-1,8
 693 -20 693 -20 471 -20 c 0,9,10
 285 -20 285 -20 156.5 66.5 c 128,-1,11
 28 153 28 153 58 314 c 1,12,-1
 60 320 l 1,13,-1
 342 320 l 1,14,15
 333 263 333 263 379 226.5 c 128,-1,16
 425 190 425 190 519 190 c 0,17,18
 607 190 607 190 664.5 230 c 128,-1,19
 722 270 722 270 731 325 c 0,20,21
 741 397 741 397 696.5 428.5 c 128,-1,22
 652 460 652 460 557 460 c 2,23,-1
 381 460 l 1,24,-1
 389 516 l 1,25,-1
 398 578 l 1,26,-1
 400 588 l 1,27,-1
 409 646 l 1,28,-1
 585 646 l 2,29,30
 667 646 667 646 717.5 678 c 128,-1,31
 768 710 768 710 777 765 c 0,32,33
 784 818 784 818 747 853.5 c 128,-1,34
 710 889 710 889 622 889 c 0,35,36
 545 889 545 889 490 857 c 128,-1,37
 435 825 435 825 427 771 c 1,38,-1
 146 771 l 1,39,-1
 145 777 l 1,40,41
 161 928 161 928 301.5 1014.5 c 128,-1,42
 442 1101 442 1101 639 1101 c 0,43,44
 850 1101 850 1101 971.5 1018 c 128,-1,45
 1093 935 1093 935 1071 786 c 0,0,1
EndSplineSet
Validated: 33
EndChar

StartChar: uni0438
Encoding: 1080 1080 484
Width: 1156
GlyphClass: 1
Flags: W
LayerCount: 2
Fore
SplineSet
840 1082 m 1,0,-1
 1131 1082 l 1,1,-1
 969 0 l 1,2,-1
 678 0 l 1,3,-1
 776 658 l 1,4,-1
 770 660 l 1,5,-1
 319 0 l 1,6,-1
 27 0 l 1,7,-1
 189 1082 l 1,8,-1
 481 1082 l 1,9,-1
 382 424 l 1,10,-1
 388 422 l 1,11,-1
 840 1082 l 1,0,-1
EndSplineSet
Validated: 1
EndChar

StartChar: uni043A
Encoding: 1082 1082 486
Width: 1167
GlyphClass: 1
Flags: W
LayerCount: 2
Fore
SplineSet
514 405 m 1,0,-1
 401 405 l 1,1,-1
 341 0 l 1,2,-1
 49 0 l 1,3,-1
 211 1082 l 1,4,-1
 503 1082 l 1,5,-1
 441 670 l 1,6,-1
 529 670 l 1,7,-1
 838 1082 l 1,8,-1
 1200 1082 l 1,9,-1
 1202 1077 l 1,10,-1
 774 580 l 1,11,-1
 1077 0 l 1,12,-1
 688 0 l 1,13,-1
 514 405 l 1,0,-1
EndSplineSet
Validated: 1
EndChar

StartChar: uni043B
Encoding: 1083 1083 487
Width: 1149
GlyphClass: 1
Flags: W
LayerCount: 2
Fore
SplineSet
1131 1082 m 1,0,-1
 969 0 l 1,1,-1
 678 0 l 1,2,-1
 806 856 l 1,3,-1
 546 856 l 1,4,-1
 511 621 l 2,5,6
 461 289 461 289 342.5 144.5 c 128,-1,7
 224 0 224 0 -15 0 c 2,8,-1
 -62 0 l 1,9,-1
 -31 230 l 1,10,-1
 1 231 l 2,11,12
 97 231 97 231 141.5 315 c 128,-1,13
 186 399 186 399 219 621 c 2,14,-1
 288 1082 l 1,15,-1
 1131 1082 l 1,0,-1
EndSplineSet
Validated: 1
EndChar

StartChar: uni043C
Encoding: 1084 1084 488
Width: 1557
GlyphClass: 1
Flags: W
LayerCount: 2
Fore
SplineSet
737 341 m 1,0,-1
 743 340 l 1,1,-1
 1133 1082 l 1,2,-1
 1498 1082 l 1,3,-1
 1336 0 l 1,4,-1
 1045 0 l 1,5,-1
 1141 645 l 1,6,-1
 1136 647 l 1,7,-1
 788 0 l 1,8,-1
 592 0 l 1,9,-1
 442 633 l 1,10,-1
 436 632 l 1,11,-1
 341 0 l 1,12,-1
 49 0 l 1,13,-1
 211 1082 l 1,14,-1
 573 1082 l 1,15,-1
 737 341 l 1,0,-1
EndSplineSet
Validated: 1
EndChar

StartChar: uni043D
Encoding: 1085 1085 489
Width: 1156
GlyphClass: 1
Flags: W
LayerCount: 2
Fore
SplineSet
967 0 m 1,0,-1
 675 0 l 1,1,-1
 738 420 l 1,2,-1
 382 420 l 1,3,-1
 319 0 l 1,4,-1
 27 0 l 1,5,-1
 189 1082 l 1,6,-1
 481 1082 l 1,7,-1
 415 644 l 1,8,-1
 771 644 l 1,9,-1
 837 1082 l 1,10,-1
 1129 1082 l 1,11,-1
 967 0 l 1,0,-1
EndSplineSet
Validated: 1
EndChar

StartChar: uni043F
Encoding: 1087 1087 491
Width: 1156
GlyphClass: 1
Flags: W
LayerCount: 2
Fore
SplineSet
969 0 m 1,0,-1
 677 0 l 1,1,-1
 805 856 l 1,2,-1
 447 856 l 1,3,-1
 319 0 l 1,4,-1
 27 0 l 1,5,-1
 189 1082 l 1,6,-1
 1131 1082 l 1,7,-1
 969 0 l 1,0,-1
EndSplineSet
Validated: 1
EndChar

StartChar: uni0441
Encoding: 1089 1089 493
Width: 1056
GlyphClass: 1
Flags: W
LayerCount: 2
Fore
SplineSet
514 203 m 0,0,1
 587 203 587 203 640.5 249 c 128,-1,2
 694 295 694 295 706 370 c 1,3,-1
 971 370 l 1,4,-1
 973 364 l 1,5,6
 951 194 951 194 810.5 86.5 c 128,-1,7
 670 -21 670 -21 481 -21 c 0,8,9
 250 -21 250 -21 137.5 134.5 c 128,-1,10
 25 290 25 290 61 525 c 1,11,-1
 65 555 l 1,12,13
 102 802 102 802 254 952 c 128,-1,14
 406 1102 406 1102 647 1102 c 0,15,16
 838 1102 838 1102 945.5 987 c 128,-1,17
 1053 872 1053 872 1021 687 c 1,18,-1
 1019 682 l 1,19,-1
 752 682 l 1,20,21
 765 768 765 768 729.5 822.5 c 128,-1,22
 694 877 694 877 614 877 c 0,23,24
 505 877 505 877 441.5 785 c 128,-1,25
 378 693 378 693 357 555 c 2,26,-1
 353 525 l 2,27,28
 330 376 330 376 364 289.5 c 128,-1,29
 398 203 398 203 514 203 c 0,0,1
EndSplineSet
Validated: 33
EndChar

StartChar: uni0442
Encoding: 1090 1090 494
Width: 1070
GlyphClass: 1
Flags: W
LayerCount: 2
Fore
SplineSet
1077 859 m 1,0,-1
 730 859 l 1,1,-1
 602 0 l 1,2,-1
 309 0 l 1,3,-1
 437 859 l 1,4,-1
 97 859 l 1,5,-1
 130 1082 l 1,6,-1
 1110 1082 l 1,7,-1
 1077 859 l 1,0,-1
EndSplineSet
Validated: 1
EndChar

StartChar: uni0444
Encoding: 1092 1092 496
Width: 1790
GlyphClass: 1
Flags: W
LayerCount: 2
Fore
SplineSet
62 532 m 2,0,1
 101 798 101 798 234 950 c 128,-1,2
 367 1102 367 1102 570 1102 c 0,3,4
 649 1102 649 1102 708 1068.5 c 128,-1,5
 767 1035 767 1035 808 972 c 1,6,-1
 896 1560 l 1,7,-1
 1188 1560 l 1,8,-1
 1100 975 l 1,9,10
 1158 1036 1158 1036 1227 1069 c 128,-1,11
 1296 1102 1296 1102 1380 1102 c 0,12,13
 1573 1102 1573 1102 1664.5 943 c 128,-1,14
 1756 784 1756 784 1719 532 c 2,15,-1
 1716 511 l 2,16,17
 1678 262 1678 262 1547 120.5 c 128,-1,18
 1416 -21 1416 -21 1214 -21 c 0,19,20
 1131 -21 1131 -21 1070.5 11 c 128,-1,21
 1010 43 1010 43 970 104 c 1,22,-1
 892 -416 l 1,23,-1
 600 -416 l 1,24,-1
 677 97 l 1,25,26
 619 39 619 39 550.5 9 c 128,-1,27
 482 -21 482 -21 400 -21 c 0,28,29
 209 -21 209 -21 116 127 c 128,-1,30
 23 275 23 275 59 511 c 2,31,-1
 62 532 l 2,0,1
1426 532 m 2,32,33
 1450 690 1450 690 1414 783.5 c 128,-1,34
 1378 877 1378 877 1271 877 c 0,35,36
 1208 877 1208 877 1157 848.5 c 128,-1,37
 1106 820 1106 820 1069 769 c 1,38,-1
 999 296 l 1,39,40
 1019 251 1019 251 1061.5 227 c 128,-1,41
 1104 203 1104 203 1171 203 c 0,42,43
 1273 203 1273 203 1337 287 c 128,-1,44
 1401 371 1401 371 1423 511 c 2,45,-1
 1426 532 l 2,32,33
351 511 m 2,46,47
 328 363 328 363 363.5 283 c 128,-1,48
 399 203 399 203 507 203 c 0,49,50
 570 203 570 203 620.5 228 c 128,-1,51
 671 253 671 253 707 301 c 1,52,-1
 778 777 l 1,53,54
 757 825 757 825 715.5 851 c 128,-1,55
 674 877 674 877 611 877 c 0,56,57
 509 877 509 877 442.5 780 c 128,-1,58
 376 683 376 683 354 532 c 2,59,-1
 351 511 l 2,46,47
EndSplineSet
Validated: 33
EndChar

StartChar: uni0446
Encoding: 1094 1094 498
Width: 1247
GlyphClass: 1
Flags: W
LayerCount: 2
Fore
SplineSet
189 1082 m 1,0,-1
 481 1082 l 1,1,-1
 353 224 l 1,2,-1
 711 224 l 1,3,-1
 839 1082 l 1,4,-1
 1131 1082 l 1,5,-1
 1002 224 l 1,6,-1
 1159 224 l 1,7,-1
 1071 -358 l 1,8,-1
 780 -358 l 1,9,-1
 834 0 l 1,10,-1
 27 0 l 1,11,-1
 189 1082 l 1,0,-1
EndSplineSet
Validated: 1
EndChar

StartChar: uni0447
Encoding: 1095 1095 499
Width: 1147
GlyphClass: 1
Flags: W
LayerCount: 2
Fore
SplineSet
961 0 m 1,0,-1
 669 0 l 1,1,-1
 720 343 l 1,2,3
 682 335 682 335 643 331.5 c 128,-1,4
 604 328 604 328 570 328 c 0,5,6
 339 328 339 328 220.5 431 c 128,-1,7
 102 534 102 534 134 742 c 2,8,-1
 185 1082 l 1,9,-1
 477 1082 l 1,10,-1
 426 742 l 2,11,12
 410 631 410 631 450.5 592 c 128,-1,13
 491 553 491 553 604 553 c 0,14,15
 641 553 641 553 678.5 556.5 c 128,-1,16
 716 560 716 560 754 569 c 1,17,-1
 831 1082 l 1,18,-1
 1123 1082 l 1,19,-1
 961 0 l 1,0,-1
EndSplineSet
Validated: 33
EndChar

StartChar: uni0448
Encoding: 1096 1096 500
Width: 1691
GlyphClass: 1
Flags: W
LayerCount: 2
Fore
SplineSet
481 1082 m 1,0,-1
 353 224 l 1,1,-1
 647 224 l 1,2,-1
 775 1082 l 1,3,-1
 1068 1082 l 1,4,-1
 940 224 l 1,5,-1
 1234 224 l 1,6,-1
 1362 1082 l 1,7,-1
 1654 1082 l 1,8,-1
 1492 0 l 1,9,-1
 27 0 l 1,10,-1
 189 1082 l 1,11,-1
 481 1082 l 1,0,-1
EndSplineSet
Validated: 1
EndChar

StartChar: uni0449
Encoding: 1097 1097 501
Width: 1855
GlyphClass: 1
Flags: W
LayerCount: 2
Fore
SplineSet
481 1082 m 1,0,-1
 353 224 l 1,1,-1
 647 224 l 1,2,-1
 775 1082 l 1,3,-1
 1068 1082 l 1,4,-1
 940 224 l 1,5,-1
 1234 224 l 1,6,-1
 1362 1082 l 1,7,-1
 1654 1082 l 1,8,-1
 1526 229 l 1,9,-1
 1749 229 l 1,10,-1
 1661 -360 l 1,11,-1
 1369 -360 l 1,12,-1
 1423 0 l 1,13,-1
 27 0 l 1,14,-1
 189 1082 l 1,15,-1
 481 1082 l 1,0,-1
EndSplineSet
Validated: 1
EndChar

StartChar: uni044A
Encoding: 1098 1098 502
Width: 1302
GlyphClass: 1
Flags: W
LayerCount: 2
Fore
SplineSet
96 1082 m 1,0,-1
 702 1082 l 1,1,-1
 649 732 l 1,2,-1
 853 732 l 2,3,4
 1062 732 1062 732 1176 630.5 c 128,-1,5
 1290 529 1290 529 1266 368 c 0,6,7
 1240 197 1240 197 1101.5 98.5 c 128,-1,8
 963 0 963 0 743 0 c 2,9,-1
 247 0 l 1,10,-1
 375 856 l 1,11,-1
 62 856 l 1,12,-1
 96 1082 l 1,0,-1
616 508 m 1,13,-1
 573 223 l 1,14,-1
 776 223 l 2,15,16
 862 223 862 223 913.5 263.5 c 128,-1,17
 965 304 965 304 975 366 c 0,18,19
 984 429 984 429 946.5 468.5 c 128,-1,20
 909 508 909 508 819 508 c 2,21,-1
 616 508 l 1,13,-1
EndSplineSet
Validated: 33
EndChar

StartChar: uni044B
Encoding: 1099 1099 503
Width: 1703
GlyphClass: 1
Flags: W
LayerCount: 2
Fore
SplineSet
471 732 m 1,0,-1
 675 732 l 2,1,2
 884 732 884 732 998 630.5 c 128,-1,3
 1112 529 1112 529 1088 368 c 0,4,5
 1062 197 1062 197 923.5 98.5 c 128,-1,6
 785 0 785 0 565 0 c 2,7,-1
 69 0 l 1,8,-1
 231 1082 l 1,9,-1
 524 1082 l 1,10,-1
 471 732 l 1,0,-1
1427 0 m 1,11,-1
 1135 0 l 1,12,-1
 1297 1082 l 1,13,-1
 1589 1082 l 1,14,-1
 1427 0 l 1,11,-1
438 508 m 1,15,-1
 395 223 l 1,16,-1
 598 223 l 2,17,18
 684 223 684 223 735.5 263.5 c 128,-1,19
 787 304 787 304 797 366 c 0,20,21
 806 429 806 429 768.5 468.5 c 128,-1,22
 731 508 731 508 641 508 c 2,23,-1
 438 508 l 1,15,-1
EndSplineSet
Validated: 33
EndChar

StartChar: uni044C
Encoding: 1100 1100 504
Width: 1143
GlyphClass: 1
Flags: W
LayerCount: 2
Fore
SplineSet
451 732 m 1,0,-1
 655 732 l 2,1,2
 864 732 864 732 978 630.5 c 128,-1,3
 1092 529 1092 529 1068 368 c 0,4,5
 1042 197 1042 197 903.5 98.5 c 128,-1,6
 765 0 765 0 545 0 c 2,7,-1
 49 0 l 1,8,-1
 211 1082 l 1,9,-1
 504 1082 l 1,10,-1
 451 732 l 1,0,-1
418 508 m 1,11,-1
 375 223 l 1,12,-1
 578 223 l 2,13,14
 664 223 664 223 715.5 263.5 c 128,-1,15
 767 304 767 304 777 366 c 0,16,17
 786 429 786 429 748.5 468.5 c 128,-1,18
 711 508 711 508 621 508 c 2,19,-1
 418 508 l 1,11,-1
EndSplineSet
Validated: 33
EndChar

StartChar: uni044D
Encoding: 1101 1101 505
Width: 1064
GlyphClass: 1
Flags: W
LayerCount: 2
Fore
SplineSet
557 877 m 0,0,1
 483 877 483 877 428.5 830.5 c 128,-1,2
 374 784 374 784 363 711 c 1,3,-1
 98 711 l 1,4,-1
 96 717 l 1,5,6
 116 886 116 886 258 994 c 128,-1,7
 400 1102 400 1102 590 1102 c 0,8,9
 818 1102 818 1102 931 945.5 c 128,-1,10
 1044 789 1044 789 1009 555 c 2,11,-1
 1005 525 l 1,12,13
 967 278 967 278 814.5 128.5 c 128,-1,14
 662 -21 662 -21 423 -21 c 0,15,16
 231 -21 231 -21 122.5 94 c 128,-1,17
 14 209 14 209 47 394 c 1,18,-1
 49 399 l 1,19,-1
 316 399 l 1,20,21
 302 311 302 311 339 257 c 128,-1,22
 376 203 376 203 456 203 c 0,23,24
 548 203 548 203 608.5 273 c 128,-1,25
 669 343 669 343 694 452 c 1,26,-1
 691 458 l 1,27,-1
 412 458 l 1,28,-1
 438 633 l 1,29,-1
 725 633 l 1,30,31
 731 746 731 746 692 811.5 c 128,-1,32
 653 877 653 877 557 877 c 0,0,1
EndSplineSet
Validated: 33
EndChar

StartChar: uni044E
Encoding: 1102 1102 506
Width: 1662
GlyphClass: 1
Flags: W
LayerCount: 2
Fore
SplineSet
444 663 m 1,0,-1
 600 663 l 1,1,2
 658 866 658 866 806 984 c 128,-1,3
 954 1102 954 1102 1167 1102 c 0,4,5
 1398 1102 1398 1102 1515 946 c 128,-1,6
 1632 790 1632 790 1597 551 c 2,7,-1
 1594 530 l 2,8,9
 1555 277 1555 277 1399 128 c 128,-1,10
 1243 -21 1243 -21 1001 -21 c 0,11,12
 793 -21 793 -21 676.5 106 c 128,-1,13
 560 233 560 233 565 438 c 1,14,-1
 410 438 l 1,15,-1
 345 0 l 1,16,-1
 53 0 l 1,17,-1
 215 1082 l 1,18,-1
 507 1082 l 1,19,-1
 444 663 l 1,0,-1
864 530 m 2,20,21
 840 377 840 377 879 290 c 128,-1,22
 918 203 918 203 1034 203 c 0,23,24
 1142 203 1142 203 1211 294 c 128,-1,25
 1280 385 1280 385 1302 530 c 2,26,-1
 1305 551 l 2,27,28
 1326 700 1326 700 1287.5 788.5 c 128,-1,29
 1249 877 1249 877 1134 877 c 0,30,31
 1025 877 1025 877 956 784.5 c 128,-1,32
 887 692 887 692 867 551 c 2,33,-1
 864 530 l 2,20,21
EndSplineSet
Validated: 33
EndChar

StartChar: uni044F
Encoding: 1103 1103 507
Width: 1156
GlyphClass: 1
Flags: W
LayerCount: 2
Fore
SplineSet
1106 1082 m 1,0,-1
 944 0 l 1,1,-1
 654 0 l 1,2,-1
 711 379 l 1,3,-1
 535 379 l 1,4,-1
 266 0 l 1,5,-1
 -29 0 l 1,6,-1
 276 430 l 1,7,8
 184 474 184 474 140.5 550.5 c 128,-1,9
 97 627 97 627 112 723 c 0,10,11
 136 886 136 886 275.5 984 c 128,-1,12
 415 1082 415 1082 630 1082 c 2,13,-1
 1106 1082 l 1,0,-1
403 715 m 0,14,15
 394 657 394 657 431 616.5 c 128,-1,16
 468 576 468 576 549 576 c 2,17,-1
 740 576 l 1,18,-1
 783 859 l 1,19,-1
 597 859 l 2,20,21
 518 859 518 859 464.5 814.5 c 128,-1,22
 411 770 411 770 403 715 c 0,14,15
EndSplineSet
Validated: 33
EndChar

StartChar: uni0452
Encoding: 1106 1106 510
Width: 1156
GlyphClass: 1
Flags: W
LayerCount: 2
Fore
SplineSet
655 1206 m 1,0,-1
 498 1206 l 1,1,-1
 459 951 l 1,2,3
 522 1023 522 1023 601.5 1062.5 c 128,-1,4
 681 1102 681 1102 771 1102 c 0,5,6
 934 1102 934 1102 1016.5 988.5 c 128,-1,7
 1099 875 1099 875 1064 642 c 2,8,-1
 1038 470 l 1,9,-1
 1040 470 l 1,10,-1
 963 -41 l 2,11,12
 933 -238 933 -238 818 -337.5 c 128,-1,13
 703 -437 703 -437 521 -437 c 0,14,15
 482 -437 482 -437 448.5 -433 c 128,-1,16
 415 -429 415 -429 380 -420 c 1,17,-1
 427 -200 l 1,18,19
 448 -206 448 -206 472.5 -209 c 128,-1,20
 497 -212 497 -212 524 -212 c 0,21,22
 579 -212 579 -212 618 -167 c 128,-1,23
 657 -122 657 -122 670 -41 c 2,24,-1
 676 0 l 1,25,-1
 747 470 l 1,26,-1
 773 644 l 2,27,28
 792 775 792 775 759.5 825 c 128,-1,29
 727 875 727 875 645 875 c 0,30,31
 579 875 579 875 526.5 852 c 128,-1,32
 474 829 474 829 435 787 c 1,33,-1
 317 0 l 1,34,-1
 25 0 l 1,35,-1
 206 1206 l 1,36,-1
 66 1206 l 1,37,-1
 93 1386 l 1,38,-1
 233 1386 l 1,39,-1
 259 1560 l 1,40,-1
 551 1560 l 1,41,-1
 525 1386 l 1,42,-1
 682 1386 l 1,43,-1
 655 1206 l 1,0,-1
EndSplineSet
Validated: 33
EndChar

StartChar: uni0454
Encoding: 1108 1108 512
Width: 1064
GlyphClass: 1
Flags: W
LayerCount: 2
Fore
SplineSet
514 203 m 0,0,1
 587 203 587 203 640.5 249 c 128,-1,2
 694 295 694 295 706 370 c 1,3,-1
 971 370 l 1,4,-1
 973 364 l 1,5,6
 951 194 951 194 810.5 86.5 c 128,-1,7
 670 -21 670 -21 481 -21 c 0,8,9
 250 -21 250 -21 137.5 134.5 c 128,-1,10
 25 290 25 290 61 525 c 1,11,-1
 65 555 l 1,12,13
 102 802 102 802 254 952 c 128,-1,14
 406 1102 406 1102 647 1102 c 0,15,16
 838 1102 838 1102 945.5 987 c 128,-1,17
 1053 872 1053 872 1021 687 c 1,18,-1
 1019 682 l 1,19,-1
 752 682 l 1,20,21
 765 768 765 768 729.5 822.5 c 128,-1,22
 694 877 694 877 614 877 c 0,23,24
 518 877 518 877 457.5 805 c 128,-1,25
 397 733 397 733 374 623 c 1,26,-1
 377 617 l 1,27,-1
 673 617 l 1,28,-1
 646 442 l 1,29,-1
 344 442 l 1,30,31
 338 330 338 330 376.5 266.5 c 128,-1,32
 415 203 415 203 514 203 c 0,0,1
EndSplineSet
Validated: 33
EndChar

StartChar: uni0459
Encoding: 1113 1113 517
Width: 1771
GlyphClass: 1
Flags: W
LayerCount: 2
Fore
SplineSet
1132 1082 m 1,0,-1
 1079 733 l 1,1,-1
 1283 733 l 2,2,3
 1493 733 1493 733 1607 631 c 128,-1,4
 1721 529 1721 529 1697 368 c 0,5,6
 1671 197 1671 197 1532.5 98.5 c 128,-1,7
 1394 0 1394 0 1173 0 c 2,8,-1
 678 0 l 1,9,-1
 806 856 l 1,10,-1
 574 856 l 1,11,-1
 539 621 l 2,12,13
 489 293 489 293 363 146.5 c 128,-1,14
 237 0 237 0 -5 0 c 2,15,-1
 -52 0 l 1,16,-1
 -21 227 l 1,17,-1
 10 227 l 2,18,19
 96 227 96 227 156.5 324.5 c 128,-1,20
 217 422 217 422 247 621 c 2,21,-1
 316 1082 l 1,22,-1
 1132 1082 l 1,0,-1
1046 508 m 1,23,-1
 1003 222 l 1,24,-1
 1206 222 l 2,25,26
 1292 222 1292 222 1344.5 264.5 c 128,-1,27
 1397 307 1397 307 1407 370 c 0,28,29
 1415 432 1415 432 1377.5 470 c 128,-1,30
 1340 508 1340 508 1249 508 c 2,31,-1
 1046 508 l 1,23,-1
EndSplineSet
Validated: 33
EndChar

StartChar: uni045A
Encoding: 1114 1114 518
Width: 1768
GlyphClass: 1
Flags: W
LayerCount: 2
Fore
SplineSet
418 665 m 1,0,-1
 774 665 l 1,1,-1
 837 1082 l 1,2,-1
 1129 1082 l 1,3,-1
 1076 732 l 1,4,-1
 1280 732 l 2,5,6
 1489 732 1489 732 1603 630.5 c 128,-1,7
 1717 529 1717 529 1693 368 c 0,8,9
 1667 197 1667 197 1528.5 98.5 c 128,-1,10
 1390 0 1390 0 1170 0 c 2,11,-1
 675 0 l 1,12,-1
 741 441 l 1,13,-1
 385 441 l 1,14,-1
 319 0 l 1,15,-1
 27 0 l 1,16,-1
 189 1082 l 1,17,-1
 481 1082 l 1,18,-1
 418 665 l 1,0,-1
1043 508 m 1,19,-1
 1000 222 l 1,20,-1
 1203 222 l 2,21,22
 1288 222 1288 222 1340.5 264.5 c 128,-1,23
 1393 307 1393 307 1403 370 c 0,24,25
 1411 432 1411 432 1373.5 470 c 128,-1,26
 1336 508 1336 508 1246 508 c 2,27,-1
 1043 508 l 1,19,-1
EndSplineSet
Validated: 33
EndChar

StartChar: uni045B
Encoding: 1115 1115 519
Width: 1156
GlyphClass: 1
Flags: W
LayerCount: 2
Fore
SplineSet
802 1211 m 1,0,-1
 498 1211 l 1,1,-1
 459 951 l 1,2,3
 522 1023 522 1023 601.5 1062.5 c 128,-1,4
 681 1102 681 1102 771 1102 c 0,5,6
 934 1102 934 1102 1016.5 988.5 c 128,-1,7
 1099 875 1099 875 1064 642 c 2,8,-1
 968 0 l 1,9,-1
 676 0 l 1,10,-1
 773 644 l 2,11,12
 792 775 792 775 759.5 825 c 128,-1,13
 727 875 727 875 645 875 c 0,14,15
 579 875 579 875 526.5 852 c 128,-1,16
 474 829 474 829 435 787 c 1,17,-1
 317 0 l 1,18,-1
 25 0 l 1,19,-1
 206 1211 l 1,20,-1
 131 1211 l 1,21,-1
 158 1392 l 1,22,-1
 233 1392 l 1,23,-1
 259 1560 l 1,24,-1
 551 1560 l 1,25,-1
 525 1392 l 1,26,-1
 829 1392 l 1,27,-1
 802 1211 l 1,0,-1
EndSplineSet
Validated: 33
EndChar

StartChar: uni045F
Encoding: 1119 1119 523
Width: 1156
GlyphClass: 1
Flags: W
LayerCount: 2
Fore
SplineSet
481 1082 m 1,0,-1
 353 224 l 1,1,-1
 711 224 l 1,2,-1
 839 1082 l 1,3,-1
 1131 1082 l 1,4,-1
 969 0 l 1,5,-1
 644 0 l 1,6,-1
 590 -358 l 1,7,-1
 299 -358 l 1,8,-1
 353 0 l 1,9,-1
 27 0 l 1,10,-1
 189 1082 l 1,11,-1
 481 1082 l 1,0,-1
EndSplineSet
Validated: 1
EndChar

StartChar: uni0460
Encoding: 1120 1120 524
Width: 1964
GlyphClass: 1
Flags: W
LayerCount: 2
Fore
SplineSet
1232 1435 m 1,0,1
 1292 1455 1292 1455 1359.5 1466 c 128,-1,2
 1427 1477 1427 1477 1498 1477 c 0,3,4
 1715 1477 1715 1477 1839.5 1308.5 c 128,-1,5
 1964 1140 1964 1140 1925 880 c 2,6,-1
 1879 576 l 2,7,8
 1838 301 1838 301 1665.5 140 c 128,-1,9
 1493 -21 1493 -21 1255 -21 c 0,10,11
 1148 -21 1148 -21 1064 2 c 128,-1,12
 980 25 980 25 918 66 c 1,13,14
 845 25 845 25 754 2 c 128,-1,15
 663 -21 663 -21 551 -21 c 0,16,17
 324 -21 324 -21 194.5 147 c 128,-1,18
 65 315 65 315 105 576 c 2,19,-1
 151 880 l 2,20,21
 192 1154 192 1154 360 1315.5 c 128,-1,22
 528 1477 528 1477 758 1477 c 0,23,24
 825 1477 825 1477 890.5 1466 c 128,-1,25
 956 1455 956 1455 1010 1435 c 1,26,-1
 916 1222 l 1,27,28
 880 1236 880 1236 833 1244 c 128,-1,29
 786 1252 786 1252 731 1252 c 0,30,31
 630 1252 630 1252 548 1147.5 c 128,-1,32
 466 1043 466 1043 442 882 c 2,33,-1
 396 576 l 2,34,35
 370 404 370 404 421 303.5 c 128,-1,36
 472 203 472 203 584 203 c 0,37,38
 665 203 665 203 717.5 224 c 128,-1,39
 770 245 770 245 801 276 c 1,40,-1
 843 553 l 1,41,-1
 655 553 l 1,42,-1
 685 755 l 1,43,-1
 1353 755 l 1,44,-1
 1323 553 l 1,45,-1
 1135 553 l 1,46,-1
 1094 277 l 1,47,48
 1116 244 1116 244 1159 223.5 c 128,-1,49
 1202 203 1202 203 1288 203 c 0,50,51
 1394 203 1394 203 1478 308 c 128,-1,52
 1562 413 1562 413 1587 576 c 2,53,-1
 1633 882 l 2,54,55
 1658 1051 1658 1051 1610 1151.5 c 128,-1,56
 1562 1252 1562 1252 1457 1252 c 0,57,58
 1403 1252 1403 1252 1352 1244 c 128,-1,59
 1301 1236 1301 1236 1261 1222 c 1,60,-1
 1232 1435 l 1,0,1
EndSplineSet
Validated: 33
EndChar

StartChar: uni0461
Encoding: 1121 1121 525
Width: 1461
GlyphClass: 1
Flags: W
LayerCount: 2
Fore
SplineSet
483 403 m 1,0,-1
 489 256 l 1,1,-1
 495 255 l 1,2,-1
 558 403 l 1,3,-1
 682 703 l 1,4,-1
 628 1082 l 1,5,-1
 918 1082 l 1,6,-1
 960 403 l 1,7,-1
 963 326 l 1,8,-1
 969 325 l 1,9,-1
 973 336 l 1,10,11
 1068 490 1068 490 1125 682 c 128,-1,12
 1182 874 1182 874 1208 1082 c 1,13,-1
 1513 1082 l 1,14,15
 1446 795 1446 795 1330.5 527.5 c 128,-1,16
 1215 260 1215 260 1054 0 c 1,17,-1
 782 0 l 1,18,-1
 735 327 l 1,19,-1
 730 328 l 1,20,-1
 568 0 l 1,21,-1
 304 0 l 1,22,-1
 98 1082 l 1,23,-1
 403 1082 l 1,24,-1
 483 403 l 1,0,-1
EndSplineSet
Validated: 1
EndChar

StartChar: uni0462
Encoding: 1122 1122 526
Width: 1283
GlyphClass: 1
Flags: W
LayerCount: 2
Fore
SplineSet
761 1090 m 1,0,-1
 507 1090 l 1,1,-1
 485 944 l 1,2,-1
 736 944 l 2,3,4
 977 944 977 944 1109.5 811.5 c 128,-1,5
 1242 679 1242 679 1212 474 c 0,6,7
 1179 256 1179 256 1013 128 c 128,-1,8
 847 0 847 0 594 0 c 2,9,-1
 52 0 l 1,10,-1
 215 1090 l 1,11,-1
 90 1090 l 1,12,-1
 117 1271 l 1,13,-1
 242 1271 l 1,14,-1
 270 1456 l 1,15,-1
 562 1456 l 1,16,-1
 534 1271 l 1,17,-1
 788 1271 l 1,18,-1
 761 1090 l 1,0,-1
452 719 m 1,19,-1
 378 224 l 1,20,-1
 628 224 l 2,21,22
 745 224 745 224 825 298 c 128,-1,23
 905 372 905 372 921 476 c 0,24,25
 936 581 936 581 881 650 c 128,-1,26
 826 719 826 719 702 719 c 2,27,-1
 452 719 l 1,19,-1
EndSplineSet
Validated: 33
EndChar

StartChar: uni0463
Encoding: 1123 1123 527
Width: 1143
GlyphClass: 1
Flags: W
LayerCount: 2
Fore
SplineSet
763 1105 m 1,0,-1
 507 1105 l 1,1,-1
 451 732 l 1,2,-1
 655 732 l 2,3,4
 864 732 864 732 978 630.5 c 128,-1,5
 1092 529 1092 529 1068 368 c 0,6,7
 1042 197 1042 197 903.5 98.5 c 128,-1,8
 765 0 765 0 545 0 c 2,9,-1
 49 0 l 1,10,-1
 214 1105 l 1,11,-1
 75 1105 l 1,12,-1
 102 1286 l 1,13,-1
 241 1286 l 1,14,-1
 283 1562 l 1,15,-1
 576 1562 l 1,16,-1
 534 1286 l 1,17,-1
 790 1286 l 1,18,-1
 763 1105 l 1,0,-1
418 508 m 1,19,-1
 375 223 l 1,20,-1
 578 223 l 2,21,22
 664 223 664 223 715.5 263.5 c 128,-1,23
 767 304 767 304 777 366 c 0,24,25
 786 429 786 429 748.5 468.5 c 128,-1,26
 711 508 711 508 621 508 c 2,27,-1
 418 508 l 1,19,-1
EndSplineSet
Validated: 33
EndChar

StartChar: uni0464
Encoding: 1124 1124 528
Width: 1828
GlyphClass: 1
Flags: W
LayerCount: 2
Fore
SplineSet
1238 611 m 1,0,-1
 869 611 l 1,1,-1
 865 584 l 2,2,3
 839 410 839 410 900.5 307 c 128,-1,4
 962 204 962 204 1101 204 c 0,5,6
 1227 204 1227 204 1304 273.5 c 128,-1,7
 1381 343 1381 343 1402 483 c 1,8,-1
 1684 483 l 1,9,-1
 1686 477 l 1,10,11
 1654 235 1654 235 1491 107.5 c 128,-1,12
 1328 -20 1328 -20 1067 -20 c 0,13,14
 815 -20 815 -20 674.5 150 c 128,-1,15
 534 320 534 320 574 584 c 2,16,-1
 578 611 l 1,17,-1
 458 611 l 1,18,-1
 367 0 l 1,19,-1
 75 0 l 1,20,-1
 293 1456 l 1,21,-1
 585 1456 l 1,22,-1
 492 836 l 1,23,-1
 611 836 l 1,24,-1
 617 873 l 2,25,26
 658 1149 658 1149 838.5 1313.5 c 128,-1,27
 1019 1478 1019 1478 1277 1478 c 0,28,29
 1533 1478 1533 1478 1668 1346.5 c 128,-1,30
 1803 1215 1803 1215 1764 982 c 1,31,-1
 1761 976 l 1,32,-1
 1477 976 l 1,33,34
 1499 1121 1499 1121 1442 1187 c 128,-1,35
 1385 1253 1385 1253 1243 1253 c 0,36,37
 1117 1253 1117 1253 1025 1146 c 128,-1,38
 933 1039 933 1039 908 875 c 2,39,-1
 902 836 l 1,40,-1
 1271 836 l 1,41,-1
 1238 611 l 1,0,-1
EndSplineSet
Validated: 33
EndChar

StartChar: uni0465
Encoding: 1125 1125 529
Width: 1546
GlyphClass: 1
Flags: W
LayerCount: 2
Fore
SplineSet
1086 461 m 1,0,-1
 771 461 l 1,1,2
 761 340 761 340 799 271.5 c 128,-1,3
 837 203 837 203 940 203 c 0,4,5
 1013 203 1013 203 1066.5 249 c 128,-1,6
 1120 295 1120 295 1132 370 c 1,7,-1
 1397 370 l 1,8,-1
 1399 364 l 1,9,10
 1377 194 1377 194 1236.5 86.5 c 128,-1,11
 1096 -21 1096 -21 907 -21 c 0,12,13
 693 -21 693 -21 579.5 114 c 128,-1,14
 466 249 466 249 480 461 c 1,15,-1
 412 461 l 1,16,-1
 343 0 l 1,17,-1
 51 0 l 1,18,-1
 213 1082 l 1,19,-1
 505 1082 l 1,20,-1
 439 642 l 1,21,-1
 508 642 l 1,22,23
 562 852 562 852 708 977 c 128,-1,24
 854 1102 854 1102 1073 1102 c 0,25,26
 1264 1102 1264 1102 1371.5 987 c 128,-1,27
 1479 872 1479 872 1447 687 c 1,28,-1
 1445 682 l 1,29,-1
 1178 682 l 1,30,31
 1191 768 1191 768 1155.5 822.5 c 128,-1,32
 1120 877 1120 877 1040 877 c 0,33,34
 950 877 950 877 891 812.5 c 128,-1,35
 832 748 832 748 807 648 c 1,36,-1
 809 642 l 1,37,-1
 1113 642 l 1,38,-1
 1086 461 l 1,0,-1
EndSplineSet
Validated: 33
EndChar

StartChar: uni0466
Encoding: 1126 1126 530
Width: 1346
GlyphClass: 1
Flags: W
LayerCount: 2
Fore
SplineSet
887 390 m 1,0,-1
 775 390 l 1,1,-1
 717 0 l 1,2,-1
 472 0 l 1,3,-1
 530 390 l 1,4,-1
 430 390 l 1,5,-1
 243 0 l 1,6,-1
 -62 0 l 1,7,-1
 670 1456 l 1,8,-1
 970 1456 l 1,9,-1
 1263 0 l 1,10,-1
 957 0 l 1,11,-1
 887 390 l 1,0,-1
527 591 m 1,12,-1
 851 591 l 1,13,-1
 765 1071 l 1,14,-1
 759 1072 l 1,15,-1
 527 591 l 1,12,-1
EndSplineSet
Validated: 1
EndChar

StartChar: uni0467
Encoding: 1127 1127 531
Width: 1146
GlyphClass: 1
Flags: W
LayerCount: 2
Fore
SplineSet
694 271 m 1,0,-1
 617 271 l 1,1,-1
 576 0 l 1,2,-1
 385 0 l 1,3,-1
 426 271 l 1,4,-1
 357 271 l 1,5,-1
 224 0 l 1,6,-1
 -73 0 l 1,7,-1
 497 1082 l 1,8,-1
 797 1082 l 1,9,-1
 1044 0 l 1,10,-1
 747 0 l 1,11,-1
 694 271 l 1,0,-1
447 456 m 1,12,-1
 659 456 l 1,13,-1
 616 677 l 1,14,-1
 606 789 l 1,15,-1
 600 790 l 1,16,-1
 556 677 l 1,17,-1
 447 456 l 1,12,-1
EndSplineSet
Validated: 1
EndChar

StartChar: uni0468
Encoding: 1128 1128 532
Width: 1919
GlyphClass: 1
Flags: W
LayerCount: 2
Fore
SplineSet
473 591 m 1,0,-1
 764 591 l 1,1,-1
 1199 1456 l 1,2,-1
 1499 1456 l 1,3,-1
 1792 0 l 1,4,-1
 1486 0 l 1,5,-1
 1416 390 l 1,6,-1
 1304 390 l 1,7,-1
 1246 0 l 1,8,-1
 1001 0 l 1,9,-1
 1059 390 l 1,10,-1
 959 390 l 1,11,-1
 772 0 l 1,12,-1
 467 0 l 1,13,-1
 662 389 l 1,14,-1
 443 389 l 1,15,-1
 385 0 l 1,16,-1
 93 0 l 1,17,-1
 311 1456 l 1,18,-1
 603 1456 l 1,19,-1
 473 591 l 1,0,-1
1056 591 m 1,20,-1
 1380 591 l 1,21,-1
 1294 1071 l 1,22,-1
 1288 1072 l 1,23,-1
 1056 591 l 1,20,-1
EndSplineSet
Validated: 1
EndChar

StartChar: uni0469
Encoding: 1129 1129 533
Width: 1638
GlyphClass: 1
Flags: W
LayerCount: 2
Fore
SplineSet
446 455 m 1,0,-1
 614 455 l 1,1,-1
 944 1082 l 1,2,-1
 1244 1082 l 1,3,-1
 1491 0 l 1,4,-1
 1194 0 l 1,5,-1
 1141 271 l 1,6,-1
 1064 271 l 1,7,-1
 1023 0 l 1,8,-1
 832 0 l 1,9,-1
 873 271 l 1,10,-1
 804 271 l 1,11,-1
 671 0 l 1,12,-1
 86 0 l 1,13,-1
 248 1082 l 1,14,-1
 540 1082 l 1,15,-1
 446 455 l 1,0,-1
894 456 m 1,16,-1
 1106 456 l 1,17,-1
 1063 677 l 1,18,-1
 1053 789 l 1,19,-1
 1047 790 l 1,20,-1
 1003 677 l 1,21,-1
 894 456 l 1,16,-1
418 272 m 1,22,-1
 382 28 l 1,23,-1
 387 26 l 1,24,-1
 517 272 l 1,25,-1
 418 272 l 1,22,-1
EndSplineSet
Validated: 1
EndChar

StartChar: uni046A
Encoding: 1130 1130 534
Width: 1784
GlyphClass: 1
Flags: W
LayerCount: 2
Fore
SplineSet
1216 804 m 1,0,1
 1450 796 1450 796 1563.5 685.5 c 128,-1,2
 1677 575 1677 575 1643 344 c 2,3,-1
 1591 0 l 1,4,-1
 1299 0 l 1,5,-1
 1351 344 l 2,6,7
 1371 480 1371 480 1321.5 528.5 c 128,-1,8
 1272 577 1272 577 1142 577 c 2,9,-1
 1058 577 l 1,10,-1
 971 0 l 1,11,-1
 679 0 l 1,12,-1
 766 577 l 1,13,-1
 656 577 l 2,14,15
 532 577 532 577 464 525 c 128,-1,16
 396 473 396 473 377 344 c 2,17,-1
 325 0 l 1,18,-1
 33 0 l 1,19,-1
 85 344 l 2,20,21
 122 595 122 595 270 699 c 128,-1,22
 418 803 418 803 683 805 c 1,23,-1
 406 1456 l 1,24,-1
 1688 1456 l 1,25,-1
 1216 804 l 1,0,1
955 840 m 1,26,-1
 1215 1228 l 1,27,-1
 811 1228 l 1,28,-1
 955 840 l 1,26,-1
EndSplineSet
Validated: 33
EndChar

StartChar: uni046B
Encoding: 1131 1131 535
Width: 1501
GlyphClass: 1
Flags: W
LayerCount: 2
Fore
SplineSet
1026 607 m 1,0,1
 1201 585 1201 585 1284 481.5 c 128,-1,2
 1367 378 1367 378 1338 179 c 2,3,-1
 1311 0 l 1,4,-1
 1020 0 l 1,5,-1
 1047 179 l 2,6,7
 1066 307 1066 307 1029.5 352.5 c 128,-1,8
 993 398 993 398 892 398 c 2,9,-1
 881 398 l 1,10,-1
 821 0 l 1,11,-1
 529 0 l 1,12,-1
 588 398 l 1,13,-1
 569 398 l 2,14,15
 473 398 473 398 419.5 349.5 c 128,-1,16
 366 301 366 301 348 179 c 2,17,-1
 321 0 l 1,18,-1
 30 0 l 1,19,-1
 57 179 l 2,20,21
 89 394 89 394 202 494 c 128,-1,22
 315 594 315 594 512 610 c 1,23,-1
 308 1082 l 1,24,-1
 1373 1082 l 1,25,-1
 1026 607 l 1,0,1
771 636 m 1,26,-1
 777 635 l 1,27,-1
 938 894 l 1,28,-1
 686 894 l 1,29,-1
 771 636 l 1,26,-1
EndSplineSet
Validated: 33
EndChar

StartChar: uni046C
Encoding: 1132 1132 536
Width: 2383
GlyphClass: 1
Flags: W
LayerCount: 2
Fore
SplineSet
1309 578 m 1,0,-1
 339 578 l 1,1,-1
 373 806 l 1,2,-1
 1343 806 l 1,3,-1
 1309 578 l 1,0,-1
366 0 m 1,4,-1
 74 0 l 1,5,-1
 292 1456 l 1,6,-1
 584 1456 l 1,7,-1
 366 0 l 1,4,-1
1783 804 m 1,8,9
 2017 796 2017 796 2130.5 685.5 c 128,-1,10
 2244 575 2244 575 2210 344 c 2,11,-1
 2158 0 l 1,12,-1
 1866 0 l 1,13,-1
 1918 344 l 2,14,15
 1938 480 1938 480 1888.5 528.5 c 128,-1,16
 1839 577 1839 577 1709 577 c 2,17,-1
 1625 577 l 1,18,-1
 1538 0 l 1,19,-1
 1246 0 l 1,20,-1
 1333 577 l 1,21,-1
 1223 577 l 2,22,23
 1099 577 1099 577 1031 525 c 128,-1,24
 963 473 963 473 944 344 c 2,25,-1
 892 0 l 1,26,-1
 600 0 l 1,27,-1
 652 344 l 2,28,29
 689 595 689 595 837 699 c 128,-1,30
 985 803 985 803 1250 805 c 1,31,-1
 973 1456 l 1,32,-1
 2255 1456 l 1,33,-1
 1783 804 l 1,8,9
1522 840 m 1,34,-1
 1782 1228 l 1,35,-1
 1378 1228 l 1,36,-1
 1522 840 l 1,34,-1
EndSplineSet
Validated: 37
EndChar

StartChar: uni046D
Encoding: 1133 1133 537
Width: 2062
GlyphClass: 1
Flags: W
LayerCount: 2
Fore
SplineSet
1209 406 m 1,0,-1
 213 406 l 1,1,-1
 244 613 l 1,2,-1
 1240 613 l 1,3,-1
 1209 406 l 1,0,-1
345 0 m 1,4,-1
 53 0 l 1,5,-1
 215 1082 l 1,6,-1
 507 1082 l 1,7,-1
 345 0 l 1,4,-1
1532 607 m 1,8,9
 1707 585 1707 585 1790 481.5 c 128,-1,10
 1873 378 1873 378 1844 179 c 2,11,-1
 1817 0 l 1,12,-1
 1526 0 l 1,13,-1
 1553 179 l 2,14,15
 1572 307 1572 307 1535.5 352.5 c 128,-1,16
 1499 398 1499 398 1398 398 c 2,17,-1
 1387 398 l 1,18,-1
 1327 0 l 1,19,-1
 1035 0 l 1,20,-1
 1094 398 l 1,21,-1
 1075 398 l 2,22,23
 979 398 979 398 925.5 349.5 c 128,-1,24
 872 301 872 301 854 179 c 2,25,-1
 827 0 l 1,26,-1
 536 0 l 1,27,-1
 563 179 l 2,28,29
 595 394 595 394 708 494 c 128,-1,30
 821 594 821 594 1018 610 c 1,31,-1
 814 1082 l 1,32,-1
 1879 1082 l 1,33,-1
 1532 607 l 1,8,9
1277 636 m 1,34,-1
 1283 635 l 1,35,-1
 1444 894 l 1,36,-1
 1192 894 l 1,37,-1
 1277 636 l 1,34,-1
EndSplineSet
Validated: 37
EndChar

StartChar: uni046E
Encoding: 1134 1134 538
Width: 1052
GlyphClass: 1
Flags: W
LayerCount: 2
Fore
SplineSet
519 1456 m 2,0,1
 761 1456 761 1456 886 1360 c 128,-1,2
 1011 1264 1011 1264 983 1075 c 0,3,4
 964 952 964 952 892 869.5 c 128,-1,5
 820 787 820 787 704 745 c 1,6,7
 828 701 828 701 887 615 c 128,-1,8
 946 529 946 529 928 408 c 0,9,10
 896 198 896 198 744 88.5 c 128,-1,11
 592 -21 592 -21 359 -21 c 2,12,-1
 301 -21 l 2,13,14
 245 -21 245 -21 212.5 -47 c 128,-1,15
 180 -73 180 -73 173 -117 c 0,16,17
 163 -180 163 -180 199 -214.5 c 128,-1,18
 235 -249 235 -249 293 -277 c 1,19,-1
 186 -448 l 1,20,21
 32 -412 32 -412 -37 -316 c 128,-1,22
 -106 -220 -106 -220 -87 -80 c 0,23,24
 -64 70 -64 70 39.5 140.5 c 128,-1,25
 143 211 143 211 314 211 c 2,26,-1
 378 211 l 2,27,28
 480 211 480 211 551.5 265 c 128,-1,29
 623 319 623 319 636 404 c 0,30,31
 653 518 653 518 592 574 c 128,-1,32
 531 630 531 630 396 630 c 2,33,-1
 253 630 l 1,34,-1
 263 701 l 1,35,-1
 287 862 l 1,36,-1
 437 862 l 2,37,38
 546 862 546 862 610 913.5 c 128,-1,39
 674 965 674 965 688 1051 c 0,40,41
 700 1134 700 1134 650 1179.5 c 128,-1,42
 600 1225 600 1225 485 1225 c 2,43,-1
 225 1225 l 1,44,-1
 259 1456 l 1,45,-1
 519 1456 l 2,0,1
750 1788 m 1,46,-1
 886 1915 l 1,47,-1
 1150 1915 l 1,48,-1
 1147 1898 l 1,49,-1
 828 1643 l 1,50,-1
 629 1643 l 1,51,-1
 386 1899 l 1,52,-1
 389 1915 l 1,53,-1
 653 1915 l 1,54,-1
 750 1788 l 1,46,-1
EndSplineSet
Validated: 33
EndChar

StartChar: uni046F
Encoding: 1135 1135 539
Width: 1033
GlyphClass: 1
Flags: W
LayerCount: 2
Fore
SplineSet
463 1082 m 2,0,1
 693 1082 693 1082 814 1006.5 c 128,-1,2
 935 931 935 931 913 783 c 0,3,4
 900 695 900 695 845 634 c 128,-1,5
 790 573 790 573 698 539 c 1,6,7
 800 505 800 505 849 445 c 128,-1,8
 898 385 898 385 887 304 c 0,9,10
 862 146 862 146 724.5 62.5 c 128,-1,11
 587 -21 587 -21 374 -21 c 2,12,-1
 325 -21 l 2,13,14
 261 -21 261 -21 224.5 -47 c 128,-1,15
 188 -73 188 -73 181 -117 c 0,16,17
 171 -180 171 -180 202.5 -215 c 128,-1,18
 234 -250 234 -250 286 -277 c 1,19,-1
 181 -434 l 1,20,21
 56 -392 56 -392 -12.5 -298.5 c 128,-1,22
 -81 -205 -81 -205 -64 -80 c 0,23,24
 -43 56 -43 56 51.5 120 c 128,-1,25
 146 184 146 184 303 184 c 2,26,-1
 359 184 l 2,27,28
 456 184 456 184 522 220 c 128,-1,29
 588 256 588 256 597 313 c 0,30,31
 607 381 607 381 552.5 415 c 128,-1,32
 498 449 498 449 384 449 c 2,33,-1
 225 449 l 1,34,-1
 237 531 l 1,35,-1
 252 626 l 1,36,-1
 418 626 l 2,37,38
 507 626 507 626 558 662.5 c 128,-1,39
 609 699 609 699 619 760 c 0,40,41
 627 815 627 815 581 846 c 128,-1,42
 535 877 535 877 433 877 c 2,43,-1
 173 877 l 1,44,-1
 203 1082 l 1,45,-1
 463 1082 l 2,0,1
626 1444 m 1,46,-1
 762 1571 l 1,47,-1
 1026 1571 l 1,48,-1
 1023 1554 l 1,49,-1
 704 1299 l 1,50,-1
 505 1299 l 1,51,-1
 262 1555 l 1,52,-1
 265 1571 l 1,53,-1
 529 1571 l 1,54,-1
 626 1444 l 1,46,-1
EndSplineSet
Validated: 33
EndChar

